G04 #@! TF.GenerationSoftware,KiCad,Pcbnew,5.99.0-unknown-r16857-c6889b00*
G04 #@! TF.CreationDate,2019-10-20T20:17:36+02:00*
G04 #@! TF.ProjectId,pulsr-panel,70756c73-722d-4706-916e-656c2e6b6963,rev?*
G04 #@! TF.SameCoordinates,Original*
G04 #@! TF.FileFunction,Profile,NP*
%FSLAX46Y46*%
G04 Gerber Fmt 4.6, Leading zero omitted, Abs format (unit mm)*
G04 Created by KiCad (PCBNEW 5.99.0-unknown-r16857-c6889b00) date 2019-10-20 20:17:36*
%MOMM*%
%LPD*%
G04 APERTURE LIST*
%ADD10C,0.050000*%
G04 APERTURE END LIST*
D10*
X119550000Y-114850000D02*
X119550000Y-104350000D01*
X86550000Y-114850000D02*
X86550000Y-104350000D01*
X53550000Y-114850000D02*
X53550000Y-104350000D01*
X119550000Y-104350000D02*
X119550000Y-93850000D01*
X86550000Y-104350000D02*
X86550000Y-93850000D01*
X53550000Y-104350000D02*
X53550000Y-93850000D01*
X119550000Y-93850000D02*
X119550000Y-83350000D01*
X86550000Y-93850000D02*
X86550000Y-83350000D01*
X53550000Y-93850000D02*
X53550000Y-83350000D01*
X119550000Y-83350000D02*
X119550000Y-72850000D01*
X86550000Y-83350000D02*
X86550000Y-72850000D01*
X53550000Y-83350000D02*
X53550000Y-72850000D01*
X119550000Y-72850000D02*
X119550000Y-62350000D01*
X86550000Y-72850000D02*
X86550000Y-62350000D01*
X53550000Y-72850000D02*
X53550000Y-62350000D01*
X119550000Y-62350000D02*
X119550000Y-51850000D01*
X86550000Y-62350000D02*
X86550000Y-51850000D01*
X53550000Y-62350000D02*
X53550000Y-51850000D01*
X119550000Y-51850000D02*
X119550000Y-41350000D01*
X86550000Y-51850000D02*
X86550000Y-41350000D01*
X53550000Y-51850000D02*
X53550000Y-41350000D01*
X119550000Y-41350000D02*
X119550000Y-30850000D01*
X86550000Y-41350000D02*
X86550000Y-30850000D01*
X53550000Y-41350000D02*
X53550000Y-30850000D01*
X119550000Y-30850000D02*
X119550000Y-20350000D01*
X86550000Y-30850000D02*
X86550000Y-20350000D01*
X86550000Y-114850000D02*
X119550000Y-114850000D01*
X53550000Y-114850000D02*
X86550000Y-114850000D01*
X20550000Y-114850000D02*
X53550000Y-114850000D01*
X86550000Y-104350000D02*
X119550000Y-104350000D01*
X53550000Y-104350000D02*
X86550000Y-104350000D01*
X20550000Y-104350000D02*
X53550000Y-104350000D01*
X86550000Y-93850000D02*
X119550000Y-93850000D01*
X53550000Y-93850000D02*
X86550000Y-93850000D01*
X20550000Y-93850000D02*
X53550000Y-93850000D01*
X86550000Y-83350000D02*
X119550000Y-83350000D01*
X53550000Y-83350000D02*
X86550000Y-83350000D01*
X20550000Y-83350000D02*
X53550000Y-83350000D01*
X86550000Y-72850000D02*
X119550000Y-72850000D01*
X53550000Y-72850000D02*
X86550000Y-72850000D01*
X20550000Y-72850000D02*
X53550000Y-72850000D01*
X86550000Y-62350000D02*
X119550000Y-62350000D01*
X53550000Y-62350000D02*
X86550000Y-62350000D01*
X20550000Y-62350000D02*
X53550000Y-62350000D01*
X86550000Y-51850000D02*
X119550000Y-51850000D01*
X53550000Y-51850000D02*
X86550000Y-51850000D01*
X20550000Y-51850000D02*
X53550000Y-51850000D01*
X86550000Y-41350000D02*
X119550000Y-41350000D01*
X53550000Y-41350000D02*
X86550000Y-41350000D01*
X20550000Y-41350000D02*
X53550000Y-41350000D01*
X86550000Y-30850000D02*
X119550000Y-30850000D01*
X53550000Y-30850000D02*
X86550000Y-30850000D01*
X86550000Y-104350000D02*
X86550000Y-114850000D01*
X53550000Y-104350000D02*
X53550000Y-114850000D01*
X20550000Y-104350000D02*
X20550000Y-114850000D01*
X86550000Y-93850000D02*
X86550000Y-104350000D01*
X53550000Y-93850000D02*
X53550000Y-104350000D01*
X20550000Y-93850000D02*
X20550000Y-104350000D01*
X86550000Y-83350000D02*
X86550000Y-93850000D01*
X53550000Y-83350000D02*
X53550000Y-93850000D01*
X20550000Y-83350000D02*
X20550000Y-93850000D01*
X86550000Y-72850000D02*
X86550000Y-83350000D01*
X53550000Y-72850000D02*
X53550000Y-83350000D01*
X20550000Y-72850000D02*
X20550000Y-83350000D01*
X86550000Y-62350000D02*
X86550000Y-72850000D01*
X53550000Y-62350000D02*
X53550000Y-72850000D01*
X20550000Y-62350000D02*
X20550000Y-72850000D01*
X86550000Y-51850000D02*
X86550000Y-62350000D01*
X53550000Y-51850000D02*
X53550000Y-62350000D01*
X20550000Y-51850000D02*
X20550000Y-62350000D01*
X86550000Y-41350000D02*
X86550000Y-51850000D01*
X53550000Y-41350000D02*
X53550000Y-51850000D01*
X20550000Y-41350000D02*
X20550000Y-51850000D01*
X86550000Y-30850000D02*
X86550000Y-41350000D01*
X53550000Y-30850000D02*
X53550000Y-41350000D01*
X20550000Y-30850000D02*
X20550000Y-41350000D01*
X86550000Y-20350000D02*
X86550000Y-30850000D01*
X53550000Y-20350000D02*
X53550000Y-30850000D01*
X119550000Y-104350000D02*
X86550000Y-104350000D01*
X86550000Y-104350000D02*
X53550000Y-104350000D01*
X53550000Y-104350000D02*
X20550000Y-104350000D01*
X119550000Y-93850000D02*
X86550000Y-93850000D01*
X86550000Y-93850000D02*
X53550000Y-93850000D01*
X53550000Y-93850000D02*
X20550000Y-93850000D01*
X119550000Y-83350000D02*
X86550000Y-83350000D01*
X86550000Y-83350000D02*
X53550000Y-83350000D01*
X53550000Y-83350000D02*
X20550000Y-83350000D01*
X119550000Y-72850000D02*
X86550000Y-72850000D01*
X86550000Y-72850000D02*
X53550000Y-72850000D01*
X53550000Y-72850000D02*
X20550000Y-72850000D01*
X119550000Y-62350000D02*
X86550000Y-62350000D01*
X86550000Y-62350000D02*
X53550000Y-62350000D01*
X53550000Y-62350000D02*
X20550000Y-62350000D01*
X119550000Y-51850000D02*
X86550000Y-51850000D01*
X86550000Y-51850000D02*
X53550000Y-51850000D01*
X53550000Y-51850000D02*
X20550000Y-51850000D01*
X119550000Y-41350000D02*
X86550000Y-41350000D01*
X86550000Y-41350000D02*
X53550000Y-41350000D01*
X53550000Y-41350000D02*
X20550000Y-41350000D01*
X119550000Y-30850000D02*
X86550000Y-30850000D01*
X86550000Y-30850000D02*
X53550000Y-30850000D01*
X53550000Y-30850000D02*
X20550000Y-30850000D01*
X119550000Y-20350000D02*
X86550000Y-20350000D01*
X86550000Y-20350000D02*
X53550000Y-20350000D01*
X53550000Y-20350000D02*
X20550000Y-20350000D01*
X53550000Y-30850000D02*
X53550000Y-20350000D01*
X20550000Y-30850000D02*
X53550000Y-30850000D01*
X20550000Y-20350000D02*
X20550000Y-30850000D01*
M02*
