G04 #@! TF.GenerationSoftware,KiCad,Pcbnew,(5.1.2)-2*
G04 #@! TF.CreationDate,2019-09-09T20:55:07+02:00*
G04 #@! TF.ProjectId,solenoid-board-panel,736f6c65-6e6f-4696-942d-626f6172642d,rev?*
G04 #@! TF.SameCoordinates,Original*
G04 #@! TF.FileFunction,Profile,NP*
%FSLAX46Y46*%
G04 Gerber Fmt 4.6, Leading zero omitted, Abs format (unit mm)*
G04 Created by KiCad (PCBNEW (5.1.2)-2) date 2019-09-09 20:55:07*
%MOMM*%
%LPD*%
G04 APERTURE LIST*
%ADD10C,0.050000*%
G04 APERTURE END LIST*
D10*
X109000000Y-94000000D02*
X76000000Y-94000000D01*
X76000000Y-94000000D02*
X43000000Y-94000000D01*
X43000000Y-94000000D02*
X10000000Y-94000000D01*
X109000000Y-83500000D02*
X76000000Y-83500000D01*
X76000000Y-83500000D02*
X43000000Y-83500000D01*
X43000000Y-83500000D02*
X10000000Y-83500000D01*
X109000000Y-73000000D02*
X76000000Y-73000000D01*
X76000000Y-73000000D02*
X43000000Y-73000000D01*
X43000000Y-73000000D02*
X10000000Y-73000000D01*
X109000000Y-62500000D02*
X76000000Y-62500000D01*
X76000000Y-62500000D02*
X43000000Y-62500000D01*
X43000000Y-62500000D02*
X10000000Y-62500000D01*
X109000000Y-52000000D02*
X76000000Y-52000000D01*
X76000000Y-52000000D02*
X43000000Y-52000000D01*
X43000000Y-52000000D02*
X10000000Y-52000000D01*
X109000000Y-41500000D02*
X76000000Y-41500000D01*
X76000000Y-41500000D02*
X43000000Y-41500000D01*
X43000000Y-41500000D02*
X10000000Y-41500000D01*
X109000000Y-31000000D02*
X76000000Y-31000000D01*
X76000000Y-31000000D02*
X43000000Y-31000000D01*
X43000000Y-31000000D02*
X10000000Y-31000000D01*
X109000000Y-20500000D02*
X76000000Y-20500000D01*
X76000000Y-20500000D02*
X43000000Y-20500000D01*
X43000000Y-20500000D02*
X10000000Y-20500000D01*
X109000000Y-10000000D02*
X76000000Y-10000000D01*
X76000000Y-10000000D02*
X43000000Y-10000000D01*
X76000000Y-94000000D02*
X76000000Y-104500000D01*
X43000000Y-94000000D02*
X43000000Y-104500000D01*
X10000000Y-94000000D02*
X10000000Y-104500000D01*
X76000000Y-83500000D02*
X76000000Y-94000000D01*
X43000000Y-83500000D02*
X43000000Y-94000000D01*
X10000000Y-83500000D02*
X10000000Y-94000000D01*
X76000000Y-73000000D02*
X76000000Y-83500000D01*
X43000000Y-73000000D02*
X43000000Y-83500000D01*
X10000000Y-73000000D02*
X10000000Y-83500000D01*
X76000000Y-62500000D02*
X76000000Y-73000000D01*
X43000000Y-62500000D02*
X43000000Y-73000000D01*
X10000000Y-62500000D02*
X10000000Y-73000000D01*
X76000000Y-52000000D02*
X76000000Y-62500000D01*
X43000000Y-52000000D02*
X43000000Y-62500000D01*
X10000000Y-52000000D02*
X10000000Y-62500000D01*
X76000000Y-41500000D02*
X76000000Y-52000000D01*
X43000000Y-41500000D02*
X43000000Y-52000000D01*
X10000000Y-41500000D02*
X10000000Y-52000000D01*
X76000000Y-31000000D02*
X76000000Y-41500000D01*
X43000000Y-31000000D02*
X43000000Y-41500000D01*
X10000000Y-31000000D02*
X10000000Y-41500000D01*
X76000000Y-20500000D02*
X76000000Y-31000000D01*
X43000000Y-20500000D02*
X43000000Y-31000000D01*
X10000000Y-20500000D02*
X10000000Y-31000000D01*
X76000000Y-10000000D02*
X76000000Y-20500000D01*
X43000000Y-10000000D02*
X43000000Y-20500000D01*
X109000000Y-104500000D02*
X109000000Y-94000000D01*
X76000000Y-104500000D02*
X76000000Y-94000000D01*
X43000000Y-104500000D02*
X43000000Y-94000000D01*
X109000000Y-94000000D02*
X109000000Y-83500000D01*
X76000000Y-94000000D02*
X76000000Y-83500000D01*
X43000000Y-94000000D02*
X43000000Y-83500000D01*
X109000000Y-83500000D02*
X109000000Y-73000000D01*
X76000000Y-83500000D02*
X76000000Y-73000000D01*
X43000000Y-83500000D02*
X43000000Y-73000000D01*
X109000000Y-73000000D02*
X109000000Y-62500000D01*
X76000000Y-73000000D02*
X76000000Y-62500000D01*
X43000000Y-73000000D02*
X43000000Y-62500000D01*
X109000000Y-62500000D02*
X109000000Y-52000000D01*
X76000000Y-62500000D02*
X76000000Y-52000000D01*
X43000000Y-62500000D02*
X43000000Y-52000000D01*
X109000000Y-52000000D02*
X109000000Y-41500000D01*
X76000000Y-52000000D02*
X76000000Y-41500000D01*
X43000000Y-52000000D02*
X43000000Y-41500000D01*
X109000000Y-41500000D02*
X109000000Y-31000000D01*
X76000000Y-41500000D02*
X76000000Y-31000000D01*
X43000000Y-41500000D02*
X43000000Y-31000000D01*
X109000000Y-31000000D02*
X109000000Y-20500000D01*
X76000000Y-31000000D02*
X76000000Y-20500000D01*
X43000000Y-31000000D02*
X43000000Y-20500000D01*
X109000000Y-20500000D02*
X109000000Y-10000000D01*
X76000000Y-20500000D02*
X76000000Y-10000000D01*
X76000000Y-104500000D02*
X109000000Y-104500000D01*
X43000000Y-104500000D02*
X76000000Y-104500000D01*
X10000000Y-104500000D02*
X43000000Y-104500000D01*
X76000000Y-94000000D02*
X109000000Y-94000000D01*
X43000000Y-94000000D02*
X76000000Y-94000000D01*
X10000000Y-94000000D02*
X43000000Y-94000000D01*
X76000000Y-83500000D02*
X109000000Y-83500000D01*
X43000000Y-83500000D02*
X76000000Y-83500000D01*
X10000000Y-83500000D02*
X43000000Y-83500000D01*
X76000000Y-73000000D02*
X109000000Y-73000000D01*
X43000000Y-73000000D02*
X76000000Y-73000000D01*
X10000000Y-73000000D02*
X43000000Y-73000000D01*
X76000000Y-62500000D02*
X109000000Y-62500000D01*
X43000000Y-62500000D02*
X76000000Y-62500000D01*
X10000000Y-62500000D02*
X43000000Y-62500000D01*
X76000000Y-52000000D02*
X109000000Y-52000000D01*
X43000000Y-52000000D02*
X76000000Y-52000000D01*
X10000000Y-52000000D02*
X43000000Y-52000000D01*
X76000000Y-41500000D02*
X109000000Y-41500000D01*
X43000000Y-41500000D02*
X76000000Y-41500000D01*
X10000000Y-41500000D02*
X43000000Y-41500000D01*
X76000000Y-31000000D02*
X109000000Y-31000000D01*
X43000000Y-31000000D02*
X76000000Y-31000000D01*
X10000000Y-31000000D02*
X43000000Y-31000000D01*
X76000000Y-20500000D02*
X109000000Y-20500000D01*
X43000000Y-20500000D02*
X76000000Y-20500000D01*
X43000000Y-10000000D02*
X10000000Y-10000000D01*
X43000000Y-20500000D02*
X43000000Y-10000000D01*
X10000000Y-20500000D02*
X43000000Y-20500000D01*
X10000000Y-10000000D02*
X10000000Y-20500000D01*
M02*
