G04 #@! TF.GenerationSoftware,KiCad,Pcbnew,5.99.0-unknown-r16857-c6889b00*
G04 #@! TF.CreationDate,2019-09-24T09:19:39+02:00*
G04 #@! TF.ProjectId,solenoid-board-panel,736f6c65-6e6f-4696-942d-626f6172642d,rev?*
G04 #@! TF.SameCoordinates,Original*
G04 #@! TF.FileFunction,Profile,NP*
%FSLAX46Y46*%
G04 Gerber Fmt 4.6, Leading zero omitted, Abs format (unit mm)*
G04 Created by KiCad (PCBNEW 5.99.0-unknown-r16857-c6889b00) date 2019-09-24 09:19:39*
%MOMM*%
%LPD*%
G04 APERTURE LIST*
%ADD10C,0.050000*%
G04 APERTURE END LIST*
D10*
X119550000Y-114850000D02*
X119550000Y-104350000D01*
X86550000Y-114850000D02*
X86550000Y-104350000D01*
X53550000Y-114850000D02*
X53550000Y-104350000D01*
X119550000Y-104350000D02*
X119550000Y-93850000D01*
X86550000Y-104350000D02*
X86550000Y-93850000D01*
X53550000Y-104350000D02*
X53550000Y-93850000D01*
X119550000Y-93850000D02*
X119550000Y-83350000D01*
X86550000Y-93850000D02*
X86550000Y-83350000D01*
X53550000Y-93850000D02*
X53550000Y-83350000D01*
X119550000Y-83350000D02*
X119550000Y-72850000D01*
X86550000Y-83350000D02*
X86550000Y-72850000D01*
X53550000Y-83350000D02*
X53550000Y-72850000D01*
X119550000Y-72850000D02*
X119550000Y-62350000D01*
X86550000Y-72850000D02*
X86550000Y-62350000D01*
X53550000Y-72850000D02*
X53550000Y-62350000D01*
X119550000Y-62350000D02*
X119550000Y-51850000D01*
X86550000Y-62350000D02*
X86550000Y-51850000D01*
X53550000Y-62350000D02*
X53550000Y-51850000D01*
X119550000Y-51850000D02*
X119550000Y-41350000D01*
X86550000Y-51850000D02*
X86550000Y-41350000D01*
X53550000Y-51850000D02*
X53550000Y-41350000D01*
X119550000Y-41350000D02*
X119550000Y-30850000D01*
X86550000Y-41350000D02*
X86550000Y-30850000D01*
X53550000Y-41350000D02*
X53550000Y-30850000D01*
X119550000Y-30850000D02*
X119550000Y-20350000D01*
X86550000Y-30850000D02*
X86550000Y-20350000D01*
X86550000Y-114850000D02*
X119550000Y-114850000D01*
X53550000Y-114850000D02*
X86550000Y-114850000D01*
X20550000Y-114850000D02*
X53550000Y-114850000D01*
X86550000Y-104350000D02*
X119550000Y-104350000D01*
X53550000Y-104350000D02*
X86550000Y-104350000D01*
X20550000Y-104350000D02*
X53550000Y-104350000D01*
X86550000Y-93850000D02*
X119550000Y-93850000D01*
X53550000Y-93850000D02*
X86550000Y-93850000D01*
X20550000Y-93850000D02*
X53550000Y-93850000D01*
X86550000Y-83350000D02*
X119550000Y-83350000D01*
X53550000Y-83350000D02*
X86550000Y-83350000D01*
X20550000Y-83350000D02*
X53550000Y-83350000D01*
X86550000Y-72850000D02*
X119550000Y-72850000D01*
X53550000Y-72850000D02*
X86550000Y-72850000D01*
X20550000Y-72850000D02*
X53550000Y-72850000D01*
X86550000Y-62350000D02*
X119550000Y-62350000D01*
X53550000Y-62350000D02*
X86550000Y-62350000D01*
X20550000Y-62350000D02*
X53550000Y-62350000D01*
X86550000Y-51850000D02*
X119550000Y-51850000D01*
X53550000Y-51850000D02*
X86550000Y-51850000D01*
X20550000Y-51850000D02*
X53550000Y-51850000D01*
X86550000Y-41350000D02*
X119550000Y-41350000D01*
X53550000Y-41350000D02*
X86550000Y-41350000D01*
X20550000Y-41350000D02*
X53550000Y-41350000D01*
X86550000Y-30850000D02*
X119550000Y-30850000D01*
X53550000Y-30850000D02*
X86550000Y-30850000D01*
X86550000Y-104350000D02*
X86550000Y-114850000D01*
X53550000Y-104350000D02*
X53550000Y-114850000D01*
X20550000Y-104350000D02*
X20550000Y-114850000D01*
X86550000Y-93850000D02*
X86550000Y-104350000D01*
X53550000Y-93850000D02*
X53550000Y-104350000D01*
X20550000Y-93850000D02*
X20550000Y-104350000D01*
X86550000Y-83350000D02*
X86550000Y-93850000D01*
X53550000Y-83350000D02*
X53550000Y-93850000D01*
X20550000Y-83350000D02*
X20550000Y-93850000D01*
X86550000Y-72850000D02*
X86550000Y-83350000D01*
X53550000Y-72850000D02*
X53550000Y-83350000D01*
X20550000Y-72850000D02*
X20550000Y-83350000D01*
X86550000Y-62350000D02*
X86550000Y-72850000D01*
X53550000Y-62350000D02*
X53550000Y-72850000D01*
X20550000Y-62350000D02*
X20550000Y-72850000D01*
X86550000Y-51850000D02*
X86550000Y-62350000D01*
X53550000Y-51850000D02*
X53550000Y-62350000D01*
X20550000Y-51850000D02*
X20550000Y-62350000D01*
X86550000Y-41350000D02*
X86550000Y-51850000D01*
X53550000Y-41350000D02*
X53550000Y-51850000D01*
X20550000Y-41350000D02*
X20550000Y-51850000D01*
X86550000Y-30850000D02*
X86550000Y-41350000D01*
X53550000Y-30850000D02*
X53550000Y-41350000D01*
X20550000Y-30850000D02*
X20550000Y-41350000D01*
X86550000Y-20350000D02*
X86550000Y-30850000D01*
X53550000Y-20350000D02*
X53550000Y-30850000D01*
X119550000Y-104350000D02*
X86550000Y-104350000D01*
X86550000Y-104350000D02*
X53550000Y-104350000D01*
X53550000Y-104350000D02*
X20550000Y-104350000D01*
X119550000Y-93850000D02*
X86550000Y-93850000D01*
X86550000Y-93850000D02*
X53550000Y-93850000D01*
X53550000Y-93850000D02*
X20550000Y-93850000D01*
X119550000Y-83350000D02*
X86550000Y-83350000D01*
X86550000Y-83350000D02*
X53550000Y-83350000D01*
X53550000Y-83350000D02*
X20550000Y-83350000D01*
X119550000Y-72850000D02*
X86550000Y-72850000D01*
X86550000Y-72850000D02*
X53550000Y-72850000D01*
X53550000Y-72850000D02*
X20550000Y-72850000D01*
X119550000Y-62350000D02*
X86550000Y-62350000D01*
X86550000Y-62350000D02*
X53550000Y-62350000D01*
X53550000Y-62350000D02*
X20550000Y-62350000D01*
X119550000Y-51850000D02*
X86550000Y-51850000D01*
X86550000Y-51850000D02*
X53550000Y-51850000D01*
X53550000Y-51850000D02*
X20550000Y-51850000D01*
X119550000Y-41350000D02*
X86550000Y-41350000D01*
X86550000Y-41350000D02*
X53550000Y-41350000D01*
X53550000Y-41350000D02*
X20550000Y-41350000D01*
X119550000Y-30850000D02*
X86550000Y-30850000D01*
X86550000Y-30850000D02*
X53550000Y-30850000D01*
X53550000Y-30850000D02*
X20550000Y-30850000D01*
X119550000Y-20350000D02*
X86550000Y-20350000D01*
X86550000Y-20350000D02*
X53550000Y-20350000D01*
X53550000Y-20350000D02*
X20550000Y-20350000D01*
X53550000Y-30850000D02*
X53550000Y-20350000D01*
X20550000Y-30850000D02*
X53550000Y-30850000D01*
X20550000Y-20350000D02*
X20550000Y-30850000D01*
M02*
