M48
; DRILL file {KiCad (5.1.2)-2} date 2019-09-09 20:55:04
; FORMAT={2:4/ absolute / inch / suppress leading zeros}
; #@! TF.CreationDate,2019-09-09T20:55:04+02:00
; #@! TF.GenerationSoftware,Kicad,Pcbnew,(5.1.2)-2
FMAT,2
INCH,TZ
T1C0.0295
T2C0.0394
%
G90
G05
T1
X32323Y-17618
X32323Y-18406
X32323Y-19193
X32323Y-9350
X32323Y-10138
X32323Y-10925
X6339Y-30020
X6339Y-30807
X6339Y-31594
X27461Y-26122
X27461Y-26909
X6339Y-17618
X6339Y-18406
X6339Y-19193
X19331Y-21752
X19331Y-22539
X19331Y-23327
X19331Y-13484
X19331Y-14272
X19331Y-15059
X19331Y-30020
X19331Y-30807
X19331Y-31594
X14469Y-17854
X14469Y-18642
X40453Y-30256
X40453Y-31043
X27461Y-5453
X27461Y-6240
X14469Y-30256
X14469Y-31043
X14469Y-9587
X14469Y-10374
X27461Y-30256
X27461Y-31043
X40453Y-17854
X40453Y-18642
X6339Y-5217
X6339Y-6004
X6339Y-6791
X14469Y-34390
X14469Y-35177
X27461Y-21988
X27461Y-22776
X14469Y-26122
X14469Y-26909
X19331Y-34154
X19331Y-34941
X19331Y-35728
X19331Y-38287
X19331Y-39075
X19331Y-39862
X32323Y-13484
X32323Y-14272
X32323Y-15059
X27461Y-38524
X27461Y-39311
X32323Y-34154
X32323Y-34941
X32323Y-35728
X6339Y-34154
X6339Y-34941
X6339Y-35728
X6339Y-25886
X6339Y-26673
X6339Y-27461
X19331Y-5217
X19331Y-6004
X19331Y-6791
X40453Y-38524
X40453Y-39311
X19331Y-25886
X19331Y-26673
X19331Y-27461
X32323Y-21752
X32323Y-22539
X32323Y-23327
X27461Y-34390
X27461Y-35177
X32323Y-25886
X32323Y-26673
X32323Y-27461
X40453Y-13720
X40453Y-14508
X14469Y-13720
X14469Y-14508
X40453Y-34390
X40453Y-35177
X14469Y-21988
X14469Y-22776
X14469Y-5453
X14469Y-6240
X40453Y-21988
X40453Y-22776
X40453Y-26122
X40453Y-26909
X27461Y-17854
X27461Y-18642
X6339Y-13484
X6339Y-14272
X6339Y-15059
X14469Y-38524
X14469Y-39311
X40453Y-9587
X40453Y-10374
X6339Y-9350
X6339Y-10138
X6339Y-10925
X27461Y-9587
X27461Y-10374
X19331Y-17618
X19331Y-18406
X19331Y-19193
X32323Y-38287
X32323Y-39075
X32323Y-39862
X32323Y-30020
X32323Y-30807
X32323Y-31594
X6339Y-38287
X6339Y-39075
X6339Y-39862
X19331Y-9350
X19331Y-10138
X19331Y-10925
X32323Y-5217
X32323Y-6004
X32323Y-6791
X27461Y-13720
X27461Y-14508
X40453Y-5453
X40453Y-6240
X6339Y-21752
X6339Y-22539
X6339Y-23327
T2
X7559Y-29807
X7559Y-30807
X7559Y-31807
X33543Y-29807
X33543Y-30807
X33543Y-31807
X7559Y-38075
X7559Y-39075
X7559Y-40075
X20551Y-25673
X20551Y-26673
X20551Y-27673
X20551Y-29807
X20551Y-30807
X20551Y-31807
X20551Y-5004
X20551Y-6004
X20551Y-7004
X33543Y-38075
X33543Y-39075
X33543Y-40075
X7559Y-9138
X7559Y-10138
X7559Y-11138
X20551Y-9138
X20551Y-10138
X20551Y-11138
X7559Y-25673
X7559Y-26673
X7559Y-27673
X20551Y-21539
X20551Y-22539
X20551Y-23539
X33543Y-33941
X33543Y-34941
X33543Y-35941
X7559Y-13272
X7559Y-14272
X7559Y-15272
X33543Y-9138
X33543Y-10138
X33543Y-11138
X33543Y-17406
X33543Y-18406
X33543Y-19406
X20551Y-13272
X20551Y-14272
X20551Y-15272
X20551Y-33941
X20551Y-34941
X20551Y-35941
X33543Y-13272
X33543Y-14272
X33543Y-15272
X33543Y-5004
X33543Y-6004
X33543Y-7004
X7559Y-33941
X7559Y-34941
X7559Y-35941
X33543Y-21539
X33543Y-22539
X33543Y-23539
X20551Y-17406
X20551Y-18406
X20551Y-19406
X33543Y-25673
X33543Y-26673
X33543Y-27673
X20551Y-38075
X20551Y-39075
X20551Y-40075
X7559Y-5004
X7559Y-6004
X7559Y-7004
X7559Y-21539
X7559Y-22539
X7559Y-23539
X7559Y-17406
X7559Y-18406
X7559Y-19406
T0
M30
