M48
; DRILL file {KiCad 5.99.0-unknown-r16857-c6889b00} date 2019-09-24T09:19:34 CEST
; FORMAT={-:-/ absolute / inch / decimal}
; #@! TF.CreationDate,2019-09-24T09:19:34+02:00
; #@! TF.GenerationSoftware,Kicad,Pcbnew,5.99.0-unknown-r16857-c6889b00
FMAT,2
INCH
T1C0.0157
T2C0.0295
T3C0.0394
%
G90
G05
T1
X0.9075Y-0.8465
X0.9075Y-1.1772
X0.9075Y-1.2598
X0.9075Y-1.5906
X0.9075Y-1.6732
X0.9075Y-2.0039
X0.9075Y-2.0866
X0.9075Y-2.4173
X0.9075Y-2.5
X0.9075Y-2.8307
X0.9075Y-2.9134
X0.9075Y-3.2441
X0.9075Y-3.3268
X0.9075Y-3.6575
X0.9075Y-3.7402
X0.9075Y-4.0709
X0.9075Y-4.1535
X0.9075Y-4.4843
X1.1043Y-1.1772
X1.1043Y-1.5906
X1.1043Y-2.0039
X1.1043Y-2.4173
X1.1043Y-2.8307
X1.1043Y-3.2441
X1.1043Y-3.6575
X1.1043Y-4.0709
X1.1043Y-4.4843
X1.25Y-0.8465
X1.25Y-1.2598
X1.25Y-1.6732
X1.25Y-2.0866
X1.25Y-2.5
X1.25Y-2.9134
X1.25Y-3.3268
X1.25Y-3.7402
X1.25Y-4.1535
X1.4429Y-1.0669
X1.4429Y-1.4803
X1.4429Y-1.8937
X1.4429Y-2.3071
X1.4429Y-2.7205
X1.4429Y-3.1339
X1.4429Y-3.5472
X1.4429Y-3.9606
X1.4429Y-4.374
X1.4744Y-0.8465
X1.4744Y-1.2598
X1.4744Y-1.6732
X1.4744Y-2.0866
X1.4744Y-2.5
X1.4744Y-2.9134
X1.4744Y-3.3268
X1.4744Y-3.7402
X1.4744Y-4.1535
X1.4862Y-1.0669
X1.4862Y-1.1102
X1.4862Y-1.4803
X1.4862Y-1.5236
X1.4862Y-1.8937
X1.4862Y-1.937
X1.4862Y-2.3071
X1.4862Y-2.3504
X1.4862Y-2.7205
X1.4862Y-2.7638
X1.4862Y-3.1339
X1.4862Y-3.1772
X1.4862Y-3.5472
X1.4862Y-3.5906
X1.4862Y-3.9606
X1.4862Y-4.0039
X1.4862Y-4.374
X1.4862Y-4.4173
X1.6319Y-1.1772
X1.6319Y-1.5906
X1.6319Y-2.0039
X1.6319Y-2.4173
X1.6319Y-2.8307
X1.6319Y-3.2441
X1.6319Y-3.6575
X1.6319Y-4.0709
X1.6319Y-4.4843
X1.6358Y-0.8465
X1.6358Y-1.2598
X1.6358Y-1.6732
X1.6358Y-2.0866
X1.6358Y-2.5
X1.6358Y-2.9134
X1.6358Y-3.3268
X1.6358Y-3.7402
X1.6358Y-4.1535
X2.0689Y-0.9134
X2.0689Y-1.1063
X2.0689Y-1.3268
X2.0689Y-1.5197
X2.0689Y-1.7402
X2.0689Y-1.9331
X2.0689Y-2.1535
X2.0689Y-2.3465
X2.0689Y-2.5669
X2.0689Y-2.7598
X2.0689Y-2.9803
X2.0689Y-3.1732
X2.0689Y-3.3937
X2.0689Y-3.5866
X2.0689Y-3.8071
X2.0689Y-4.0
X2.0689Y-4.2205
X2.0689Y-4.4134
X2.2067Y-0.8465
X2.2067Y-1.1772
X2.2067Y-1.2598
X2.2067Y-1.5906
X2.2067Y-1.6732
X2.2067Y-2.0039
X2.2067Y-2.0866
X2.2067Y-2.4173
X2.2067Y-2.5
X2.2067Y-2.8307
X2.2067Y-2.9134
X2.2067Y-3.2441
X2.2067Y-3.3268
X2.2067Y-3.6575
X2.2067Y-3.7402
X2.2067Y-4.0709
X2.2067Y-4.1535
X2.2067Y-4.4843
X2.4035Y-1.1772
X2.4035Y-1.5906
X2.4035Y-2.0039
X2.4035Y-2.4173
X2.4035Y-2.8307
X2.4035Y-3.2441
X2.4035Y-3.6575
X2.4035Y-4.0709
X2.4035Y-4.4843
X2.5492Y-0.8465
X2.5492Y-1.2598
X2.5492Y-1.6732
X2.5492Y-2.0866
X2.5492Y-2.5
X2.5492Y-2.9134
X2.5492Y-3.3268
X2.5492Y-3.7402
X2.5492Y-4.1535
X2.7421Y-1.0669
X2.7421Y-1.4803
X2.7421Y-1.8937
X2.7421Y-2.3071
X2.7421Y-2.7205
X2.7421Y-3.1339
X2.7421Y-3.5472
X2.7421Y-3.9606
X2.7421Y-4.374
X2.7736Y-0.8465
X2.7736Y-1.2598
X2.7736Y-1.6732
X2.7736Y-2.0866
X2.7736Y-2.5
X2.7736Y-2.9134
X2.7736Y-3.3268
X2.7736Y-3.7402
X2.7736Y-4.1535
X2.7854Y-1.0669
X2.7854Y-1.1102
X2.7854Y-1.4803
X2.7854Y-1.5236
X2.7854Y-1.8937
X2.7854Y-1.937
X2.7854Y-2.3071
X2.7854Y-2.3504
X2.7854Y-2.7205
X2.7854Y-2.7638
X2.7854Y-3.1339
X2.7854Y-3.1772
X2.7854Y-3.5472
X2.7854Y-3.5906
X2.7854Y-3.9606
X2.7854Y-4.0039
X2.7854Y-4.374
X2.7854Y-4.4173
X2.9311Y-1.1772
X2.9311Y-1.5906
X2.9311Y-2.0039
X2.9311Y-2.4173
X2.9311Y-2.8307
X2.9311Y-3.2441
X2.9311Y-3.6575
X2.9311Y-4.0709
X2.9311Y-4.4843
X2.935Y-0.8465
X2.935Y-1.2598
X2.935Y-1.6732
X2.935Y-2.0866
X2.935Y-2.5
X2.935Y-2.9134
X2.935Y-3.3268
X2.935Y-3.7402
X2.935Y-4.1535
X3.3681Y-0.9134
X3.3681Y-1.1063
X3.3681Y-1.3268
X3.3681Y-1.5197
X3.3681Y-1.7402
X3.3681Y-1.9331
X3.3681Y-2.1535
X3.3681Y-2.3465
X3.3681Y-2.5669
X3.3681Y-2.7598
X3.3681Y-2.9803
X3.3681Y-3.1732
X3.3681Y-3.3937
X3.3681Y-3.5866
X3.3681Y-3.8071
X3.3681Y-4.0
X3.3681Y-4.2205
X3.3681Y-4.4134
X3.5059Y-0.8465
X3.5059Y-1.1772
X3.5059Y-1.2598
X3.5059Y-1.5906
X3.5059Y-1.6732
X3.5059Y-2.0039
X3.5059Y-2.0866
X3.5059Y-2.4173
X3.5059Y-2.5
X3.5059Y-2.8307
X3.5059Y-2.9134
X3.5059Y-3.2441
X3.5059Y-3.3268
X3.5059Y-3.6575
X3.5059Y-3.7402
X3.5059Y-4.0709
X3.5059Y-4.1535
X3.5059Y-4.4843
X3.7028Y-1.1772
X3.7028Y-1.5906
X3.7028Y-2.0039
X3.7028Y-2.4173
X3.7028Y-2.8307
X3.7028Y-3.2441
X3.7028Y-3.6575
X3.7028Y-4.0709
X3.7028Y-4.4843
X3.8484Y-0.8465
X3.8484Y-1.2598
X3.8484Y-1.6732
X3.8484Y-2.0866
X3.8484Y-2.5
X3.8484Y-2.9134
X3.8484Y-3.3268
X3.8484Y-3.7402
X3.8484Y-4.1535
X4.0413Y-1.0669
X4.0413Y-1.4803
X4.0413Y-1.8937
X4.0413Y-2.3071
X4.0413Y-2.7205
X4.0413Y-3.1339
X4.0413Y-3.5472
X4.0413Y-3.9606
X4.0413Y-4.374
X4.0728Y-0.8465
X4.0728Y-1.2598
X4.0728Y-1.6732
X4.0728Y-2.0866
X4.0728Y-2.5
X4.0728Y-2.9134
X4.0728Y-3.3268
X4.0728Y-3.7402
X4.0728Y-4.1535
X4.0846Y-1.0669
X4.0846Y-1.1102
X4.0846Y-1.4803
X4.0846Y-1.5236
X4.0846Y-1.8937
X4.0846Y-1.937
X4.0846Y-2.3071
X4.0846Y-2.3504
X4.0846Y-2.7205
X4.0846Y-2.7638
X4.0846Y-3.1339
X4.0846Y-3.1772
X4.0846Y-3.5472
X4.0846Y-3.5906
X4.0846Y-3.9606
X4.0846Y-4.0039
X4.0846Y-4.374
X4.0846Y-4.4173
X4.2303Y-1.1772
X4.2303Y-1.5906
X4.2303Y-2.0039
X4.2303Y-2.4173
X4.2303Y-2.8307
X4.2303Y-3.2441
X4.2303Y-3.6575
X4.2303Y-4.0709
X4.2303Y-4.4843
X4.2343Y-0.8465
X4.2343Y-1.2598
X4.2343Y-1.6732
X4.2343Y-2.0866
X4.2343Y-2.5
X4.2343Y-2.9134
X4.2343Y-3.3268
X4.2343Y-3.7402
X4.2343Y-4.1535
X4.6673Y-0.9134
X4.6673Y-1.1063
X4.6673Y-1.3268
X4.6673Y-1.5197
X4.6673Y-1.7402
X4.6673Y-1.9331
X4.6673Y-2.1535
X4.6673Y-2.3465
X4.6673Y-2.5669
X4.6673Y-2.7598
X4.6673Y-2.9803
X4.6673Y-3.1732
X4.6673Y-3.3937
X4.6673Y-3.5866
X4.6673Y-3.8071
X4.6673Y-4.0
X4.6673Y-4.2205
X4.6673Y-4.4134
T2
X1.8622Y-2.1929
X1.8622Y-2.2717
X1.8622Y-1.3661
X1.8622Y-1.4449
X3.6476Y-2.1693
X3.6476Y-2.248
X3.6476Y-2.3268
X4.4606Y-3.0197
X4.4606Y-3.0984
X3.6476Y-3.4094
X3.6476Y-3.4882
X3.6476Y-3.5669
X1.0492Y-4.2362
X1.0492Y-4.315
X1.0492Y-4.3937
X1.0492Y-2.5827
X1.0492Y-2.6614
X1.0492Y-2.7402
X1.8622Y-4.2598
X1.8622Y-4.3386
X4.4606Y-2.6063
X4.4606Y-2.685
X2.3484Y-2.5827
X2.3484Y-2.6614
X2.3484Y-2.7402
X2.3484Y-3.4094
X2.3484Y-3.4882
X2.3484Y-3.5669
X3.6476Y-3.8228
X3.6476Y-3.9016
X3.6476Y-3.9803
X1.0492Y-3.8228
X1.0492Y-3.9016
X1.0492Y-3.9803
X3.6476Y-2.5827
X3.6476Y-2.6614
X3.6476Y-2.7402
X4.4606Y-2.1929
X4.4606Y-2.2717
X3.6476Y-4.2362
X3.6476Y-4.315
X3.6476Y-4.3937
X2.3484Y-2.1693
X2.3484Y-2.248
X2.3484Y-2.3268
X1.8622Y-1.7795
X1.8622Y-1.8583
X1.0492Y-2.9961
X1.0492Y-3.0748
X1.0492Y-3.1535
X1.0492Y-3.4094
X1.0492Y-3.4882
X1.0492Y-3.5669
X4.4606Y-4.2598
X4.4606Y-4.3386
X3.1614Y-3.4331
X3.1614Y-3.5118
X4.4606Y-1.7795
X4.4606Y-1.8583
X4.4606Y-0.9528
X4.4606Y-1.0315
X2.3484Y-2.9961
X2.3484Y-3.0748
X2.3484Y-3.1535
X1.0492Y-2.1693
X1.0492Y-2.248
X1.0492Y-2.3268
X1.8622Y-3.8465
X1.8622Y-3.9252
X3.1614Y-3.0197
X3.1614Y-3.0984
X3.6476Y-2.9961
X3.6476Y-3.0748
X3.6476Y-3.1535
X3.6476Y-0.9291
X3.6476Y-1.0079
X3.6476Y-1.0866
X4.4606Y-3.8465
X4.4606Y-3.9252
X3.6476Y-1.7559
X3.6476Y-1.8346
X3.6476Y-1.9134
X3.1614Y-2.6063
X3.1614Y-2.685
X1.0492Y-1.3425
X1.0492Y-1.4213
X1.0492Y-1.5
X1.0492Y-1.7559
X1.0492Y-1.8346
X1.0492Y-1.9134
X2.3484Y-3.8228
X2.3484Y-3.9016
X2.3484Y-3.9803
X2.3484Y-0.9291
X2.3484Y-1.0079
X2.3484Y-1.0866
X2.3484Y-1.3425
X2.3484Y-1.4213
X2.3484Y-1.5
X2.3484Y-1.7559
X2.3484Y-1.8346
X2.3484Y-1.9134
X3.6476Y-1.3425
X3.6476Y-1.4213
X3.6476Y-1.5
X3.1614Y-4.2598
X3.1614Y-4.3386
X3.1614Y-2.1929
X3.1614Y-2.2717
X3.1614Y-1.3661
X3.1614Y-1.4449
X3.1614Y-3.8465
X3.1614Y-3.9252
X4.4606Y-1.3661
X4.4606Y-1.4449
X1.8622Y-2.6063
X1.8622Y-2.685
X1.8622Y-3.4331
X1.8622Y-3.5118
X3.1614Y-1.7795
X3.1614Y-1.8583
X3.1614Y-0.9528
X3.1614Y-1.0315
X2.3484Y-4.2362
X2.3484Y-4.315
X2.3484Y-4.3937
X4.4606Y-3.4331
X4.4606Y-3.5118
X1.8622Y-3.0197
X1.8622Y-3.0984
X1.8622Y-0.9528
X1.8622Y-1.0315
X1.0492Y-0.9291
X1.0492Y-1.0079
X1.0492Y-1.0866
T3
X1.1713Y-4.215
X1.1713Y-4.315
X1.1713Y-4.415
X2.4705Y-3.8016
X2.4705Y-3.9016
X2.4705Y-4.0016
X2.4705Y-4.215
X2.4705Y-4.315
X2.4705Y-4.415
X2.4705Y-1.3213
X2.4705Y-1.4213
X2.4705Y-1.5213
X3.7697Y-4.215
X3.7697Y-4.315
X3.7697Y-4.415
X3.7697Y-2.9748
X3.7697Y-3.0748
X3.7697Y-3.1748
X3.7697Y-2.5614
X3.7697Y-2.6614
X3.7697Y-2.7614
X3.7697Y-1.7346
X3.7697Y-1.8346
X3.7697Y-1.9346
X3.7697Y-0.9079
X3.7697Y-1.0079
X3.7697Y-1.1079
X3.7697Y-2.148
X3.7697Y-2.248
X3.7697Y-2.348
X3.7697Y-1.3213
X3.7697Y-1.4213
X3.7697Y-1.5213
X1.1713Y-3.3882
X1.1713Y-3.4882
X1.1713Y-3.5882
X1.1713Y-2.9748
X1.1713Y-3.0748
X1.1713Y-3.1748
X1.1713Y-2.5614
X1.1713Y-2.6614
X1.1713Y-2.7614
X1.1713Y-2.148
X1.1713Y-2.248
X1.1713Y-2.348
X1.1713Y-1.7346
X1.1713Y-1.8346
X1.1713Y-1.9346
X1.1713Y-1.3213
X1.1713Y-1.4213
X1.1713Y-1.5213
X2.4705Y-3.3882
X2.4705Y-3.4882
X2.4705Y-3.5882
X2.4705Y-2.5614
X2.4705Y-2.6614
X2.4705Y-2.7614
X1.1713Y-0.9079
X1.1713Y-1.0079
X1.1713Y-1.1079
X2.4705Y-1.7346
X2.4705Y-1.8346
X2.4705Y-1.9346
X3.7697Y-3.3882
X3.7697Y-3.4882
X3.7697Y-3.5882
X2.4705Y-2.9748
X2.4705Y-3.0748
X2.4705Y-3.1748
X3.7697Y-3.8016
X3.7697Y-3.9016
X3.7697Y-4.0016
X2.4705Y-0.9079
X2.4705Y-1.0079
X2.4705Y-1.1079
X1.1713Y-3.8016
X1.1713Y-3.9016
X1.1713Y-4.0016
X2.4705Y-2.148
X2.4705Y-2.248
X2.4705Y-2.348
T0
M30
