M48
; DRILL file {KiCad 5.99.0-unknown-r16857-c6889b00} date 2019-10-20T19:52:56 CEST
; FORMAT={-:-/ absolute / inch / decimal}
; #@! TF.CreationDate,2019-10-20T19:52:56+02:00
; #@! TF.GenerationSoftware,Kicad,Pcbnew,5.99.0-unknown-r16857-c6889b00
FMAT,2
INCH
T1C0.0157
T2C0.0295
T3C0.0394
%
G90
G05
T1
X3.6102Y-1.9764
X3.6102Y-2.3878
X3.6102Y-2.7992
X3.6102Y-3.2106
X3.6102Y-3.622
X3.6102Y-4.0335
X3.6102Y-4.4449
X3.6102Y-4.8563
X3.6102Y-5.2677
X3.6122Y-1.6555
X3.6122Y-2.0669
X3.6122Y-2.4783
X3.6122Y-2.8898
X3.6122Y-3.3012
X3.6122Y-3.7126
X3.6122Y-4.124
X3.6122Y-4.5354
X3.6122Y-4.9469
X3.876Y-1.6535
X3.876Y-2.065
X3.876Y-2.4764
X3.876Y-2.8878
X3.876Y-3.2992
X3.876Y-3.7106
X3.876Y-4.122
X3.876Y-4.5335
X3.876Y-4.9449
X4.0689Y-1.874
X4.0689Y-2.2854
X4.0689Y-2.6969
X4.0689Y-3.1083
X4.0689Y-3.5197
X4.0689Y-3.9311
X4.0689Y-4.3425
X4.0689Y-4.7539
X4.0689Y-5.1654
X4.1004Y-1.6535
X4.1004Y-2.065
X4.1004Y-2.4764
X4.1004Y-2.8878
X4.1004Y-3.2992
X4.1004Y-3.7106
X4.1004Y-4.122
X4.1004Y-4.5335
X4.1004Y-4.9449
X4.1122Y-1.874
X4.1122Y-1.9173
X4.1122Y-2.2854
X4.1122Y-2.3287
X4.1122Y-2.6969
X4.1122Y-2.7402
X4.1122Y-3.1083
X4.1122Y-3.1516
X4.1122Y-3.5197
X4.1122Y-3.563
X4.1122Y-3.9311
X4.1122Y-3.9744
X4.1122Y-4.3425
X4.1122Y-4.3858
X4.1122Y-4.7539
X4.1122Y-4.7972
X4.1122Y-5.1654
X4.1122Y-5.2087
X4.2579Y-1.9843
X4.2579Y-2.3957
X4.2579Y-2.8071
X4.2579Y-3.2185
X4.2579Y-3.6299
X4.2579Y-4.0413
X4.2579Y-4.4528
X4.2579Y-4.8642
X4.2579Y-5.2756
X4.2618Y-1.6535
X4.2618Y-2.065
X4.2618Y-2.4764
X4.2618Y-2.8878
X4.2618Y-3.2992
X4.2618Y-3.7106
X4.2618Y-4.122
X4.2618Y-4.5335
X4.2618Y-4.9449
X4.6949Y-1.7205
X4.6949Y-1.9134
X4.6949Y-2.1319
X4.6949Y-2.3248
X4.6949Y-2.5433
X4.6949Y-2.7362
X4.6949Y-2.9547
X4.6949Y-3.1476
X4.6949Y-3.3661
X4.6949Y-3.5591
X4.6949Y-3.7776
X4.6949Y-3.9705
X4.6949Y-4.189
X4.6949Y-4.3819
X4.6949Y-4.6004
X4.6949Y-4.7933
X4.6949Y-5.0118
X4.6949Y-5.2047
X4.8031Y-1.9764
X4.8031Y-2.3878
X4.8031Y-2.7992
X4.8031Y-3.2106
X4.8031Y-3.622
X4.8031Y-4.0335
X4.8031Y-4.4449
X4.8031Y-4.8563
X4.8031Y-5.2677
X4.8051Y-1.6555
X4.8051Y-2.0669
X4.8051Y-2.4783
X4.8051Y-2.8898
X4.8051Y-3.3012
X4.8051Y-3.7126
X4.8051Y-4.124
X4.8051Y-4.5354
X4.8051Y-4.9469
X5.0689Y-1.6535
X5.0689Y-2.065
X5.0689Y-2.4764
X5.0689Y-2.8878
X5.0689Y-3.2992
X5.0689Y-3.7106
X5.0689Y-4.122
X5.0689Y-4.5335
X5.0689Y-4.9449
X5.2618Y-1.874
X5.2618Y-2.2854
X5.2618Y-2.6969
X5.2618Y-3.1083
X5.2618Y-3.5197
X5.2618Y-3.9311
X5.2618Y-4.3425
X5.2618Y-4.7539
X5.2618Y-5.1654
X5.2933Y-1.6535
X5.2933Y-2.065
X5.2933Y-2.4764
X5.2933Y-2.8878
X5.2933Y-3.2992
X5.2933Y-3.7106
X5.2933Y-4.122
X5.2933Y-4.5335
X5.2933Y-4.9449
X5.3051Y-1.874
X5.3051Y-1.9173
X5.3051Y-2.2854
X5.3051Y-2.3287
X5.3051Y-2.6969
X5.3051Y-2.7402
X5.3051Y-3.1083
X5.3051Y-3.1516
X5.3051Y-3.5197
X5.3051Y-3.563
X5.3051Y-3.9311
X5.3051Y-3.9744
X5.3051Y-4.3425
X5.3051Y-4.3858
X5.3051Y-4.7539
X5.3051Y-4.7972
X5.3051Y-5.1654
X5.3051Y-5.2087
X5.4508Y-1.9843
X5.4508Y-2.3957
X5.4508Y-2.8071
X5.4508Y-3.2185
X5.4508Y-3.6299
X5.4508Y-4.0413
X5.4508Y-4.4528
X5.4508Y-4.8642
X5.4508Y-5.2756
X5.4547Y-1.6535
X5.4547Y-2.065
X5.4547Y-2.4764
X5.4547Y-2.8878
X5.4547Y-3.2992
X5.4547Y-3.7106
X5.4547Y-4.122
X5.4547Y-4.5335
X5.4547Y-4.9449
X5.8878Y-1.7205
X5.8878Y-1.9134
X5.8878Y-2.1319
X5.8878Y-2.3248
X5.8878Y-2.5433
X5.8878Y-2.7362
X5.8878Y-2.9547
X5.8878Y-3.1476
X5.8878Y-3.3661
X5.8878Y-3.5591
X5.8878Y-3.7776
X5.8878Y-3.9705
X5.8878Y-4.189
X5.8878Y-4.3819
X5.8878Y-4.6004
X5.8878Y-4.7933
X5.8878Y-5.0118
X5.8878Y-5.2047
X5.9961Y-1.9764
X5.9961Y-2.3878
X5.9961Y-2.7992
X5.9961Y-3.2106
X5.9961Y-3.622
X5.9961Y-4.0335
X5.9961Y-4.4449
X5.9961Y-4.8563
X5.9961Y-5.2677
X5.998Y-1.6555
X5.998Y-2.0669
X5.998Y-2.4783
X5.998Y-2.8898
X5.998Y-3.3012
X5.998Y-3.7126
X5.998Y-4.124
X5.998Y-4.5354
X5.998Y-4.9469
X6.2618Y-1.6535
X6.2618Y-2.065
X6.2618Y-2.4764
X6.2618Y-2.8878
X6.2618Y-3.2992
X6.2618Y-3.7106
X6.2618Y-4.122
X6.2618Y-4.5335
X6.2618Y-4.9449
X6.4547Y-1.874
X6.4547Y-2.2854
X6.4547Y-2.6969
X6.4547Y-3.1083
X6.4547Y-3.5197
X6.4547Y-3.9311
X6.4547Y-4.3425
X6.4547Y-4.7539
X6.4547Y-5.1654
X6.4862Y-1.6535
X6.4862Y-2.065
X6.4862Y-2.4764
X6.4862Y-2.8878
X6.4862Y-3.2992
X6.4862Y-3.7106
X6.4862Y-4.122
X6.4862Y-4.5335
X6.4862Y-4.9449
X6.498Y-1.874
X6.498Y-1.9173
X6.498Y-2.2854
X6.498Y-2.3287
X6.498Y-2.6969
X6.498Y-2.7402
X6.498Y-3.1083
X6.498Y-3.1516
X6.498Y-3.5197
X6.498Y-3.563
X6.498Y-3.9311
X6.498Y-3.9744
X6.498Y-4.3425
X6.498Y-4.3858
X6.498Y-4.7539
X6.498Y-4.7972
X6.498Y-5.1654
X6.498Y-5.2087
X6.6437Y-1.9843
X6.6437Y-2.3957
X6.6437Y-2.8071
X6.6437Y-3.2185
X6.6437Y-3.6299
X6.6437Y-4.0413
X6.6437Y-4.4528
X6.6437Y-4.8642
X6.6437Y-5.2756
X6.6476Y-1.6535
X6.6476Y-2.065
X6.6476Y-2.4764
X6.6476Y-2.8878
X6.6476Y-3.2992
X6.6476Y-3.7106
X6.6476Y-4.122
X6.6476Y-4.5335
X6.6476Y-4.9449
X7.0807Y-1.7205
X7.0807Y-1.9134
X7.0807Y-2.1319
X7.0807Y-2.3248
X7.0807Y-2.5433
X7.0807Y-2.7362
X7.0807Y-2.9547
X7.0807Y-3.1476
X7.0807Y-3.3661
X7.0807Y-3.5591
X7.0807Y-3.7776
X7.0807Y-3.9705
X7.0807Y-4.189
X7.0807Y-4.3819
X7.0807Y-4.6004
X7.0807Y-4.7933
X7.0807Y-5.0118
X7.0807Y-5.2047
T2
X3.7972Y-1.7362
X3.7972Y-1.815
X3.7972Y-1.8937
X6.1831Y-1.7362
X6.1831Y-1.815
X6.1831Y-1.8937
X6.1831Y-2.5591
X6.1831Y-2.6378
X6.1831Y-2.7165
X6.1831Y-3.3819
X6.1831Y-3.4606
X6.1831Y-3.5394
X4.4882Y-4.6398
X4.4882Y-4.7185
X6.1831Y-4.2047
X6.1831Y-4.2835
X6.1831Y-4.3622
X6.1831Y-5.0276
X6.1831Y-5.1063
X6.1831Y-5.185
X5.6811Y-3.4055
X5.6811Y-3.4843
X5.6811Y-4.2283
X5.6811Y-4.3071
X3.7972Y-2.1476
X3.7972Y-2.2264
X3.7972Y-2.3051
X3.7972Y-2.9705
X3.7972Y-3.0492
X3.7972Y-3.128
X3.7972Y-3.7933
X3.7972Y-3.872
X3.7972Y-3.9508
X3.7972Y-4.6161
X3.7972Y-4.6949
X3.7972Y-4.7736
X6.874Y-5.0512
X6.874Y-5.1299
X5.6811Y-1.7598
X5.6811Y-1.8386
X6.874Y-3.8169
X6.874Y-3.8957
X4.9902Y-2.1476
X4.9902Y-2.2264
X4.9902Y-2.3051
X4.4882Y-5.0512
X4.4882Y-5.1299
X4.9902Y-2.9705
X4.9902Y-3.0492
X4.9902Y-3.128
X4.9902Y-3.7933
X4.9902Y-3.872
X4.9902Y-3.9508
X4.9902Y-4.6161
X4.9902Y-4.6949
X4.9902Y-4.7736
X4.4882Y-3.4055
X4.4882Y-3.4843
X5.6811Y-4.6398
X5.6811Y-4.7185
X4.4882Y-2.1713
X4.4882Y-2.25
X6.874Y-3.4055
X6.874Y-3.4843
X5.6811Y-2.1713
X5.6811Y-2.25
X6.1831Y-2.1476
X6.1831Y-2.2264
X6.1831Y-2.3051
X6.874Y-2.1713
X6.874Y-2.25
X6.1831Y-2.9705
X6.1831Y-3.0492
X6.1831Y-3.128
X4.4882Y-2.5827
X4.4882Y-2.6614
X6.1831Y-3.7933
X6.1831Y-3.872
X6.1831Y-3.9508
X5.6811Y-2.5827
X5.6811Y-2.6614
X6.1831Y-4.6161
X6.1831Y-4.6949
X6.1831Y-4.7736
X6.874Y-2.5827
X6.874Y-2.6614
X4.4882Y-2.9941
X4.4882Y-3.0728
X5.6811Y-2.9941
X5.6811Y-3.0728
X6.874Y-4.2283
X6.874Y-4.3071
X3.7972Y-2.5591
X3.7972Y-2.6378
X3.7972Y-2.7165
X4.4882Y-3.8169
X4.4882Y-3.8957
X3.7972Y-3.3819
X3.7972Y-3.4606
X3.7972Y-3.5394
X3.7972Y-4.2047
X3.7972Y-4.2835
X3.7972Y-4.3622
X3.7972Y-5.0276
X3.7972Y-5.1063
X3.7972Y-5.185
X4.4882Y-4.2283
X4.4882Y-4.3071
X4.4882Y-1.7598
X4.4882Y-1.8386
X6.874Y-2.9941
X6.874Y-3.0728
X5.6811Y-5.0512
X5.6811Y-5.1299
X5.6811Y-3.8169
X5.6811Y-3.8957
X4.9902Y-1.7362
X4.9902Y-1.815
X4.9902Y-1.8937
X4.9902Y-2.5591
X4.9902Y-2.6378
X4.9902Y-2.7165
X4.9902Y-3.3819
X4.9902Y-3.4606
X4.9902Y-3.5394
X4.9902Y-4.2047
X4.9902Y-4.2835
X4.9902Y-4.3622
X4.9902Y-5.0276
X4.9902Y-5.1063
X4.9902Y-5.185
X6.874Y-1.7598
X6.874Y-1.8386
X6.874Y-4.6398
X6.874Y-4.7185
T3
X4.9902Y-4.5949
X4.9902Y-4.6949
X4.9902Y-4.7949
X3.7972Y-3.772
X3.7972Y-3.872
X3.7972Y-3.972
X6.1831Y-2.5378
X6.1831Y-2.6378
X6.1831Y-2.7378
X3.7972Y-4.5949
X3.7972Y-4.6949
X3.7972Y-4.7949
X6.1831Y-3.3606
X6.1831Y-3.4606
X6.1831Y-3.5606
X4.9902Y-2.5378
X4.9902Y-2.6378
X4.9902Y-2.7378
X6.1831Y-4.1835
X6.1831Y-4.2835
X6.1831Y-4.3835
X4.9902Y-3.3606
X4.9902Y-3.4606
X4.9902Y-3.5606
X3.7972Y-2.5378
X3.7972Y-2.6378
X3.7972Y-2.7378
X3.7972Y-1.715
X3.7972Y-1.815
X3.7972Y-1.915
X6.1831Y-5.0063
X6.1831Y-5.1063
X6.1831Y-5.2063
X4.9902Y-4.1835
X4.9902Y-4.2835
X4.9902Y-4.3835
X3.7972Y-3.3606
X3.7972Y-3.4606
X3.7972Y-3.5606
X6.1831Y-2.1264
X6.1831Y-2.2264
X6.1831Y-2.3264
X4.9902Y-5.0063
X4.9902Y-5.1063
X4.9902Y-5.2063
X3.7972Y-4.1835
X3.7972Y-4.2835
X3.7972Y-4.3835
X4.9902Y-1.715
X4.9902Y-1.815
X4.9902Y-1.915
X6.1831Y-2.9492
X6.1831Y-3.0492
X6.1831Y-3.1492
X4.9902Y-2.1264
X4.9902Y-2.2264
X4.9902Y-2.3264
X3.7972Y-5.0063
X3.7972Y-5.1063
X3.7972Y-5.2063
X6.1831Y-3.772
X6.1831Y-3.872
X6.1831Y-3.972
X4.9902Y-2.9492
X4.9902Y-3.0492
X4.9902Y-3.1492
X3.7972Y-2.1264
X3.7972Y-2.2264
X3.7972Y-2.3264
X6.1831Y-4.5949
X6.1831Y-4.6949
X6.1831Y-4.7949
X4.9902Y-3.772
X4.9902Y-3.872
X4.9902Y-3.972
X3.7972Y-2.9492
X3.7972Y-3.0492
X3.7972Y-3.1492
X6.1831Y-1.715
X6.1831Y-1.815
X6.1831Y-1.915
T0
M30
