G04 #@! TF.GenerationSoftware,KiCad,Pcbnew,5.99.0-unknown-r16857-c6889b00*
G04 #@! TF.CreationDate,2019-10-20T19:52:51+02:00*
G04 #@! TF.ProjectId,pulsr,70756c73-722e-46b6-9963-61645f706362,rev?*
G04 #@! TF.SameCoordinates,Original*
G04 #@! TF.FileFunction,Profile,NP*
%FSLAX46Y46*%
G04 Gerber Fmt 4.6, Leading zero omitted, Abs format (unit mm)*
G04 Created by KiCad (PCBNEW 5.99.0-unknown-r16857-c6889b00) date 2019-10-20 19:52:51*
%MOMM*%
%LPD*%
G04 APERTURE LIST*
%ADD10C,0.050000*%
G04 APERTURE END LIST*
D10*
X180850000Y-134900000D02*
X180850000Y-124450000D01*
X150550000Y-134900000D02*
X150550000Y-124450000D01*
X120250000Y-134900000D02*
X120250000Y-124450000D01*
X180850000Y-124450000D02*
X180850000Y-114000000D01*
X150550000Y-124450000D02*
X150550000Y-114000000D01*
X120250000Y-124450000D02*
X120250000Y-114000000D01*
X180850000Y-114000000D02*
X180850000Y-103550000D01*
X150550000Y-114000000D02*
X150550000Y-103550000D01*
X120250000Y-114000000D02*
X120250000Y-103550000D01*
X180850000Y-103550000D02*
X180850000Y-93100000D01*
X150550000Y-103550000D02*
X150550000Y-93100000D01*
X120250000Y-103550000D02*
X120250000Y-93100000D01*
X180850000Y-93100000D02*
X180850000Y-82650000D01*
X150550000Y-93100000D02*
X150550000Y-82650000D01*
X120250000Y-93100000D02*
X120250000Y-82650000D01*
X180850000Y-82650000D02*
X180850000Y-72200000D01*
X150550000Y-82650000D02*
X150550000Y-72200000D01*
X120250000Y-82650000D02*
X120250000Y-72200000D01*
X180850000Y-72200000D02*
X180850000Y-61750000D01*
X150550000Y-72200000D02*
X150550000Y-61750000D01*
X120250000Y-72200000D02*
X120250000Y-61750000D01*
X180850000Y-61750000D02*
X180850000Y-51300000D01*
X150550000Y-61750000D02*
X150550000Y-51300000D01*
X120250000Y-61750000D02*
X120250000Y-51300000D01*
X180850000Y-51300000D02*
X180850000Y-40850000D01*
X150550000Y-51300000D02*
X150550000Y-40850000D01*
X150550000Y-124450000D02*
X150550000Y-134900000D01*
X120250000Y-124450000D02*
X120250000Y-134900000D01*
X89950000Y-124450000D02*
X89950000Y-134900000D01*
X150550000Y-114000000D02*
X150550000Y-124450000D01*
X120250000Y-114000000D02*
X120250000Y-124450000D01*
X89950000Y-114000000D02*
X89950000Y-124450000D01*
X150550000Y-103550000D02*
X150550000Y-114000000D01*
X120250000Y-103550000D02*
X120250000Y-114000000D01*
X89950000Y-103550000D02*
X89950000Y-114000000D01*
X150550000Y-93100000D02*
X150550000Y-103550000D01*
X120250000Y-93100000D02*
X120250000Y-103550000D01*
X89950000Y-93100000D02*
X89950000Y-103550000D01*
X150550000Y-82650000D02*
X150550000Y-93100000D01*
X120250000Y-82650000D02*
X120250000Y-93100000D01*
X89950000Y-82650000D02*
X89950000Y-93100000D01*
X150550000Y-72200000D02*
X150550000Y-82650000D01*
X120250000Y-72200000D02*
X120250000Y-82650000D01*
X89950000Y-72200000D02*
X89950000Y-82650000D01*
X150550000Y-61750000D02*
X150550000Y-72200000D01*
X120250000Y-61750000D02*
X120250000Y-72200000D01*
X89950000Y-61750000D02*
X89950000Y-72200000D01*
X150550000Y-51300000D02*
X150550000Y-61750000D01*
X120250000Y-51300000D02*
X120250000Y-61750000D01*
X89950000Y-51300000D02*
X89950000Y-61750000D01*
X150550000Y-40850000D02*
X150550000Y-51300000D01*
X120250000Y-40850000D02*
X120250000Y-51300000D01*
X150550000Y-134900000D02*
X180850000Y-134900000D01*
X120250000Y-134900000D02*
X150550000Y-134900000D01*
X89950000Y-134900000D02*
X120250000Y-134900000D01*
X150550000Y-124450000D02*
X180850000Y-124450000D01*
X120250000Y-124450000D02*
X150550000Y-124450000D01*
X89950000Y-124450000D02*
X120250000Y-124450000D01*
X150550000Y-114000000D02*
X180850000Y-114000000D01*
X120250000Y-114000000D02*
X150550000Y-114000000D01*
X89950000Y-114000000D02*
X120250000Y-114000000D01*
X150550000Y-103550000D02*
X180850000Y-103550000D01*
X120250000Y-103550000D02*
X150550000Y-103550000D01*
X89950000Y-103550000D02*
X120250000Y-103550000D01*
X150550000Y-93100000D02*
X180850000Y-93100000D01*
X120250000Y-93100000D02*
X150550000Y-93100000D01*
X89950000Y-93100000D02*
X120250000Y-93100000D01*
X150550000Y-82650000D02*
X180850000Y-82650000D01*
X120250000Y-82650000D02*
X150550000Y-82650000D01*
X89950000Y-82650000D02*
X120250000Y-82650000D01*
X150550000Y-72200000D02*
X180850000Y-72200000D01*
X120250000Y-72200000D02*
X150550000Y-72200000D01*
X89950000Y-72200000D02*
X120250000Y-72200000D01*
X150550000Y-61750000D02*
X180850000Y-61750000D01*
X120250000Y-61750000D02*
X150550000Y-61750000D01*
X89950000Y-61750000D02*
X120250000Y-61750000D01*
X150550000Y-51300000D02*
X180850000Y-51300000D01*
X120250000Y-51300000D02*
X150550000Y-51300000D01*
X180850000Y-124450000D02*
X150550000Y-124450000D01*
X150550000Y-124450000D02*
X120250000Y-124450000D01*
X120250000Y-124450000D02*
X89950000Y-124450000D01*
X180850000Y-114000000D02*
X150550000Y-114000000D01*
X150550000Y-114000000D02*
X120250000Y-114000000D01*
X120250000Y-114000000D02*
X89950000Y-114000000D01*
X180850000Y-103550000D02*
X150550000Y-103550000D01*
X150550000Y-103550000D02*
X120250000Y-103550000D01*
X120250000Y-103550000D02*
X89950000Y-103550000D01*
X180850000Y-93100000D02*
X150550000Y-93100000D01*
X150550000Y-93100000D02*
X120250000Y-93100000D01*
X120250000Y-93100000D02*
X89950000Y-93100000D01*
X180850000Y-82650000D02*
X150550000Y-82650000D01*
X150550000Y-82650000D02*
X120250000Y-82650000D01*
X120250000Y-82650000D02*
X89950000Y-82650000D01*
X180850000Y-72200000D02*
X150550000Y-72200000D01*
X150550000Y-72200000D02*
X120250000Y-72200000D01*
X120250000Y-72200000D02*
X89950000Y-72200000D01*
X180850000Y-61750000D02*
X150550000Y-61750000D01*
X150550000Y-61750000D02*
X120250000Y-61750000D01*
X120250000Y-61750000D02*
X89950000Y-61750000D01*
X180850000Y-51300000D02*
X150550000Y-51300000D01*
X150550000Y-51300000D02*
X120250000Y-51300000D01*
X120250000Y-51300000D02*
X89950000Y-51300000D01*
X180850000Y-40850000D02*
X150550000Y-40850000D01*
X150550000Y-40850000D02*
X120250000Y-40850000D01*
X120250000Y-51300000D02*
X120250000Y-40850000D01*
X89950000Y-51300000D02*
X120250000Y-51300000D01*
X120250000Y-40850000D02*
X89950000Y-40850000D01*
X89950000Y-40850000D02*
X89950000Y-51300000D01*
M02*
