G04 #@! TF.GenerationSoftware,KiCad,Pcbnew,5.99.0-unknown-r16857-c6889b00*
G04 #@! TF.CreationDate,2019-09-24T09:09:53+02:00*
G04 #@! TF.ProjectId,solenoid-board,736f6c65-6e6f-4696-942d-626f6172642e,rev?*
G04 #@! TF.SameCoordinates,Original*
G04 #@! TF.FileFunction,Paste,Top*
G04 #@! TF.FilePolarity,Positive*
%FSLAX46Y46*%
G04 Gerber Fmt 4.6, Leading zero omitted, Abs format (unit mm)*
G04 Created by KiCad (PCBNEW 5.99.0-unknown-r16857-c6889b00) date 2019-09-24 09:09:53*
%MOMM*%
%LPD*%
G04 APERTURE LIST*
%ADD10C,0.100000*%
%ADD11C,0.950000*%
%ADD12C,1.600000*%
%ADD13R,1.100000X1.100000*%
%ADD14R,0.800000X1.900000*%
%ADD15C,1.425000*%
G04 APERTURE END LIST*
D10*
G36*
X108303387Y-107943079D02*
G01*
X108380438Y-107994562D01*
X108431921Y-108071613D01*
X108450000Y-108162500D01*
X108450000Y-108637500D01*
X108431921Y-108728387D01*
X108380438Y-108805438D01*
X108303387Y-108856921D01*
X108212500Y-108875000D01*
X107637500Y-108875000D01*
X107546613Y-108856921D01*
X107469562Y-108805438D01*
X107418079Y-108728387D01*
X107400000Y-108637500D01*
X107400000Y-108162500D01*
X107418079Y-108071613D01*
X107469562Y-107994562D01*
X107546613Y-107943079D01*
X107637500Y-107925000D01*
X108212500Y-107925000D01*
X108303387Y-107943079D01*
X108303387Y-107943079D01*
G37*
D11*
X107925000Y-108400000D03*
D10*
G36*
X110053387Y-107943079D02*
G01*
X110130438Y-107994562D01*
X110181921Y-108071613D01*
X110200000Y-108162500D01*
X110200000Y-108637500D01*
X110181921Y-108728387D01*
X110130438Y-108805438D01*
X110053387Y-108856921D01*
X109962500Y-108875000D01*
X109387500Y-108875000D01*
X109296613Y-108856921D01*
X109219562Y-108805438D01*
X109168079Y-108728387D01*
X109150000Y-108637500D01*
X109150000Y-108162500D01*
X109168079Y-108071613D01*
X109219562Y-107994562D01*
X109296613Y-107943079D01*
X109387500Y-107925000D01*
X109962500Y-107925000D01*
X110053387Y-107943079D01*
X110053387Y-107943079D01*
G37*
D11*
X109675000Y-108400000D03*
D10*
G36*
X115495671Y-107569030D02*
G01*
X115576777Y-107623223D01*
X115630970Y-107704329D01*
X115650000Y-107800000D01*
X115650000Y-110800000D01*
X115630970Y-110895671D01*
X115576777Y-110976777D01*
X115495671Y-111030970D01*
X115400000Y-111050000D01*
X114300000Y-111050000D01*
X114204329Y-111030970D01*
X114123223Y-110976777D01*
X114069030Y-110895671D01*
X114050000Y-110800000D01*
X114050000Y-107800000D01*
X114069030Y-107704329D01*
X114123223Y-107623223D01*
X114204329Y-107569030D01*
X114300000Y-107550000D01*
X115400000Y-107550000D01*
X115495671Y-107569030D01*
X115495671Y-107569030D01*
G37*
D12*
X114850000Y-109300000D03*
D10*
G36*
X115495671Y-101969030D02*
G01*
X115576777Y-102023223D01*
X115630970Y-102104329D01*
X115650000Y-102200000D01*
X115650000Y-105200000D01*
X115630970Y-105295671D01*
X115576777Y-105376777D01*
X115495671Y-105430970D01*
X115400000Y-105450000D01*
X114300000Y-105450000D01*
X114204329Y-105430970D01*
X114123223Y-105376777D01*
X114069030Y-105295671D01*
X114050000Y-105200000D01*
X114050000Y-102200000D01*
X114069030Y-102104329D01*
X114123223Y-102023223D01*
X114204329Y-101969030D01*
X114300000Y-101950000D01*
X115400000Y-101950000D01*
X115495671Y-101969030D01*
X115495671Y-101969030D01*
G37*
D12*
X114850000Y-103700000D03*
D13*
X119650000Y-107600000D03*
X119650000Y-104800000D03*
D14*
X107850000Y-106400000D03*
X109750000Y-106400000D03*
X108800000Y-103400000D03*
D10*
G36*
X111245671Y-109544030D02*
G01*
X111326777Y-109598223D01*
X111380970Y-109679329D01*
X111400000Y-109775000D01*
X111400000Y-111025000D01*
X111380970Y-111120671D01*
X111326777Y-111201777D01*
X111245671Y-111255970D01*
X111150000Y-111275000D01*
X110225000Y-111275000D01*
X110129329Y-111255970D01*
X110048223Y-111201777D01*
X109994030Y-111120671D01*
X109975000Y-111025000D01*
X109975000Y-109775000D01*
X109994030Y-109679329D01*
X110048223Y-109598223D01*
X110129329Y-109544030D01*
X110225000Y-109525000D01*
X111150000Y-109525000D01*
X111245671Y-109544030D01*
X111245671Y-109544030D01*
G37*
D15*
X110687500Y-110400000D03*
D10*
G36*
X108270671Y-109544030D02*
G01*
X108351777Y-109598223D01*
X108405970Y-109679329D01*
X108425000Y-109775000D01*
X108425000Y-111025000D01*
X108405970Y-111120671D01*
X108351777Y-111201777D01*
X108270671Y-111255970D01*
X108175000Y-111275000D01*
X107250000Y-111275000D01*
X107154329Y-111255970D01*
X107073223Y-111201777D01*
X107019030Y-111120671D01*
X107000000Y-111025000D01*
X107000000Y-109775000D01*
X107019030Y-109679329D01*
X107073223Y-109598223D01*
X107154329Y-109544030D01*
X107250000Y-109525000D01*
X108175000Y-109525000D01*
X108270671Y-109544030D01*
X108270671Y-109544030D01*
G37*
D15*
X107712500Y-110400000D03*
M02*
