G04 #@! TF.GenerationSoftware,KiCad,Pcbnew,5.99.0-unknown-r16857-c6889b00*
G04 #@! TF.CreationDate,2019-09-24T09:09:54+02:00*
G04 #@! TF.ProjectId,solenoid-board,736f6c65-6e6f-4696-942d-626f6172642e,rev?*
G04 #@! TF.SameCoordinates,Original*
G04 #@! TF.FileFunction,Soldermask,Bot*
G04 #@! TF.FilePolarity,Negative*
%FSLAX46Y46*%
G04 Gerber Fmt 4.6, Leading zero omitted, Abs format (unit mm)*
G04 Created by KiCad (PCBNEW 5.99.0-unknown-r16857-c6889b00) date 2019-09-24 09:09:54*
%MOMM*%
%LPD*%
G04 APERTURE LIST*
%ADD10C,0.300000*%
%ADD11C,0.100000*%
G04 APERTURE END LIST*
D10*
X117790000Y-105590000D02*
G75*
G03X117790000Y-105590000I-60000J0D01*
G01*
X116820000Y-105580000D02*
G75*
G03X116820000Y-105580000I-60000J0D01*
G01*
D11*
G36*
X112557966Y-103131455D02*
G01*
X112778592Y-103148953D01*
X112993472Y-103178987D01*
X113206959Y-103223124D01*
X113423406Y-103282930D01*
X113647165Y-103359974D01*
X113882590Y-103455821D01*
X114134033Y-103572039D01*
X114397223Y-103717599D01*
X114609345Y-103863903D01*
X114784777Y-104003761D01*
X114937898Y-104129984D01*
X115083086Y-104235384D01*
X115234719Y-104312770D01*
X115407176Y-104354955D01*
X115614836Y-104354748D01*
X115918296Y-104317333D01*
X116193514Y-104299785D01*
X116441691Y-104303021D01*
X116664027Y-104327961D01*
X116861723Y-104375523D01*
X117035980Y-104446624D01*
X117187997Y-104542183D01*
X117318976Y-104663119D01*
X117430116Y-104810349D01*
X117240000Y-105120000D01*
X116747381Y-104749283D01*
X116420000Y-104720000D01*
X116080000Y-104980000D01*
X115940000Y-105390000D01*
X115980000Y-105790000D01*
X116290000Y-106140000D01*
X116630000Y-106220000D01*
X116850000Y-106160000D01*
X117040000Y-106040000D01*
X117260000Y-105860000D01*
X117430000Y-106020000D01*
X117740672Y-106168136D01*
X117726178Y-106349875D01*
X117687981Y-106518887D01*
X117627277Y-106675790D01*
X117545261Y-106821204D01*
X117443128Y-106955746D01*
X117322075Y-107080034D01*
X117183296Y-107194687D01*
X117027987Y-107300323D01*
X116857343Y-107397560D01*
X116672560Y-107487016D01*
X116474833Y-107569310D01*
X116265357Y-107645059D01*
X116045329Y-107714882D01*
X115815943Y-107779398D01*
X115578395Y-107839224D01*
X115333880Y-107894979D01*
X115083594Y-107947280D01*
X114828732Y-107996746D01*
X114570489Y-108043996D01*
X114310062Y-108089647D01*
X114048645Y-108134318D01*
X113787433Y-108178626D01*
X113527624Y-108223191D01*
X113270410Y-108268630D01*
X113016989Y-108315562D01*
X112768556Y-108364605D01*
X112526305Y-108416376D01*
X112716694Y-109611594D01*
X112910631Y-109638985D01*
X113111173Y-109684196D01*
X113303739Y-109753073D01*
X113473748Y-109851460D01*
X113606617Y-109985203D01*
X113687766Y-110160146D01*
X113702613Y-110382135D01*
X113533130Y-110198359D01*
X113319848Y-110096756D01*
X113076318Y-110034680D01*
X113086507Y-110250042D01*
X113080168Y-110465245D01*
X112925373Y-110246217D01*
X112738339Y-110096721D01*
X112526307Y-110024103D01*
X112323448Y-110017267D01*
X112192986Y-109975711D01*
X112223010Y-109894807D01*
X112283032Y-109812559D01*
X112276911Y-109683577D01*
X112255218Y-109492894D01*
X112212959Y-109265192D01*
X112145138Y-109025149D01*
X112046760Y-108797446D01*
X111912832Y-108606763D01*
X111859897Y-108604511D01*
X111725577Y-108613423D01*
X111546598Y-108657005D01*
X111359686Y-108758762D01*
X111201567Y-108942197D01*
X111108968Y-109230816D01*
X111086822Y-109648284D01*
X111138056Y-109889244D01*
X111224987Y-110007246D01*
X111309934Y-110055834D01*
X111499069Y-110124078D01*
X111718090Y-110182492D01*
X111945373Y-110245803D01*
X112159293Y-110328741D01*
X112338226Y-110446035D01*
X112460549Y-110612413D01*
X112254698Y-110568560D01*
X112047013Y-110539224D01*
X111837772Y-110521041D01*
X111627249Y-110510652D01*
X111677434Y-110700414D01*
X111711444Y-110893356D01*
X111569545Y-110813396D01*
X111377153Y-110707293D01*
X111151046Y-110609123D01*
X110908003Y-110552961D01*
X110686069Y-110551610D01*
X110545273Y-110507200D01*
X110621492Y-110403142D01*
X110738767Y-110172184D01*
X110744840Y-109965538D01*
X110716830Y-109756541D01*
X110648862Y-109542843D01*
X110535060Y-109322094D01*
X110369547Y-109091943D01*
X110146448Y-108850040D01*
X110002790Y-108721281D01*
X109851067Y-108601947D01*
X109694764Y-108485713D01*
X109537362Y-108366252D01*
X109382345Y-108237239D01*
X109233196Y-108092348D01*
X109093398Y-107925254D01*
X108966434Y-107729630D01*
X108855787Y-107499151D01*
X108764941Y-107227491D01*
X108697378Y-106908324D01*
X108651907Y-106570803D01*
X108626479Y-106258250D01*
X108620649Y-105968950D01*
X108633970Y-105701187D01*
X108665996Y-105453245D01*
X108716281Y-105223408D01*
X108784380Y-105009960D01*
X108869846Y-104811185D01*
X108972233Y-104625369D01*
X109091096Y-104450794D01*
X109225989Y-104285744D01*
X109376465Y-104128505D01*
X109548181Y-103979739D01*
X109743869Y-103841832D01*
X109959269Y-103715090D01*
X110190122Y-103599823D01*
X110432168Y-103496339D01*
X110681147Y-103404947D01*
X110932799Y-103325956D01*
X111182865Y-103259673D01*
X111427084Y-103206407D01*
X111661197Y-103166467D01*
X111880944Y-103140161D01*
X112082065Y-103127798D01*
X112327241Y-103124926D01*
X112557966Y-103131455D01*
X112557966Y-103131455D01*
G37*
G36*
X116408069Y-106303068D02*
G01*
X116229413Y-106218100D01*
X116077391Y-106086266D01*
X115959193Y-105915522D01*
X115882009Y-105713822D01*
X115853030Y-105489121D01*
X115853214Y-105487414D01*
X116001779Y-105487414D01*
X116034632Y-105707939D01*
X116121436Y-105899272D01*
X116252252Y-106050032D01*
X116417142Y-106148834D01*
X116606169Y-106184298D01*
X116611640Y-106184298D01*
X116790520Y-106149886D01*
X116950166Y-106056602D01*
X117079806Y-105913213D01*
X117168669Y-105728485D01*
X117238939Y-105676848D01*
X117239623Y-105676848D01*
X117310066Y-105726946D01*
X117401954Y-105908630D01*
X117533272Y-106048782D01*
X117693313Y-106139021D01*
X117871371Y-106170963D01*
X117876500Y-106170963D01*
X118066255Y-106132935D01*
X118230503Y-106031207D01*
X118359373Y-105877540D01*
X118442991Y-105683693D01*
X118471485Y-105461425D01*
X118438631Y-105240900D01*
X118351828Y-105049567D01*
X118221011Y-104898807D01*
X118056121Y-104800004D01*
X117867095Y-104764540D01*
X117861624Y-104764540D01*
X117682671Y-104798892D01*
X117523032Y-104892021D01*
X117393432Y-105035192D01*
X117304591Y-105219670D01*
X117233633Y-105271302D01*
X117163194Y-105221208D01*
X117071335Y-105039776D01*
X116940076Y-104899843D01*
X116780093Y-104809759D01*
X116602062Y-104777875D01*
X116596764Y-104777875D01*
X116407009Y-104815837D01*
X116242760Y-104917557D01*
X116113890Y-105071249D01*
X116030272Y-105265129D01*
X116001779Y-105487414D01*
X115853214Y-105487414D01*
X115877517Y-105262577D01*
X115951182Y-105058294D01*
X116066896Y-104884539D01*
X116217532Y-104749580D01*
X116395960Y-104661687D01*
X116595053Y-104629127D01*
X116602062Y-104628957D01*
X116788715Y-104655971D01*
X116960957Y-104733123D01*
X117111176Y-104854578D01*
X117231757Y-105014501D01*
X117350148Y-104850813D01*
X117499413Y-104725705D01*
X117671887Y-104645319D01*
X117859909Y-104615792D01*
X117867092Y-104615622D01*
X118065250Y-104645710D01*
X118243922Y-104730661D01*
X118395932Y-104862506D01*
X118514104Y-105033276D01*
X118591261Y-105235001D01*
X118620226Y-105459714D01*
X118595740Y-105686186D01*
X118522070Y-105890427D01*
X118406341Y-106064168D01*
X118255676Y-106199141D01*
X118077199Y-106287077D01*
X117878035Y-106319708D01*
X117871537Y-106319878D01*
X117684688Y-106292832D01*
X117512345Y-106215585D01*
X117362090Y-106093970D01*
X117241504Y-105933822D01*
X117123110Y-106097735D01*
X116973846Y-106223002D01*
X116801372Y-106303485D01*
X116613351Y-106333043D01*
X116606169Y-106333216D01*
X116408069Y-106303068D01*
X116408069Y-106303068D01*
G37*
G36*
X105188360Y-108153835D02*
G01*
X105269397Y-108180166D01*
X105356663Y-108207848D01*
X105359655Y-108209493D01*
X105368488Y-108212363D01*
X105440466Y-108253919D01*
X105511499Y-108292970D01*
X105518986Y-108299253D01*
X105532511Y-108307061D01*
X105590259Y-108359057D01*
X105646857Y-108406549D01*
X105656962Y-108419118D01*
X105673261Y-108433793D01*
X105715454Y-108491867D01*
X105757579Y-108544260D01*
X105767994Y-108564182D01*
X105784586Y-108587019D01*
X105811297Y-108647012D01*
X105839439Y-108700843D01*
X105847582Y-108728510D01*
X105861621Y-108760042D01*
X105873992Y-108818241D01*
X105889328Y-108870349D01*
X105892518Y-108905401D01*
X105900999Y-108945301D01*
X105900999Y-108998592D01*
X105905343Y-109046324D01*
X105900999Y-109087653D01*
X105900999Y-109134699D01*
X105891217Y-109180721D01*
X105886873Y-109222047D01*
X105872702Y-109267827D01*
X105861621Y-109319958D01*
X105845028Y-109357226D01*
X105834622Y-109390843D01*
X105808789Y-109438620D01*
X105784586Y-109492981D01*
X105764298Y-109520905D01*
X105750580Y-109546276D01*
X105711859Y-109593082D01*
X105673261Y-109646207D01*
X105652284Y-109665095D01*
X105637952Y-109682419D01*
X105585845Y-109724917D01*
X105532511Y-109772939D01*
X105513524Y-109783901D01*
X105501025Y-109794095D01*
X105435780Y-109828786D01*
X105368488Y-109867637D01*
X105353636Y-109872463D01*
X105345003Y-109877053D01*
X105267430Y-109900473D01*
X105188360Y-109926165D01*
X105179114Y-109927137D01*
X105175851Y-109928122D01*
X105084710Y-109937059D01*
X105047211Y-109941000D01*
X104952789Y-109941000D01*
X104811640Y-109926165D01*
X104730603Y-109899834D01*
X104643337Y-109872152D01*
X104640345Y-109870507D01*
X104631512Y-109867637D01*
X104559534Y-109826081D01*
X104488501Y-109787030D01*
X104481014Y-109780747D01*
X104467489Y-109772939D01*
X104409741Y-109720943D01*
X104353143Y-109673451D01*
X104343038Y-109660882D01*
X104326739Y-109646207D01*
X104284546Y-109588133D01*
X104242421Y-109535740D01*
X104232006Y-109515818D01*
X104215414Y-109492981D01*
X104188703Y-109432988D01*
X104160561Y-109379157D01*
X104152418Y-109351490D01*
X104138379Y-109319958D01*
X104126008Y-109261759D01*
X104110672Y-109209651D01*
X104107482Y-109174599D01*
X104099001Y-109134699D01*
X104099001Y-109081408D01*
X104094657Y-109033676D01*
X104099001Y-108992347D01*
X104099001Y-108945301D01*
X104108783Y-108899279D01*
X104113127Y-108857953D01*
X104127298Y-108812173D01*
X104138379Y-108760042D01*
X104154972Y-108722774D01*
X104165378Y-108689157D01*
X104191211Y-108641380D01*
X104215414Y-108587019D01*
X104235702Y-108559095D01*
X104249420Y-108533724D01*
X104288141Y-108486918D01*
X104326739Y-108433793D01*
X104347716Y-108414905D01*
X104362048Y-108397581D01*
X104414155Y-108355083D01*
X104467489Y-108307061D01*
X104486476Y-108296099D01*
X104498975Y-108285905D01*
X104564220Y-108251214D01*
X104631512Y-108212363D01*
X104646364Y-108207537D01*
X104654997Y-108202947D01*
X104732570Y-108179527D01*
X104811640Y-108153835D01*
X104820886Y-108152863D01*
X104824149Y-108151878D01*
X104915290Y-108142941D01*
X104952789Y-108139000D01*
X105047211Y-108139000D01*
X105188360Y-108153835D01*
X105188360Y-108153835D01*
G37*
G36*
X102329463Y-107863394D02*
G01*
X102386602Y-107884191D01*
X102416554Y-107889905D01*
X102444481Y-107905258D01*
X102466293Y-107913197D01*
X102509086Y-107940775D01*
X102560689Y-107969144D01*
X102577276Y-107984720D01*
X102589058Y-107992313D01*
X102631333Y-108035483D01*
X102680591Y-108081739D01*
X102687884Y-108093231D01*
X102691247Y-108096665D01*
X102728768Y-108157654D01*
X102768724Y-108220615D01*
X102791754Y-108291494D01*
X102814844Y-108359321D01*
X102815347Y-108364106D01*
X102819551Y-108377045D01*
X102823793Y-108444466D01*
X102830110Y-108504572D01*
X102828450Y-108518492D01*
X102829879Y-108541202D01*
X102818845Y-108599045D01*
X102812817Y-108649599D01*
X102805030Y-108671467D01*
X102799059Y-108702769D01*
X102777787Y-108747975D01*
X102763823Y-108787189D01*
X102746457Y-108814553D01*
X102729026Y-108851596D01*
X102702930Y-108883140D01*
X102685564Y-108910505D01*
X102656026Y-108939838D01*
X102624182Y-108978330D01*
X102598403Y-108997060D01*
X102581931Y-109013417D01*
X102538757Y-109040395D01*
X102491114Y-109075010D01*
X102469955Y-109083387D01*
X102458070Y-109090814D01*
X102401010Y-109110685D01*
X102338184Y-109135559D01*
X102324683Y-109137265D01*
X102320142Y-109138846D01*
X102248983Y-109146828D01*
X102215956Y-109151000D01*
X101591252Y-109151000D01*
X101470537Y-109136606D01*
X101413398Y-109115809D01*
X101383446Y-109110095D01*
X101355519Y-109094742D01*
X101333707Y-109086803D01*
X101290914Y-109059225D01*
X101239311Y-109030856D01*
X101222724Y-109015280D01*
X101210942Y-109007687D01*
X101168667Y-108964517D01*
X101119409Y-108918261D01*
X101112116Y-108906769D01*
X101108753Y-108903335D01*
X101071232Y-108842346D01*
X101031276Y-108779385D01*
X101008246Y-108708506D01*
X100985156Y-108640679D01*
X100984653Y-108635894D01*
X100980449Y-108622955D01*
X100976207Y-108555534D01*
X100969890Y-108495428D01*
X100971550Y-108481508D01*
X100970121Y-108458798D01*
X100981155Y-108400955D01*
X100987183Y-108350401D01*
X100994970Y-108328533D01*
X101000941Y-108297231D01*
X101022213Y-108252025D01*
X101036177Y-108212811D01*
X101053543Y-108185447D01*
X101070974Y-108148404D01*
X101097070Y-108116860D01*
X101114436Y-108089495D01*
X101143974Y-108060162D01*
X101175818Y-108021670D01*
X101201597Y-108002940D01*
X101218069Y-107986583D01*
X101261243Y-107959605D01*
X101308886Y-107924990D01*
X101330045Y-107916613D01*
X101341930Y-107909186D01*
X101398990Y-107889315D01*
X101461816Y-107864441D01*
X101475317Y-107862735D01*
X101479858Y-107861154D01*
X101551017Y-107853172D01*
X101584044Y-107849000D01*
X102208748Y-107849000D01*
X102329463Y-107863394D01*
X102329463Y-107863394D01*
G37*
G36*
X123261756Y-106461764D02*
G01*
X123273227Y-106467288D01*
X123281287Y-106468795D01*
X123298547Y-106479482D01*
X123343638Y-106501197D01*
X123363738Y-106519847D01*
X123376964Y-106528036D01*
X123387265Y-106541676D01*
X123410264Y-106563016D01*
X123432614Y-106601727D01*
X123444781Y-106617839D01*
X123446751Y-106626213D01*
X123454506Y-106639646D01*
X123473419Y-106739601D01*
X123476883Y-106754330D01*
X123476883Y-106757909D01*
X123478194Y-106764838D01*
X123478194Y-107437517D01*
X123463236Y-107536756D01*
X123457712Y-107548227D01*
X123456205Y-107556287D01*
X123445518Y-107573547D01*
X123423803Y-107618638D01*
X123405153Y-107638738D01*
X123396964Y-107651964D01*
X123383324Y-107662265D01*
X123361984Y-107685264D01*
X123323273Y-107707614D01*
X123307161Y-107719781D01*
X123298787Y-107721751D01*
X123285354Y-107729506D01*
X123185399Y-107748419D01*
X123170670Y-107751883D01*
X123167091Y-107751883D01*
X123160162Y-107753194D01*
X121937483Y-107753194D01*
X121838244Y-107738236D01*
X121826773Y-107732712D01*
X121818713Y-107731205D01*
X121801453Y-107720518D01*
X121756362Y-107698803D01*
X121736262Y-107680153D01*
X121723036Y-107671964D01*
X121712735Y-107658324D01*
X121689736Y-107636984D01*
X121667386Y-107598273D01*
X121655219Y-107582161D01*
X121653249Y-107573787D01*
X121645494Y-107560354D01*
X121626581Y-107460399D01*
X121623117Y-107445670D01*
X121623117Y-107442091D01*
X121621806Y-107435162D01*
X121621806Y-106762483D01*
X121636764Y-106663244D01*
X121642288Y-106651773D01*
X121643795Y-106643713D01*
X121654482Y-106626453D01*
X121676197Y-106581362D01*
X121694847Y-106561262D01*
X121703036Y-106548036D01*
X121716676Y-106537735D01*
X121738016Y-106514736D01*
X121776727Y-106492386D01*
X121792839Y-106480219D01*
X121801213Y-106478249D01*
X121814646Y-106470494D01*
X121914601Y-106451581D01*
X121929330Y-106448117D01*
X121932909Y-106448117D01*
X121939838Y-106446806D01*
X123162517Y-106446806D01*
X123261756Y-106461764D01*
X123261756Y-106461764D01*
G37*
G36*
X105188360Y-105613835D02*
G01*
X105269397Y-105640166D01*
X105356663Y-105667848D01*
X105359655Y-105669493D01*
X105368488Y-105672363D01*
X105440466Y-105713919D01*
X105511499Y-105752970D01*
X105518986Y-105759253D01*
X105532511Y-105767061D01*
X105590259Y-105819057D01*
X105646857Y-105866549D01*
X105656962Y-105879118D01*
X105673261Y-105893793D01*
X105715454Y-105951867D01*
X105757579Y-106004260D01*
X105767994Y-106024182D01*
X105784586Y-106047019D01*
X105811297Y-106107012D01*
X105839439Y-106160843D01*
X105847582Y-106188510D01*
X105861621Y-106220042D01*
X105873992Y-106278241D01*
X105889328Y-106330349D01*
X105892518Y-106365401D01*
X105900999Y-106405301D01*
X105900999Y-106458592D01*
X105905343Y-106506324D01*
X105900999Y-106547653D01*
X105900999Y-106594699D01*
X105891217Y-106640721D01*
X105886873Y-106682047D01*
X105872702Y-106727827D01*
X105861621Y-106779958D01*
X105845028Y-106817226D01*
X105834622Y-106850843D01*
X105808789Y-106898620D01*
X105784586Y-106952981D01*
X105764298Y-106980905D01*
X105750580Y-107006276D01*
X105711859Y-107053082D01*
X105673261Y-107106207D01*
X105652284Y-107125095D01*
X105637952Y-107142419D01*
X105585845Y-107184917D01*
X105532511Y-107232939D01*
X105513524Y-107243901D01*
X105501025Y-107254095D01*
X105435780Y-107288786D01*
X105368488Y-107327637D01*
X105353636Y-107332463D01*
X105345003Y-107337053D01*
X105267430Y-107360473D01*
X105188360Y-107386165D01*
X105179114Y-107387137D01*
X105175851Y-107388122D01*
X105084710Y-107397059D01*
X105047211Y-107401000D01*
X104952789Y-107401000D01*
X104811640Y-107386165D01*
X104730603Y-107359834D01*
X104643337Y-107332152D01*
X104640345Y-107330507D01*
X104631512Y-107327637D01*
X104559534Y-107286081D01*
X104488501Y-107247030D01*
X104481014Y-107240747D01*
X104467489Y-107232939D01*
X104409741Y-107180943D01*
X104353143Y-107133451D01*
X104343038Y-107120882D01*
X104326739Y-107106207D01*
X104284546Y-107048133D01*
X104242421Y-106995740D01*
X104232006Y-106975818D01*
X104215414Y-106952981D01*
X104188703Y-106892988D01*
X104160561Y-106839157D01*
X104152418Y-106811490D01*
X104138379Y-106779958D01*
X104126008Y-106721759D01*
X104110672Y-106669651D01*
X104107482Y-106634599D01*
X104099001Y-106594699D01*
X104099001Y-106541408D01*
X104094657Y-106493676D01*
X104099001Y-106452347D01*
X104099001Y-106405301D01*
X104108783Y-106359279D01*
X104113127Y-106317953D01*
X104127298Y-106272173D01*
X104138379Y-106220042D01*
X104154972Y-106182774D01*
X104165378Y-106149157D01*
X104191211Y-106101380D01*
X104215414Y-106047019D01*
X104235702Y-106019095D01*
X104249420Y-105993724D01*
X104288141Y-105946918D01*
X104326739Y-105893793D01*
X104347716Y-105874905D01*
X104362048Y-105857581D01*
X104414155Y-105815083D01*
X104467489Y-105767061D01*
X104486476Y-105756099D01*
X104498975Y-105745905D01*
X104564220Y-105711214D01*
X104631512Y-105672363D01*
X104646364Y-105667537D01*
X104654997Y-105662947D01*
X104732570Y-105639527D01*
X104811640Y-105613835D01*
X104820886Y-105612863D01*
X104824149Y-105611878D01*
X104915290Y-105602941D01*
X104952789Y-105599000D01*
X105047211Y-105599000D01*
X105188360Y-105613835D01*
X105188360Y-105613835D01*
G37*
G36*
X102329463Y-105863394D02*
G01*
X102386602Y-105884191D01*
X102416554Y-105889905D01*
X102444481Y-105905258D01*
X102466293Y-105913197D01*
X102509086Y-105940775D01*
X102560689Y-105969144D01*
X102577276Y-105984720D01*
X102589058Y-105992313D01*
X102631333Y-106035483D01*
X102680591Y-106081739D01*
X102687884Y-106093231D01*
X102691247Y-106096665D01*
X102728768Y-106157654D01*
X102768724Y-106220615D01*
X102791754Y-106291494D01*
X102814844Y-106359321D01*
X102815347Y-106364106D01*
X102819551Y-106377045D01*
X102823793Y-106444466D01*
X102830110Y-106504572D01*
X102828450Y-106518492D01*
X102829879Y-106541202D01*
X102818845Y-106599045D01*
X102812817Y-106649599D01*
X102805030Y-106671467D01*
X102799059Y-106702769D01*
X102777787Y-106747975D01*
X102763823Y-106787189D01*
X102746457Y-106814553D01*
X102729026Y-106851596D01*
X102702930Y-106883140D01*
X102685564Y-106910505D01*
X102656026Y-106939838D01*
X102624182Y-106978330D01*
X102598403Y-106997060D01*
X102581931Y-107013417D01*
X102538757Y-107040395D01*
X102491114Y-107075010D01*
X102469955Y-107083387D01*
X102458070Y-107090814D01*
X102401010Y-107110685D01*
X102338184Y-107135559D01*
X102324683Y-107137265D01*
X102320142Y-107138846D01*
X102248983Y-107146828D01*
X102215956Y-107151000D01*
X101591252Y-107151000D01*
X101470537Y-107136606D01*
X101413398Y-107115809D01*
X101383446Y-107110095D01*
X101355519Y-107094742D01*
X101333707Y-107086803D01*
X101290914Y-107059225D01*
X101239311Y-107030856D01*
X101222724Y-107015280D01*
X101210942Y-107007687D01*
X101168667Y-106964517D01*
X101119409Y-106918261D01*
X101112116Y-106906769D01*
X101108753Y-106903335D01*
X101071232Y-106842346D01*
X101031276Y-106779385D01*
X101008246Y-106708506D01*
X100985156Y-106640679D01*
X100984653Y-106635894D01*
X100980449Y-106622955D01*
X100976207Y-106555534D01*
X100969890Y-106495428D01*
X100971550Y-106481508D01*
X100970121Y-106458798D01*
X100981155Y-106400955D01*
X100987183Y-106350401D01*
X100994970Y-106328533D01*
X101000941Y-106297231D01*
X101022213Y-106252025D01*
X101036177Y-106212811D01*
X101053543Y-106185447D01*
X101070974Y-106148404D01*
X101097070Y-106116860D01*
X101114436Y-106089495D01*
X101143974Y-106060162D01*
X101175818Y-106021670D01*
X101201597Y-106002940D01*
X101218069Y-105986583D01*
X101261243Y-105959605D01*
X101308886Y-105924990D01*
X101330045Y-105916613D01*
X101341930Y-105909186D01*
X101398990Y-105889315D01*
X101461816Y-105864441D01*
X101475317Y-105862735D01*
X101479858Y-105861154D01*
X101551017Y-105853172D01*
X101584044Y-105849000D01*
X102208748Y-105849000D01*
X102329463Y-105863394D01*
X102329463Y-105863394D01*
G37*
G36*
X122979463Y-104463394D02*
G01*
X123036602Y-104484191D01*
X123066554Y-104489905D01*
X123094481Y-104505258D01*
X123116293Y-104513197D01*
X123159086Y-104540775D01*
X123210689Y-104569144D01*
X123227276Y-104584720D01*
X123239058Y-104592313D01*
X123281333Y-104635483D01*
X123330591Y-104681739D01*
X123337884Y-104693231D01*
X123341247Y-104696665D01*
X123378768Y-104757654D01*
X123418724Y-104820615D01*
X123441754Y-104891494D01*
X123464844Y-104959321D01*
X123465347Y-104964106D01*
X123469551Y-104977045D01*
X123473793Y-105044466D01*
X123480110Y-105104572D01*
X123478450Y-105118492D01*
X123479879Y-105141202D01*
X123468845Y-105199045D01*
X123462817Y-105249599D01*
X123455030Y-105271467D01*
X123449059Y-105302769D01*
X123427787Y-105347975D01*
X123413823Y-105387189D01*
X123396457Y-105414553D01*
X123379026Y-105451596D01*
X123352930Y-105483140D01*
X123335564Y-105510505D01*
X123306026Y-105539838D01*
X123274182Y-105578330D01*
X123248403Y-105597060D01*
X123231931Y-105613417D01*
X123188757Y-105640395D01*
X123141114Y-105675010D01*
X123119955Y-105683387D01*
X123108070Y-105690814D01*
X123051010Y-105710685D01*
X122988184Y-105735559D01*
X122974683Y-105737265D01*
X122970142Y-105738846D01*
X122898983Y-105746828D01*
X122865956Y-105751000D01*
X122241252Y-105751000D01*
X122120537Y-105736606D01*
X122063398Y-105715809D01*
X122033446Y-105710095D01*
X122005519Y-105694742D01*
X121983707Y-105686803D01*
X121940914Y-105659225D01*
X121889311Y-105630856D01*
X121872724Y-105615280D01*
X121860942Y-105607687D01*
X121818667Y-105564517D01*
X121769409Y-105518261D01*
X121762116Y-105506769D01*
X121758753Y-105503335D01*
X121721232Y-105442346D01*
X121681276Y-105379385D01*
X121658246Y-105308506D01*
X121635156Y-105240679D01*
X121634653Y-105235894D01*
X121630449Y-105222955D01*
X121626207Y-105155534D01*
X121619890Y-105095428D01*
X121621550Y-105081508D01*
X121620121Y-105058798D01*
X121631155Y-105000955D01*
X121637183Y-104950401D01*
X121644970Y-104928533D01*
X121650941Y-104897231D01*
X121672213Y-104852025D01*
X121686177Y-104812811D01*
X121703543Y-104785447D01*
X121720974Y-104748404D01*
X121747070Y-104716860D01*
X121764436Y-104689495D01*
X121793974Y-104660162D01*
X121825818Y-104621670D01*
X121851597Y-104602940D01*
X121868069Y-104586583D01*
X121911243Y-104559605D01*
X121958886Y-104524990D01*
X121980045Y-104516613D01*
X121991930Y-104509186D01*
X122048990Y-104489315D01*
X122111816Y-104464441D01*
X122125317Y-104462735D01*
X122129858Y-104461154D01*
X122201017Y-104453172D01*
X122234044Y-104449000D01*
X122858748Y-104449000D01*
X122979463Y-104463394D01*
X122979463Y-104463394D01*
G37*
G36*
X102611756Y-103861764D02*
G01*
X102623227Y-103867288D01*
X102631287Y-103868795D01*
X102648547Y-103879482D01*
X102693638Y-103901197D01*
X102713738Y-103919847D01*
X102726964Y-103928036D01*
X102737265Y-103941676D01*
X102760264Y-103963016D01*
X102782614Y-104001727D01*
X102794781Y-104017839D01*
X102796751Y-104026213D01*
X102804506Y-104039646D01*
X102823419Y-104139601D01*
X102826883Y-104154330D01*
X102826883Y-104157909D01*
X102828194Y-104164838D01*
X102828194Y-104837517D01*
X102813236Y-104936756D01*
X102807712Y-104948227D01*
X102806205Y-104956287D01*
X102795518Y-104973547D01*
X102773803Y-105018638D01*
X102755153Y-105038738D01*
X102746964Y-105051964D01*
X102733324Y-105062265D01*
X102711984Y-105085264D01*
X102673273Y-105107614D01*
X102657161Y-105119781D01*
X102648787Y-105121751D01*
X102635354Y-105129506D01*
X102535399Y-105148419D01*
X102520670Y-105151883D01*
X102517091Y-105151883D01*
X102510162Y-105153194D01*
X101287483Y-105153194D01*
X101188244Y-105138236D01*
X101176773Y-105132712D01*
X101168713Y-105131205D01*
X101151453Y-105120518D01*
X101106362Y-105098803D01*
X101086262Y-105080153D01*
X101073036Y-105071964D01*
X101062735Y-105058324D01*
X101039736Y-105036984D01*
X101017386Y-104998273D01*
X101005219Y-104982161D01*
X101003249Y-104973787D01*
X100995494Y-104960354D01*
X100976581Y-104860399D01*
X100973117Y-104845670D01*
X100973117Y-104842091D01*
X100971806Y-104835162D01*
X100971806Y-104162483D01*
X100986764Y-104063244D01*
X100992288Y-104051773D01*
X100993795Y-104043713D01*
X101004482Y-104026453D01*
X101026197Y-103981362D01*
X101044847Y-103961262D01*
X101053036Y-103948036D01*
X101066676Y-103937735D01*
X101088016Y-103914736D01*
X101126727Y-103892386D01*
X101142839Y-103880219D01*
X101151213Y-103878249D01*
X101164646Y-103870494D01*
X101264601Y-103851581D01*
X101279330Y-103848117D01*
X101282909Y-103848117D01*
X101289838Y-103846806D01*
X102512517Y-103846806D01*
X102611756Y-103861764D01*
X102611756Y-103861764D01*
G37*
G36*
X105869899Y-103061959D02*
G01*
X105886769Y-103073231D01*
X105898041Y-103090101D01*
X105904448Y-103122312D01*
X105904448Y-104797688D01*
X105901999Y-104810000D01*
X105898041Y-104829899D01*
X105886769Y-104846769D01*
X105869899Y-104858041D01*
X105850000Y-104861999D01*
X105837688Y-104864448D01*
X104162312Y-104864448D01*
X104130101Y-104858041D01*
X104113231Y-104846769D01*
X104101959Y-104829899D01*
X104095552Y-104797688D01*
X104095552Y-103122312D01*
X104101959Y-103090101D01*
X104113231Y-103073231D01*
X104130101Y-103061959D01*
X104162312Y-103055552D01*
X105837688Y-103055552D01*
X105869899Y-103061959D01*
X105869899Y-103061959D01*
G37*
M02*
