G04 #@! TF.GenerationSoftware,KiCad,Pcbnew,5.99.0-unknown-r16857-c6889b00*
G04 #@! TF.CreationDate,2019-09-24T09:09:52+02:00*
G04 #@! TF.ProjectId,solenoid-board,736f6c65-6e6f-4696-942d-626f6172642e,rev?*
G04 #@! TF.SameCoordinates,Original*
G04 #@! TF.FileFunction,Copper,L1,Top*
G04 #@! TF.FilePolarity,Positive*
%FSLAX46Y46*%
G04 Gerber Fmt 4.6, Leading zero omitted, Abs format (unit mm)*
G04 Created by KiCad (PCBNEW 5.99.0-unknown-r16857-c6889b00) date 2019-09-24 09:09:52*
%MOMM*%
%LPD*%
G04 APERTURE LIST*
%ADD10C,0.100000*%
%ADD11C,0.950000*%
%ADD12C,1.600000*%
%ADD13R,1.100000X1.100000*%
%ADD14C,1.200000*%
%ADD15O,1.750000X1.200000*%
%ADD16R,0.800000X1.900000*%
%ADD17R,1.700000X1.700000*%
%ADD18O,1.700000X1.700000*%
%ADD19C,1.425000*%
%ADD20C,0.800000*%
%ADD21C,0.400000*%
%ADD22C,1.000000*%
%ADD23C,0.600000*%
%ADD24C,0.250000*%
G04 APERTURE END LIST*
D10*
G36*
X108303387Y-107943079D02*
G01*
X108380438Y-107994562D01*
X108431921Y-108071613D01*
X108450000Y-108162500D01*
X108450000Y-108637500D01*
X108431921Y-108728387D01*
X108380438Y-108805438D01*
X108303387Y-108856921D01*
X108212500Y-108875000D01*
X107637500Y-108875000D01*
X107546613Y-108856921D01*
X107469562Y-108805438D01*
X107418079Y-108728387D01*
X107400000Y-108637500D01*
X107400000Y-108162500D01*
X107418079Y-108071613D01*
X107469562Y-107994562D01*
X107546613Y-107943079D01*
X107637500Y-107925000D01*
X108212500Y-107925000D01*
X108303387Y-107943079D01*
X108303387Y-107943079D01*
G37*
D11*
X107925000Y-108400000D03*
D10*
G36*
X110053387Y-107943079D02*
G01*
X110130438Y-107994562D01*
X110181921Y-108071613D01*
X110200000Y-108162500D01*
X110200000Y-108637500D01*
X110181921Y-108728387D01*
X110130438Y-108805438D01*
X110053387Y-108856921D01*
X109962500Y-108875000D01*
X109387500Y-108875000D01*
X109296613Y-108856921D01*
X109219562Y-108805438D01*
X109168079Y-108728387D01*
X109150000Y-108637500D01*
X109150000Y-108162500D01*
X109168079Y-108071613D01*
X109219562Y-107994562D01*
X109296613Y-107943079D01*
X109387500Y-107925000D01*
X109962500Y-107925000D01*
X110053387Y-107943079D01*
X110053387Y-107943079D01*
G37*
D11*
X109675000Y-108400000D03*
D10*
G36*
X115495671Y-107569030D02*
G01*
X115576777Y-107623223D01*
X115630970Y-107704329D01*
X115650000Y-107800000D01*
X115650000Y-110800000D01*
X115630970Y-110895671D01*
X115576777Y-110976777D01*
X115495671Y-111030970D01*
X115400000Y-111050000D01*
X114300000Y-111050000D01*
X114204329Y-111030970D01*
X114123223Y-110976777D01*
X114069030Y-110895671D01*
X114050000Y-110800000D01*
X114050000Y-107800000D01*
X114069030Y-107704329D01*
X114123223Y-107623223D01*
X114204329Y-107569030D01*
X114300000Y-107550000D01*
X115400000Y-107550000D01*
X115495671Y-107569030D01*
X115495671Y-107569030D01*
G37*
D12*
X114850000Y-109300000D03*
D10*
G36*
X115495671Y-101969030D02*
G01*
X115576777Y-102023223D01*
X115630970Y-102104329D01*
X115650000Y-102200000D01*
X115650000Y-105200000D01*
X115630970Y-105295671D01*
X115576777Y-105376777D01*
X115495671Y-105430970D01*
X115400000Y-105450000D01*
X114300000Y-105450000D01*
X114204329Y-105430970D01*
X114123223Y-105376777D01*
X114069030Y-105295671D01*
X114050000Y-105200000D01*
X114050000Y-102200000D01*
X114069030Y-102104329D01*
X114123223Y-102023223D01*
X114204329Y-101969030D01*
X114300000Y-101950000D01*
X115400000Y-101950000D01*
X115495671Y-101969030D01*
X115495671Y-101969030D01*
G37*
D12*
X114850000Y-103700000D03*
D13*
X119650000Y-107600000D03*
X119650000Y-104800000D03*
D10*
G36*
X102620671Y-103919030D02*
G01*
X102701777Y-103973223D01*
X102755970Y-104054329D01*
X102775000Y-104149999D01*
X102775000Y-104850001D01*
X102755970Y-104945671D01*
X102701777Y-105026777D01*
X102620671Y-105080970D01*
X102525001Y-105100000D01*
X101274999Y-105100000D01*
X101179329Y-105080970D01*
X101098223Y-105026777D01*
X101044030Y-104945671D01*
X101025000Y-104850001D01*
X101025000Y-104149999D01*
X101044030Y-104054329D01*
X101098223Y-103973223D01*
X101179329Y-103919030D01*
X101274999Y-103900000D01*
X102525001Y-103900000D01*
X102620671Y-103919030D01*
X102620671Y-103919030D01*
G37*
D14*
X101900000Y-104500000D03*
D15*
X101900000Y-106500000D03*
X101900000Y-108500000D03*
D10*
G36*
X123270671Y-106519030D02*
G01*
X123351777Y-106573223D01*
X123405970Y-106654329D01*
X123425000Y-106749999D01*
X123425000Y-107450001D01*
X123405970Y-107545671D01*
X123351777Y-107626777D01*
X123270671Y-107680970D01*
X123175001Y-107700000D01*
X121924999Y-107700000D01*
X121829329Y-107680970D01*
X121748223Y-107626777D01*
X121694030Y-107545671D01*
X121675000Y-107450001D01*
X121675000Y-106749999D01*
X121694030Y-106654329D01*
X121748223Y-106573223D01*
X121829329Y-106519030D01*
X121924999Y-106500000D01*
X123175001Y-106500000D01*
X123270671Y-106519030D01*
X123270671Y-106519030D01*
G37*
D14*
X122550000Y-107100000D03*
D15*
X122550000Y-105100000D03*
D16*
X107850000Y-106400000D03*
X109750000Y-106400000D03*
X108800000Y-103400000D03*
D17*
X105000000Y-103960000D03*
D18*
X105000000Y-106500000D03*
X105000000Y-109040000D03*
D10*
G36*
X111245671Y-109544030D02*
G01*
X111326777Y-109598223D01*
X111380970Y-109679329D01*
X111400000Y-109775000D01*
X111400000Y-111025000D01*
X111380970Y-111120671D01*
X111326777Y-111201777D01*
X111245671Y-111255970D01*
X111150000Y-111275000D01*
X110225000Y-111275000D01*
X110129329Y-111255970D01*
X110048223Y-111201777D01*
X109994030Y-111120671D01*
X109975000Y-111025000D01*
X109975000Y-109775000D01*
X109994030Y-109679329D01*
X110048223Y-109598223D01*
X110129329Y-109544030D01*
X110225000Y-109525000D01*
X111150000Y-109525000D01*
X111245671Y-109544030D01*
X111245671Y-109544030D01*
G37*
D19*
X110687500Y-110400000D03*
D10*
G36*
X108270671Y-109544030D02*
G01*
X108351777Y-109598223D01*
X108405970Y-109679329D01*
X108425000Y-109775000D01*
X108425000Y-111025000D01*
X108405970Y-111120671D01*
X108351777Y-111201777D01*
X108270671Y-111255970D01*
X108175000Y-111275000D01*
X107250000Y-111275000D01*
X107154329Y-111255970D01*
X107073223Y-111201777D01*
X107019030Y-111120671D01*
X107000000Y-111025000D01*
X107000000Y-109775000D01*
X107019030Y-109679329D01*
X107073223Y-109598223D01*
X107154329Y-109544030D01*
X107250000Y-109525000D01*
X108175000Y-109525000D01*
X108270671Y-109544030D01*
X108270671Y-109544030D01*
G37*
D19*
X107712500Y-110400000D03*
D20*
X98300000Y-110800000D03*
X98300000Y-102400000D03*
X127800000Y-109000000D03*
X127800000Y-104100000D03*
X116700000Y-110800000D03*
X103300000Y-110800000D03*
X111900000Y-108000000D03*
X113000000Y-108000000D03*
X113000000Y-109100000D03*
X107000000Y-102400000D03*
X116800000Y-102400000D03*
X112700000Y-102400000D03*
D21*
X107925000Y-108400000D02*
X107925000Y-106475000D01*
X107925000Y-106475000D02*
X107850000Y-106400000D01*
D22*
X119600000Y-109300000D02*
X121600000Y-109300000D01*
X119600000Y-109200000D02*
X119600000Y-109300000D01*
X114850000Y-109300000D02*
X119600000Y-109300000D01*
X119650000Y-107600000D02*
X119650000Y-109150000D01*
X119650000Y-109150000D02*
X119600000Y-109200000D01*
X121600000Y-109300000D02*
X122550000Y-108350000D01*
X122550000Y-108350000D02*
X122550000Y-107100000D01*
D23*
X110687500Y-110400000D02*
X113750000Y-110400000D01*
X113750000Y-110400000D02*
X114850000Y-109300000D01*
D22*
X107712500Y-110400000D02*
X106360000Y-110400000D01*
X106360000Y-110400000D02*
X105000000Y-109040000D01*
X101900000Y-108500000D02*
X104460000Y-108500000D01*
X104460000Y-108500000D02*
X105000000Y-109040000D01*
X119650000Y-104800000D02*
X122250000Y-104800000D01*
X122250000Y-104800000D02*
X122550000Y-105100000D01*
X110800000Y-103400000D02*
X108800000Y-103400000D01*
X113800000Y-106400000D02*
X110800000Y-103400000D01*
X119650000Y-104800000D02*
X118100000Y-104800000D01*
X116500000Y-106400000D02*
X113800000Y-106400000D01*
X118100000Y-104800000D02*
X116500000Y-106400000D01*
D21*
X105000000Y-106500000D02*
X107750000Y-106500000D01*
X107750000Y-106500000D02*
X107850000Y-106400000D01*
X101900000Y-106500000D02*
X105000000Y-106500000D01*
D23*
X105000000Y-103960000D02*
X102440000Y-103960000D01*
X102440000Y-103960000D02*
X101900000Y-104500000D01*
D24*
G36*
X108087497Y-101897648D02*
G01*
X107914614Y-102042713D01*
X107804587Y-102233287D01*
X107768287Y-102439151D01*
X107768287Y-102946393D01*
X107742954Y-102994238D01*
X107676679Y-103258091D01*
X107675255Y-103530137D01*
X107738764Y-103794670D01*
X107768287Y-103851870D01*
X107768287Y-104366325D01*
X107847648Y-104662504D01*
X107978365Y-104818287D01*
X107433675Y-104818287D01*
X107137497Y-104897648D01*
X106964614Y-105042713D01*
X106854587Y-105233287D01*
X106818287Y-105439151D01*
X106818287Y-105676000D01*
X106222450Y-105676000D01*
X106133462Y-105548913D01*
X105992463Y-105407914D01*
X106162504Y-105362352D01*
X106335386Y-105217287D01*
X106445413Y-105026713D01*
X106481713Y-104820849D01*
X106481713Y-104086000D01*
X103518287Y-104086000D01*
X103518287Y-104826325D01*
X103597648Y-105122504D01*
X103742713Y-105295386D01*
X103933287Y-105405413D01*
X103998533Y-105416918D01*
X103866538Y-105548913D01*
X103777550Y-105676000D01*
X103084282Y-105676000D01*
X102990077Y-105585818D01*
X103100664Y-105514748D01*
X103265246Y-105324809D01*
X103369650Y-105096197D01*
X103404142Y-104856300D01*
X103404142Y-104626000D01*
X100395858Y-104626000D01*
X100395858Y-104860762D01*
X100471920Y-105210415D01*
X100610252Y-105425664D01*
X100800191Y-105590246D01*
X100801135Y-105590677D01*
X100777067Y-105609583D01*
X100623991Y-105785987D01*
X100507034Y-105988155D01*
X100430416Y-106208792D01*
X100396902Y-106439936D01*
X100407701Y-106673247D01*
X100462422Y-106900308D01*
X100559093Y-107112923D01*
X100694224Y-107303424D01*
X100862940Y-107464934D01*
X100916877Y-107499761D01*
X100777067Y-107609583D01*
X100623991Y-107785987D01*
X100507034Y-107988155D01*
X100430416Y-108208792D01*
X100396902Y-108439936D01*
X100407701Y-108673247D01*
X100462422Y-108900308D01*
X100559093Y-109112923D01*
X100694224Y-109303424D01*
X100862940Y-109464934D01*
X101059154Y-109591628D01*
X101278627Y-109680078D01*
X101581552Y-109724000D01*
X102233339Y-109724000D01*
X102407505Y-109707383D01*
X102631622Y-109641635D01*
X102665862Y-109624000D01*
X103645945Y-109624000D01*
X103718603Y-109779815D01*
X103866538Y-109991087D01*
X104048913Y-110173462D01*
X104260185Y-110321397D01*
X104493937Y-110430397D01*
X104743065Y-110497151D01*
X104879514Y-110509089D01*
X105496425Y-111126000D01*
X97870725Y-111126000D01*
X97860527Y-111123664D01*
X97844809Y-111122456D01*
X97607064Y-111105622D01*
X97417982Y-111064914D01*
X97236522Y-110997970D01*
X97066296Y-110906121D01*
X96910724Y-110791213D01*
X96772883Y-110655520D01*
X96655546Y-110501772D01*
X96561032Y-110333005D01*
X96491251Y-110152631D01*
X96447575Y-109964201D01*
X96429175Y-109751743D01*
X96429053Y-109736219D01*
X96424000Y-109702809D01*
X96424000Y-104143700D01*
X100395858Y-104143700D01*
X100395858Y-104374000D01*
X101774000Y-104374000D01*
X101774000Y-103270858D01*
X102026000Y-103270858D01*
X102026000Y-104374000D01*
X103404142Y-104374000D01*
X103404142Y-104139238D01*
X103328080Y-103789585D01*
X103189748Y-103574336D01*
X102999809Y-103409754D01*
X102771197Y-103305350D01*
X102531300Y-103270858D01*
X102026000Y-103270858D01*
X101774000Y-103270858D01*
X101264238Y-103270858D01*
X100914585Y-103346920D01*
X100699336Y-103485252D01*
X100534754Y-103675191D01*
X100430350Y-103903803D01*
X100395858Y-104143700D01*
X96424000Y-104143700D01*
X96424000Y-103320723D01*
X96426333Y-103310536D01*
X96427544Y-103294818D01*
X96441398Y-103099151D01*
X103518287Y-103099151D01*
X103518287Y-103834000D01*
X104874000Y-103834000D01*
X104874000Y-102478287D01*
X105126000Y-102478287D01*
X105126000Y-103834000D01*
X106481713Y-103834000D01*
X106481713Y-103093675D01*
X106402352Y-102797497D01*
X106257287Y-102624614D01*
X106066713Y-102514587D01*
X105860849Y-102478287D01*
X105126000Y-102478287D01*
X104874000Y-102478287D01*
X104133675Y-102478287D01*
X103837497Y-102557648D01*
X103664614Y-102702713D01*
X103554587Y-102893287D01*
X103518287Y-103099151D01*
X96441398Y-103099151D01*
X96444378Y-103057064D01*
X96485086Y-102867982D01*
X96552030Y-102686522D01*
X96643877Y-102516300D01*
X96758787Y-102360724D01*
X96894480Y-102222883D01*
X97048225Y-102105548D01*
X97216994Y-102011033D01*
X97397371Y-101941250D01*
X97585798Y-101897575D01*
X97798256Y-101879175D01*
X97813781Y-101879053D01*
X97847191Y-101874000D01*
X108175752Y-101874000D01*
X108087497Y-101897648D01*
X108087497Y-101897648D01*
G37*
X108087497Y-101897648D02*
X107914614Y-102042713D01*
X107804587Y-102233287D01*
X107768287Y-102439151D01*
X107768287Y-102946393D01*
X107742954Y-102994238D01*
X107676679Y-103258091D01*
X107675255Y-103530137D01*
X107738764Y-103794670D01*
X107768287Y-103851870D01*
X107768287Y-104366325D01*
X107847648Y-104662504D01*
X107978365Y-104818287D01*
X107433675Y-104818287D01*
X107137497Y-104897648D01*
X106964614Y-105042713D01*
X106854587Y-105233287D01*
X106818287Y-105439151D01*
X106818287Y-105676000D01*
X106222450Y-105676000D01*
X106133462Y-105548913D01*
X105992463Y-105407914D01*
X106162504Y-105362352D01*
X106335386Y-105217287D01*
X106445413Y-105026713D01*
X106481713Y-104820849D01*
X106481713Y-104086000D01*
X103518287Y-104086000D01*
X103518287Y-104826325D01*
X103597648Y-105122504D01*
X103742713Y-105295386D01*
X103933287Y-105405413D01*
X103998533Y-105416918D01*
X103866538Y-105548913D01*
X103777550Y-105676000D01*
X103084282Y-105676000D01*
X102990077Y-105585818D01*
X103100664Y-105514748D01*
X103265246Y-105324809D01*
X103369650Y-105096197D01*
X103404142Y-104856300D01*
X103404142Y-104626000D01*
X100395858Y-104626000D01*
X100395858Y-104860762D01*
X100471920Y-105210415D01*
X100610252Y-105425664D01*
X100800191Y-105590246D01*
X100801135Y-105590677D01*
X100777067Y-105609583D01*
X100623991Y-105785987D01*
X100507034Y-105988155D01*
X100430416Y-106208792D01*
X100396902Y-106439936D01*
X100407701Y-106673247D01*
X100462422Y-106900308D01*
X100559093Y-107112923D01*
X100694224Y-107303424D01*
X100862940Y-107464934D01*
X100916877Y-107499761D01*
X100777067Y-107609583D01*
X100623991Y-107785987D01*
X100507034Y-107988155D01*
X100430416Y-108208792D01*
X100396902Y-108439936D01*
X100407701Y-108673247D01*
X100462422Y-108900308D01*
X100559093Y-109112923D01*
X100694224Y-109303424D01*
X100862940Y-109464934D01*
X101059154Y-109591628D01*
X101278627Y-109680078D01*
X101581552Y-109724000D01*
X102233339Y-109724000D01*
X102407505Y-109707383D01*
X102631622Y-109641635D01*
X102665862Y-109624000D01*
X103645945Y-109624000D01*
X103718603Y-109779815D01*
X103866538Y-109991087D01*
X104048913Y-110173462D01*
X104260185Y-110321397D01*
X104493937Y-110430397D01*
X104743065Y-110497151D01*
X104879514Y-110509089D01*
X105496425Y-111126000D01*
X97870725Y-111126000D01*
X97860527Y-111123664D01*
X97844809Y-111122456D01*
X97607064Y-111105622D01*
X97417982Y-111064914D01*
X97236522Y-110997970D01*
X97066296Y-110906121D01*
X96910724Y-110791213D01*
X96772883Y-110655520D01*
X96655546Y-110501772D01*
X96561032Y-110333005D01*
X96491251Y-110152631D01*
X96447575Y-109964201D01*
X96429175Y-109751743D01*
X96429053Y-109736219D01*
X96424000Y-109702809D01*
X96424000Y-104143700D01*
X100395858Y-104143700D01*
X100395858Y-104374000D01*
X101774000Y-104374000D01*
X101774000Y-103270858D01*
X102026000Y-103270858D01*
X102026000Y-104374000D01*
X103404142Y-104374000D01*
X103404142Y-104139238D01*
X103328080Y-103789585D01*
X103189748Y-103574336D01*
X102999809Y-103409754D01*
X102771197Y-103305350D01*
X102531300Y-103270858D01*
X102026000Y-103270858D01*
X101774000Y-103270858D01*
X101264238Y-103270858D01*
X100914585Y-103346920D01*
X100699336Y-103485252D01*
X100534754Y-103675191D01*
X100430350Y-103903803D01*
X100395858Y-104143700D01*
X96424000Y-104143700D01*
X96424000Y-103320723D01*
X96426333Y-103310536D01*
X96427544Y-103294818D01*
X96441398Y-103099151D01*
X103518287Y-103099151D01*
X103518287Y-103834000D01*
X104874000Y-103834000D01*
X104874000Y-102478287D01*
X105126000Y-102478287D01*
X105126000Y-103834000D01*
X106481713Y-103834000D01*
X106481713Y-103093675D01*
X106402352Y-102797497D01*
X106257287Y-102624614D01*
X106066713Y-102514587D01*
X105860849Y-102478287D01*
X105126000Y-102478287D01*
X104874000Y-102478287D01*
X104133675Y-102478287D01*
X103837497Y-102557648D01*
X103664614Y-102702713D01*
X103554587Y-102893287D01*
X103518287Y-103099151D01*
X96441398Y-103099151D01*
X96444378Y-103057064D01*
X96485086Y-102867982D01*
X96552030Y-102686522D01*
X96643877Y-102516300D01*
X96758787Y-102360724D01*
X96894480Y-102222883D01*
X97048225Y-102105548D01*
X97216994Y-102011033D01*
X97397371Y-101941250D01*
X97585798Y-101897575D01*
X97798256Y-101879175D01*
X97813781Y-101879053D01*
X97847191Y-101874000D01*
X108175752Y-101874000D01*
X108087497Y-101897648D01*
G36*
X113455350Y-101953804D02*
G01*
X113420858Y-102193701D01*
X113420858Y-103574000D01*
X116279142Y-103574000D01*
X116279142Y-102189239D01*
X116210566Y-101874000D01*
X126729277Y-101874000D01*
X126739464Y-101876333D01*
X126755182Y-101877544D01*
X126992936Y-101894378D01*
X127182018Y-101935086D01*
X127363478Y-102002030D01*
X127533700Y-102093877D01*
X127689276Y-102208787D01*
X127827117Y-102344480D01*
X127944452Y-102498225D01*
X128038967Y-102666994D01*
X128108750Y-102847371D01*
X128152425Y-103035798D01*
X128170825Y-103248256D01*
X128170947Y-103263781D01*
X128176001Y-103297197D01*
X128176000Y-109679275D01*
X128173664Y-109689473D01*
X128172456Y-109705191D01*
X128155622Y-109942936D01*
X128114914Y-110132018D01*
X128047970Y-110313478D01*
X127956121Y-110483704D01*
X127841213Y-110639276D01*
X127705520Y-110777117D01*
X127551772Y-110894454D01*
X127383005Y-110988968D01*
X127202631Y-111058749D01*
X127014201Y-111102425D01*
X126801743Y-111120825D01*
X126786219Y-111120947D01*
X126752809Y-111126000D01*
X116208205Y-111126000D01*
X116244650Y-111046196D01*
X116279142Y-110806299D01*
X116279142Y-110424000D01*
X119587906Y-110424000D01*
X119730139Y-110424745D01*
X119733242Y-110424000D01*
X121561026Y-110424000D01*
X121659256Y-110430696D01*
X121764256Y-110412372D01*
X121870079Y-110399565D01*
X121897925Y-110389043D01*
X121927256Y-110383924D01*
X122024861Y-110341078D01*
X122124564Y-110303404D01*
X122149108Y-110286536D01*
X122176663Y-110274439D01*
X122254070Y-110214398D01*
X122348770Y-110149312D01*
X122418281Y-110071294D01*
X123317223Y-109172353D01*
X123391424Y-109107622D01*
X123452723Y-109020404D01*
X123518484Y-108936536D01*
X123530734Y-108909406D01*
X123547855Y-108885045D01*
X123586575Y-108785732D01*
X123630437Y-108688589D01*
X123635863Y-108659312D01*
X123646796Y-108631272D01*
X123659075Y-108534073D01*
X123680014Y-108421095D01*
X123674000Y-108316799D01*
X123674000Y-108164017D01*
X123750664Y-108114748D01*
X123915246Y-107924809D01*
X124019650Y-107696197D01*
X124054142Y-107456300D01*
X124054142Y-106739238D01*
X123978080Y-106389585D01*
X123839748Y-106174336D01*
X123649809Y-106009754D01*
X123648865Y-106009323D01*
X123672933Y-105990417D01*
X123826009Y-105814013D01*
X123942966Y-105611845D01*
X124019584Y-105391208D01*
X124053098Y-105160064D01*
X124042299Y-104926753D01*
X123987578Y-104699692D01*
X123890907Y-104487077D01*
X123755776Y-104296576D01*
X123587060Y-104135066D01*
X123390846Y-104008372D01*
X123171373Y-103919922D01*
X122898899Y-103880415D01*
X122836534Y-103831515D01*
X122809405Y-103819266D01*
X122785046Y-103802145D01*
X122685724Y-103763422D01*
X122588589Y-103719563D01*
X122559314Y-103714137D01*
X122531271Y-103703204D01*
X122434072Y-103690925D01*
X122321094Y-103669986D01*
X122216798Y-103676000D01*
X120453802Y-103676000D01*
X120416712Y-103654587D01*
X120210849Y-103618287D01*
X119083675Y-103618287D01*
X118868288Y-103676000D01*
X118138974Y-103676000D01*
X118040743Y-103669304D01*
X117935736Y-103687630D01*
X117829920Y-103700435D01*
X117802073Y-103710957D01*
X117772744Y-103716076D01*
X117675139Y-103758922D01*
X117575434Y-103796597D01*
X117550900Y-103813459D01*
X117523337Y-103825558D01*
X117445917Y-103885612D01*
X117351230Y-103950687D01*
X117281718Y-104028706D01*
X116279142Y-105031284D01*
X116279142Y-103826000D01*
X113420858Y-103826000D01*
X113420858Y-104431282D01*
X111622366Y-102632792D01*
X111557623Y-102558576D01*
X111470400Y-102497274D01*
X111386534Y-102431515D01*
X111359405Y-102419266D01*
X111335046Y-102402145D01*
X111235724Y-102363422D01*
X111138589Y-102319563D01*
X111109314Y-102314137D01*
X111081271Y-102303204D01*
X110984072Y-102290925D01*
X110871094Y-102269986D01*
X110766798Y-102276000D01*
X109789464Y-102276000D01*
X109752352Y-102137497D01*
X109607287Y-101964614D01*
X109450338Y-101874000D01*
X113491795Y-101874000D01*
X113455350Y-101953804D01*
X113455350Y-101953804D01*
G37*
X113455350Y-101953804D02*
X113420858Y-102193701D01*
X113420858Y-103574000D01*
X116279142Y-103574000D01*
X116279142Y-102189239D01*
X116210566Y-101874000D01*
X126729277Y-101874000D01*
X126739464Y-101876333D01*
X126755182Y-101877544D01*
X126992936Y-101894378D01*
X127182018Y-101935086D01*
X127363478Y-102002030D01*
X127533700Y-102093877D01*
X127689276Y-102208787D01*
X127827117Y-102344480D01*
X127944452Y-102498225D01*
X128038967Y-102666994D01*
X128108750Y-102847371D01*
X128152425Y-103035798D01*
X128170825Y-103248256D01*
X128170947Y-103263781D01*
X128176001Y-103297197D01*
X128176000Y-109679275D01*
X128173664Y-109689473D01*
X128172456Y-109705191D01*
X128155622Y-109942936D01*
X128114914Y-110132018D01*
X128047970Y-110313478D01*
X127956121Y-110483704D01*
X127841213Y-110639276D01*
X127705520Y-110777117D01*
X127551772Y-110894454D01*
X127383005Y-110988968D01*
X127202631Y-111058749D01*
X127014201Y-111102425D01*
X126801743Y-111120825D01*
X126786219Y-111120947D01*
X126752809Y-111126000D01*
X116208205Y-111126000D01*
X116244650Y-111046196D01*
X116279142Y-110806299D01*
X116279142Y-110424000D01*
X119587906Y-110424000D01*
X119730139Y-110424745D01*
X119733242Y-110424000D01*
X121561026Y-110424000D01*
X121659256Y-110430696D01*
X121764256Y-110412372D01*
X121870079Y-110399565D01*
X121897925Y-110389043D01*
X121927256Y-110383924D01*
X122024861Y-110341078D01*
X122124564Y-110303404D01*
X122149108Y-110286536D01*
X122176663Y-110274439D01*
X122254070Y-110214398D01*
X122348770Y-110149312D01*
X122418281Y-110071294D01*
X123317223Y-109172353D01*
X123391424Y-109107622D01*
X123452723Y-109020404D01*
X123518484Y-108936536D01*
X123530734Y-108909406D01*
X123547855Y-108885045D01*
X123586575Y-108785732D01*
X123630437Y-108688589D01*
X123635863Y-108659312D01*
X123646796Y-108631272D01*
X123659075Y-108534073D01*
X123680014Y-108421095D01*
X123674000Y-108316799D01*
X123674000Y-108164017D01*
X123750664Y-108114748D01*
X123915246Y-107924809D01*
X124019650Y-107696197D01*
X124054142Y-107456300D01*
X124054142Y-106739238D01*
X123978080Y-106389585D01*
X123839748Y-106174336D01*
X123649809Y-106009754D01*
X123648865Y-106009323D01*
X123672933Y-105990417D01*
X123826009Y-105814013D01*
X123942966Y-105611845D01*
X124019584Y-105391208D01*
X124053098Y-105160064D01*
X124042299Y-104926753D01*
X123987578Y-104699692D01*
X123890907Y-104487077D01*
X123755776Y-104296576D01*
X123587060Y-104135066D01*
X123390846Y-104008372D01*
X123171373Y-103919922D01*
X122898899Y-103880415D01*
X122836534Y-103831515D01*
X122809405Y-103819266D01*
X122785046Y-103802145D01*
X122685724Y-103763422D01*
X122588589Y-103719563D01*
X122559314Y-103714137D01*
X122531271Y-103703204D01*
X122434072Y-103690925D01*
X122321094Y-103669986D01*
X122216798Y-103676000D01*
X120453802Y-103676000D01*
X120416712Y-103654587D01*
X120210849Y-103618287D01*
X119083675Y-103618287D01*
X118868288Y-103676000D01*
X118138974Y-103676000D01*
X118040743Y-103669304D01*
X117935736Y-103687630D01*
X117829920Y-103700435D01*
X117802073Y-103710957D01*
X117772744Y-103716076D01*
X117675139Y-103758922D01*
X117575434Y-103796597D01*
X117550900Y-103813459D01*
X117523337Y-103825558D01*
X117445917Y-103885612D01*
X117351230Y-103950687D01*
X117281718Y-104028706D01*
X116279142Y-105031284D01*
X116279142Y-103826000D01*
X113420858Y-103826000D01*
X113420858Y-104431282D01*
X111622366Y-102632792D01*
X111557623Y-102558576D01*
X111470400Y-102497274D01*
X111386534Y-102431515D01*
X111359405Y-102419266D01*
X111335046Y-102402145D01*
X111235724Y-102363422D01*
X111138589Y-102319563D01*
X111109314Y-102314137D01*
X111081271Y-102303204D01*
X110984072Y-102290925D01*
X110871094Y-102269986D01*
X110766798Y-102276000D01*
X109789464Y-102276000D01*
X109752352Y-102137497D01*
X109607287Y-101964614D01*
X109450338Y-101874000D01*
X113491795Y-101874000D01*
X113455350Y-101953804D01*
G36*
X112977647Y-107167223D02*
G01*
X113042378Y-107241424D01*
X113129596Y-107302723D01*
X113213464Y-107368484D01*
X113240594Y-107380734D01*
X113264955Y-107397855D01*
X113364268Y-107436575D01*
X113461411Y-107480437D01*
X113486714Y-107485127D01*
X113455350Y-107553804D01*
X113420858Y-107793701D01*
X113420858Y-109422410D01*
X113367268Y-109476000D01*
X111966440Y-109476000D01*
X111953080Y-109414586D01*
X111814748Y-109199336D01*
X111624809Y-109034754D01*
X111396196Y-108930350D01*
X111156299Y-108895858D01*
X110788041Y-108895858D01*
X110795162Y-108880266D01*
X110846098Y-108526000D01*
X109549000Y-108526000D01*
X109549000Y-108274000D01*
X110855767Y-108274000D01*
X110754221Y-107807204D01*
X110676441Y-107686176D01*
X110745413Y-107566713D01*
X110781713Y-107360849D01*
X110781713Y-106526000D01*
X109624000Y-106526000D01*
X109624000Y-104818287D01*
X109876000Y-104818287D01*
X109876000Y-106274000D01*
X110781713Y-106274000D01*
X110781713Y-105433675D01*
X110702352Y-105137497D01*
X110557287Y-104964614D01*
X110366713Y-104854587D01*
X110160849Y-104818287D01*
X109876000Y-104818287D01*
X109624000Y-104818287D01*
X109612689Y-104818287D01*
X109685386Y-104757287D01*
X109795413Y-104566713D01*
X109802945Y-104524000D01*
X110334425Y-104524000D01*
X112977647Y-107167223D01*
X112977647Y-107167223D01*
G37*
X112977647Y-107167223D02*
X113042378Y-107241424D01*
X113129596Y-107302723D01*
X113213464Y-107368484D01*
X113240594Y-107380734D01*
X113264955Y-107397855D01*
X113364268Y-107436575D01*
X113461411Y-107480437D01*
X113486714Y-107485127D01*
X113455350Y-107553804D01*
X113420858Y-107793701D01*
X113420858Y-109422410D01*
X113367268Y-109476000D01*
X111966440Y-109476000D01*
X111953080Y-109414586D01*
X111814748Y-109199336D01*
X111624809Y-109034754D01*
X111396196Y-108930350D01*
X111156299Y-108895858D01*
X110788041Y-108895858D01*
X110795162Y-108880266D01*
X110846098Y-108526000D01*
X109549000Y-108526000D01*
X109549000Y-108274000D01*
X110855767Y-108274000D01*
X110754221Y-107807204D01*
X110676441Y-107686176D01*
X110745413Y-107566713D01*
X110781713Y-107360849D01*
X110781713Y-106526000D01*
X109624000Y-106526000D01*
X109624000Y-104818287D01*
X109876000Y-104818287D01*
X109876000Y-106274000D01*
X110781713Y-106274000D01*
X110781713Y-105433675D01*
X110702352Y-105137497D01*
X110557287Y-104964614D01*
X110366713Y-104854587D01*
X110160849Y-104818287D01*
X109876000Y-104818287D01*
X109624000Y-104818287D01*
X109612689Y-104818287D01*
X109685386Y-104757287D01*
X109795413Y-104566713D01*
X109802945Y-104524000D01*
X110334425Y-104524000D01*
X112977647Y-107167223D01*
M02*
