G04 #@! TF.GenerationSoftware,KiCad,Pcbnew,(5.1.2)-2*
G04 #@! TF.CreationDate,2019-09-09T17:29:24+02:00*
G04 #@! TF.ProjectId,solenoid-board,736f6c65-6e6f-4696-942d-626f6172642e,rev?*
G04 #@! TF.SameCoordinates,Original*
G04 #@! TF.FileFunction,Legend,Bot*
G04 #@! TF.FilePolarity,Positive*
%FSLAX46Y46*%
G04 Gerber Fmt 4.6, Leading zero omitted, Abs format (unit mm)*
G04 Created by KiCad (PCBNEW (5.1.2)-2) date 2019-09-09 17:29:24*
%MOMM*%
%LPD*%
G04 APERTURE LIST*
%ADD10C,0.200000*%
G04 APERTURE END LIST*
D10*
X100012857Y-103842857D02*
X100584285Y-103842857D01*
X100641428Y-104414285D01*
X100584285Y-104357142D01*
X100470000Y-104300000D01*
X100184285Y-104300000D01*
X100070000Y-104357142D01*
X100012857Y-104414285D01*
X99955714Y-104528571D01*
X99955714Y-104814285D01*
X100012857Y-104928571D01*
X100070000Y-104985714D01*
X100184285Y-105042857D01*
X100470000Y-105042857D01*
X100584285Y-104985714D01*
X100641428Y-104928571D01*
X99612857Y-103842857D02*
X99212857Y-105042857D01*
X98812857Y-103842857D01*
X100184285Y-106414285D02*
X100584285Y-106414285D01*
X100584285Y-107042857D02*
X100584285Y-105842857D01*
X100012857Y-105842857D01*
X99555714Y-107042857D02*
X99555714Y-105842857D01*
X98298571Y-107042857D02*
X98698571Y-106471428D01*
X98984285Y-107042857D02*
X98984285Y-105842857D01*
X98527142Y-105842857D01*
X98412857Y-105900000D01*
X98355714Y-105957142D01*
X98298571Y-106071428D01*
X98298571Y-106242857D01*
X98355714Y-106357142D01*
X98412857Y-106414285D01*
X98527142Y-106471428D01*
X98984285Y-106471428D01*
X97784285Y-106414285D02*
X97384285Y-106414285D01*
X97212857Y-107042857D02*
X97784285Y-107042857D01*
X97784285Y-105842857D01*
X97212857Y-105842857D01*
X96698571Y-106928571D02*
X96641428Y-106985714D01*
X96698571Y-107042857D01*
X96755714Y-106985714D01*
X96698571Y-106928571D01*
X96698571Y-107042857D01*
X96698571Y-106585714D02*
X96755714Y-105900000D01*
X96698571Y-105842857D01*
X96641428Y-105900000D01*
X96698571Y-106585714D01*
X96698571Y-105842857D01*
X99955714Y-107900000D02*
X100070000Y-107842857D01*
X100241428Y-107842857D01*
X100412857Y-107900000D01*
X100527142Y-108014285D01*
X100584285Y-108128571D01*
X100641428Y-108357142D01*
X100641428Y-108528571D01*
X100584285Y-108757142D01*
X100527142Y-108871428D01*
X100412857Y-108985714D01*
X100241428Y-109042857D01*
X100127142Y-109042857D01*
X99955714Y-108985714D01*
X99898571Y-108928571D01*
X99898571Y-108528571D01*
X100127142Y-108528571D01*
X99384285Y-109042857D02*
X99384285Y-107842857D01*
X98698571Y-109042857D01*
X98698571Y-107842857D01*
X98127142Y-109042857D02*
X98127142Y-107842857D01*
X97841428Y-107842857D01*
X97670000Y-107900000D01*
X97555714Y-108014285D01*
X97498571Y-108128571D01*
X97441428Y-108357142D01*
X97441428Y-108528571D01*
X97498571Y-108757142D01*
X97555714Y-108871428D01*
X97670000Y-108985714D01*
X97841428Y-109042857D01*
X98127142Y-109042857D01*
M02*
