G04 #@! TF.GenerationSoftware,KiCad,Pcbnew,(5.1.2)-2*
G04 #@! TF.CreationDate,2019-09-09T17:29:24+02:00*
G04 #@! TF.ProjectId,solenoid-board,736f6c65-6e6f-4696-942d-626f6172642e,rev?*
G04 #@! TF.SameCoordinates,Original*
G04 #@! TF.FileFunction,Soldermask,Bot*
G04 #@! TF.FilePolarity,Negative*
%FSLAX46Y46*%
G04 Gerber Fmt 4.6, Leading zero omitted, Abs format (unit mm)*
G04 Created by KiCad (PCBNEW (5.1.2)-2) date 2019-09-09 17:29:24*
%MOMM*%
%LPD*%
G04 APERTURE LIST*
%ADD10C,0.100000*%
%ADD11C,0.300000*%
G04 APERTURE END LIST*
D10*
G36*
X115556169Y-106333216D02*
G01*
X115900166Y-106056602D01*
X115740520Y-106149886D01*
X115561640Y-106184298D01*
X115556169Y-106184298D01*
X115367142Y-106148834D01*
X115202252Y-106050032D01*
X115071436Y-105899272D01*
X114984632Y-105707939D01*
X114951779Y-105487414D01*
X114980272Y-105265129D01*
X115063890Y-105071249D01*
X115192760Y-104917557D01*
X115357009Y-104815837D01*
X115546764Y-104777875D01*
X115552062Y-104777875D01*
X115730093Y-104809759D01*
X115890076Y-104899843D01*
X116021335Y-105039776D01*
X116113194Y-105221208D01*
X116183633Y-105271302D01*
X116254591Y-105219670D01*
X116343432Y-105035192D01*
X116473032Y-104892021D01*
X116632671Y-104798892D01*
X116811624Y-104764540D01*
X116817095Y-104764540D01*
X117006121Y-104800004D01*
X117171011Y-104898807D01*
X117301828Y-105049567D01*
X117388631Y-105240900D01*
X117421485Y-105461425D01*
X117392991Y-105683693D01*
X117309373Y-105877540D01*
X117180503Y-106031207D01*
X117016255Y-106132935D01*
X116826500Y-106170963D01*
X116821371Y-106170963D01*
X116643313Y-106139021D01*
X116483272Y-106048782D01*
X116351954Y-105908630D01*
X116260066Y-105726946D01*
X116189623Y-105676848D01*
X116188939Y-105676848D01*
X116118669Y-105728485D01*
X116029806Y-105913213D01*
X115900166Y-106056602D01*
X115556169Y-106333216D01*
X115563351Y-106333043D01*
X115751372Y-106303485D01*
X115923846Y-106223002D01*
X116073110Y-106097735D01*
X116191504Y-105933822D01*
X116312090Y-106093970D01*
X116462345Y-106215585D01*
X116634688Y-106292832D01*
X116821537Y-106319878D01*
X116828035Y-106319708D01*
X117027199Y-106287077D01*
X117205676Y-106199141D01*
X117356341Y-106064168D01*
X117472070Y-105890427D01*
X117545740Y-105686186D01*
X117570226Y-105459714D01*
X117541261Y-105235001D01*
X117464104Y-105033276D01*
X117345932Y-104862506D01*
X117193922Y-104730661D01*
X117015250Y-104645710D01*
X116817092Y-104615622D01*
X116809909Y-104615792D01*
X116621887Y-104645319D01*
X116449413Y-104725705D01*
X116300148Y-104850813D01*
X116181757Y-105014501D01*
X116061176Y-104854578D01*
X115910957Y-104733123D01*
X115738715Y-104655971D01*
X115552062Y-104628957D01*
X115545053Y-104629127D01*
X115345960Y-104661687D01*
X115167532Y-104749580D01*
X115016896Y-104884539D01*
X114901182Y-105058294D01*
X114827517Y-105262577D01*
X114803030Y-105489121D01*
X114832009Y-105713822D01*
X114909193Y-105915522D01*
X115027391Y-106086266D01*
X115179413Y-106218100D01*
X115358069Y-106303068D01*
X115556169Y-106333216D01*
X115556169Y-106333216D01*
G37*
G36*
X111476305Y-108416376D02*
G01*
X111666694Y-109611594D01*
X111860631Y-109638985D01*
X112061173Y-109684196D01*
X112253739Y-109753073D01*
X112423748Y-109851460D01*
X112556617Y-109985203D01*
X112637766Y-110160146D01*
X112652613Y-110382135D01*
X112483130Y-110198359D01*
X112269848Y-110096756D01*
X112026318Y-110034680D01*
X112036507Y-110250042D01*
X112030168Y-110465245D01*
X111875373Y-110246217D01*
X111688339Y-110096721D01*
X111476307Y-110024103D01*
X111273448Y-110017267D01*
X111142986Y-109975711D01*
X111173010Y-109894807D01*
X111233032Y-109812559D01*
X111226911Y-109683577D01*
X111205218Y-109492894D01*
X111162959Y-109265192D01*
X111095138Y-109025149D01*
X110996760Y-108797446D01*
X110862832Y-108606763D01*
X110809897Y-108604511D01*
X110675577Y-108613423D01*
X110496598Y-108657005D01*
X110309686Y-108758762D01*
X110151567Y-108942197D01*
X110058968Y-109230816D01*
X110036822Y-109648284D01*
X110088056Y-109889244D01*
X110174987Y-110007246D01*
X110259934Y-110055834D01*
X110449069Y-110124078D01*
X110668090Y-110182492D01*
X110895373Y-110245803D01*
X111109293Y-110328741D01*
X111288226Y-110446035D01*
X111410549Y-110612413D01*
X111204698Y-110568560D01*
X110997013Y-110539224D01*
X110787772Y-110521041D01*
X110577249Y-110510652D01*
X110627434Y-110700414D01*
X110661444Y-110893356D01*
X110519545Y-110813396D01*
X110327153Y-110707293D01*
X110101046Y-110609123D01*
X109858003Y-110552961D01*
X109636069Y-110551610D01*
X109495273Y-110507200D01*
X109571492Y-110403142D01*
X109688767Y-110172184D01*
X109694840Y-109965538D01*
X109666830Y-109756541D01*
X109598862Y-109542843D01*
X109485060Y-109322094D01*
X109319547Y-109091943D01*
X109096448Y-108850040D01*
X108952790Y-108721281D01*
X108801067Y-108601947D01*
X108644764Y-108485713D01*
X108487362Y-108366252D01*
X108332345Y-108237239D01*
X108183196Y-108092348D01*
X108043398Y-107925254D01*
X107916434Y-107729630D01*
X107805787Y-107499151D01*
X107714941Y-107227491D01*
X107647378Y-106908324D01*
X107601907Y-106570803D01*
X107576479Y-106258250D01*
X107570649Y-105968950D01*
X107583970Y-105701187D01*
X107615996Y-105453245D01*
X107666281Y-105223408D01*
X107734380Y-105009960D01*
X107819846Y-104811185D01*
X107922233Y-104625369D01*
X108041096Y-104450794D01*
X108175989Y-104285744D01*
X108326465Y-104128505D01*
X108498181Y-103979739D01*
X108693869Y-103841832D01*
X108909269Y-103715090D01*
X109140122Y-103599823D01*
X109382168Y-103496339D01*
X109631147Y-103404947D01*
X109882799Y-103325956D01*
X110132865Y-103259673D01*
X110377084Y-103206407D01*
X110611197Y-103166467D01*
X110830944Y-103140161D01*
X111032065Y-103127798D01*
X111277241Y-103124926D01*
X111507966Y-103131455D01*
X111728592Y-103148953D01*
X111943472Y-103178987D01*
X112156959Y-103223124D01*
X112373406Y-103282930D01*
X112597165Y-103359974D01*
X112832590Y-103455821D01*
X113084033Y-103572039D01*
X113347223Y-103717599D01*
X113559345Y-103863903D01*
X113734777Y-104003761D01*
X113887898Y-104129984D01*
X114033086Y-104235384D01*
X114184719Y-104312770D01*
X114357176Y-104354955D01*
X114564836Y-104354748D01*
X114868296Y-104317333D01*
X115143514Y-104299785D01*
X115391691Y-104303021D01*
X115614027Y-104327961D01*
X115811723Y-104375523D01*
X115985980Y-104446624D01*
X116137997Y-104542183D01*
X116268976Y-104663119D01*
X116380116Y-104810349D01*
X116190000Y-105120000D01*
X115697381Y-104749283D01*
X115370000Y-104720000D01*
X115030000Y-104980000D01*
X114890000Y-105390000D01*
X114930000Y-105790000D01*
X115240000Y-106140000D01*
X115580000Y-106220000D01*
X115800000Y-106160000D01*
X115990000Y-106040000D01*
X116210000Y-105860000D01*
X116380000Y-106020000D01*
X116690672Y-106168136D01*
X116676178Y-106349875D01*
X116637981Y-106518887D01*
X116577277Y-106675790D01*
X116495261Y-106821204D01*
X116393128Y-106955746D01*
X116272075Y-107080034D01*
X116133296Y-107194687D01*
X115977987Y-107300323D01*
X115807343Y-107397560D01*
X115622560Y-107487016D01*
X115424833Y-107569310D01*
X115215357Y-107645059D01*
X114995329Y-107714882D01*
X114765943Y-107779398D01*
X114528395Y-107839224D01*
X114283880Y-107894979D01*
X114033594Y-107947280D01*
X113778732Y-107996746D01*
X113520489Y-108043996D01*
X113260062Y-108089647D01*
X112998645Y-108134318D01*
X112737433Y-108178626D01*
X112477624Y-108223191D01*
X112220410Y-108268630D01*
X111966989Y-108315562D01*
X111718556Y-108364605D01*
X111476305Y-108416376D01*
X111476305Y-108416376D01*
G37*
D11*
X115770000Y-105580000D02*
G75*
G03X115770000Y-105580000I-60000J0D01*
G01*
X116740000Y-105590000D02*
G75*
G03X116740000Y-105590000I-60000J0D01*
G01*
D10*
G36*
X105310443Y-108145519D02*
G01*
X105376627Y-108152037D01*
X105546466Y-108203557D01*
X105702991Y-108287222D01*
X105738729Y-108316552D01*
X105840186Y-108399814D01*
X105922405Y-108500000D01*
X105952778Y-108537009D01*
X106036443Y-108693534D01*
X106087963Y-108863373D01*
X106105359Y-109040000D01*
X106087963Y-109216627D01*
X106036443Y-109386466D01*
X105952778Y-109542991D01*
X105923448Y-109578729D01*
X105840186Y-109680186D01*
X105738729Y-109763448D01*
X105702991Y-109792778D01*
X105546466Y-109876443D01*
X105376627Y-109927963D01*
X105310442Y-109934482D01*
X105244260Y-109941000D01*
X105155740Y-109941000D01*
X105089558Y-109934482D01*
X105023373Y-109927963D01*
X104853534Y-109876443D01*
X104697009Y-109792778D01*
X104661271Y-109763448D01*
X104559814Y-109680186D01*
X104476552Y-109578729D01*
X104447222Y-109542991D01*
X104363557Y-109386466D01*
X104312037Y-109216627D01*
X104294641Y-109040000D01*
X104312037Y-108863373D01*
X104363557Y-108693534D01*
X104447222Y-108537009D01*
X104477595Y-108500000D01*
X104559814Y-108399814D01*
X104661271Y-108316552D01*
X104697009Y-108287222D01*
X104853534Y-108203557D01*
X105023373Y-108152037D01*
X105089557Y-108145519D01*
X105155740Y-108139000D01*
X105244260Y-108139000D01*
X105310443Y-108145519D01*
X105310443Y-108145519D01*
G37*
G36*
X102438855Y-107852140D02*
G01*
X102502618Y-107858420D01*
X102593404Y-107885960D01*
X102625336Y-107895646D01*
X102738425Y-107956094D01*
X102837554Y-108037446D01*
X102918906Y-108136575D01*
X102979354Y-108249664D01*
X102979355Y-108249668D01*
X103016580Y-108372382D01*
X103029149Y-108500000D01*
X103016580Y-108627618D01*
X102989040Y-108718404D01*
X102979354Y-108750336D01*
X102918906Y-108863425D01*
X102837554Y-108962554D01*
X102738425Y-109043906D01*
X102625336Y-109104354D01*
X102593404Y-109114040D01*
X102502618Y-109141580D01*
X102438855Y-109147860D01*
X102406974Y-109151000D01*
X101793026Y-109151000D01*
X101761145Y-109147860D01*
X101697382Y-109141580D01*
X101606596Y-109114040D01*
X101574664Y-109104354D01*
X101461575Y-109043906D01*
X101362446Y-108962554D01*
X101281094Y-108863425D01*
X101220646Y-108750336D01*
X101210960Y-108718404D01*
X101183420Y-108627618D01*
X101170851Y-108500000D01*
X101183420Y-108372382D01*
X101220645Y-108249668D01*
X101220646Y-108249664D01*
X101281094Y-108136575D01*
X101362446Y-108037446D01*
X101461575Y-107956094D01*
X101574664Y-107895646D01*
X101606596Y-107885960D01*
X101697382Y-107858420D01*
X101761145Y-107852140D01*
X101793026Y-107849000D01*
X102406974Y-107849000D01*
X102438855Y-107852140D01*
X102438855Y-107852140D01*
G37*
G36*
X122266242Y-106453404D02*
G01*
X122303337Y-106464657D01*
X122337515Y-106482925D01*
X122367481Y-106507519D01*
X122392075Y-106537485D01*
X122410343Y-106571663D01*
X122421596Y-106608758D01*
X122426000Y-106653474D01*
X122426000Y-107546526D01*
X122421596Y-107591242D01*
X122410343Y-107628337D01*
X122392075Y-107662515D01*
X122367481Y-107692481D01*
X122337515Y-107717075D01*
X122303337Y-107735343D01*
X122266242Y-107746596D01*
X122221526Y-107751000D01*
X120778474Y-107751000D01*
X120733758Y-107746596D01*
X120696663Y-107735343D01*
X120662485Y-107717075D01*
X120632519Y-107692481D01*
X120607925Y-107662515D01*
X120589657Y-107628337D01*
X120578404Y-107591242D01*
X120574000Y-107546526D01*
X120574000Y-106653474D01*
X120578404Y-106608758D01*
X120589657Y-106571663D01*
X120607925Y-106537485D01*
X120632519Y-106507519D01*
X120662485Y-106482925D01*
X120696663Y-106464657D01*
X120733758Y-106453404D01*
X120778474Y-106449000D01*
X122221526Y-106449000D01*
X122266242Y-106453404D01*
X122266242Y-106453404D01*
G37*
G36*
X105310442Y-105605518D02*
G01*
X105376627Y-105612037D01*
X105546466Y-105663557D01*
X105702991Y-105747222D01*
X105707594Y-105751000D01*
X105840186Y-105859814D01*
X105919200Y-105956094D01*
X105952778Y-105997009D01*
X106036443Y-106153534D01*
X106087963Y-106323373D01*
X106105359Y-106500000D01*
X106087963Y-106676627D01*
X106036443Y-106846466D01*
X105952778Y-107002991D01*
X105923448Y-107038729D01*
X105840186Y-107140186D01*
X105738729Y-107223448D01*
X105702991Y-107252778D01*
X105546466Y-107336443D01*
X105376627Y-107387963D01*
X105310442Y-107394482D01*
X105244260Y-107401000D01*
X105155740Y-107401000D01*
X105089558Y-107394482D01*
X105023373Y-107387963D01*
X104853534Y-107336443D01*
X104697009Y-107252778D01*
X104661271Y-107223448D01*
X104559814Y-107140186D01*
X104476552Y-107038729D01*
X104447222Y-107002991D01*
X104363557Y-106846466D01*
X104312037Y-106676627D01*
X104294641Y-106500000D01*
X104312037Y-106323373D01*
X104363557Y-106153534D01*
X104447222Y-105997009D01*
X104480800Y-105956094D01*
X104559814Y-105859814D01*
X104692406Y-105751000D01*
X104697009Y-105747222D01*
X104853534Y-105663557D01*
X105023373Y-105612037D01*
X105089557Y-105605519D01*
X105155740Y-105599000D01*
X105244260Y-105599000D01*
X105310442Y-105605518D01*
X105310442Y-105605518D01*
G37*
G36*
X102438855Y-105852140D02*
G01*
X102502618Y-105858420D01*
X102593404Y-105885960D01*
X102625336Y-105895646D01*
X102738425Y-105956094D01*
X102837554Y-106037446D01*
X102918906Y-106136575D01*
X102979354Y-106249664D01*
X102979355Y-106249668D01*
X103016580Y-106372382D01*
X103029149Y-106500000D01*
X103016580Y-106627618D01*
X103004533Y-106667331D01*
X102979354Y-106750336D01*
X102918906Y-106863425D01*
X102837554Y-106962554D01*
X102738425Y-107043906D01*
X102625336Y-107104354D01*
X102593404Y-107114040D01*
X102502618Y-107141580D01*
X102438855Y-107147860D01*
X102406974Y-107151000D01*
X101793026Y-107151000D01*
X101761145Y-107147860D01*
X101697382Y-107141580D01*
X101606596Y-107114040D01*
X101574664Y-107104354D01*
X101461575Y-107043906D01*
X101362446Y-106962554D01*
X101281094Y-106863425D01*
X101220646Y-106750336D01*
X101195467Y-106667331D01*
X101183420Y-106627618D01*
X101170851Y-106500000D01*
X101183420Y-106372382D01*
X101220645Y-106249668D01*
X101220646Y-106249664D01*
X101281094Y-106136575D01*
X101362446Y-106037446D01*
X101461575Y-105956094D01*
X101574664Y-105895646D01*
X101606596Y-105885960D01*
X101697382Y-105858420D01*
X101761145Y-105852140D01*
X101793026Y-105849000D01*
X102406974Y-105849000D01*
X102438855Y-105852140D01*
X102438855Y-105852140D01*
G37*
G36*
X121838855Y-104452140D02*
G01*
X121902618Y-104458420D01*
X121993404Y-104485960D01*
X122025336Y-104495646D01*
X122138425Y-104556094D01*
X122237554Y-104637446D01*
X122318906Y-104736575D01*
X122379354Y-104849664D01*
X122379355Y-104849668D01*
X122416580Y-104972382D01*
X122429149Y-105100000D01*
X122416580Y-105227618D01*
X122389040Y-105318404D01*
X122379354Y-105350336D01*
X122318906Y-105463425D01*
X122237554Y-105562554D01*
X122138425Y-105643906D01*
X122025336Y-105704354D01*
X121993404Y-105714040D01*
X121902618Y-105741580D01*
X121838855Y-105747860D01*
X121806974Y-105751000D01*
X121193026Y-105751000D01*
X121161145Y-105747860D01*
X121097382Y-105741580D01*
X121006596Y-105714040D01*
X120974664Y-105704354D01*
X120861575Y-105643906D01*
X120762446Y-105562554D01*
X120681094Y-105463425D01*
X120620646Y-105350336D01*
X120610960Y-105318404D01*
X120583420Y-105227618D01*
X120570851Y-105100000D01*
X120583420Y-104972382D01*
X120620645Y-104849668D01*
X120620646Y-104849664D01*
X120681094Y-104736575D01*
X120762446Y-104637446D01*
X120861575Y-104556094D01*
X120974664Y-104495646D01*
X121006596Y-104485960D01*
X121097382Y-104458420D01*
X121161145Y-104452140D01*
X121193026Y-104449000D01*
X121806974Y-104449000D01*
X121838855Y-104452140D01*
X121838855Y-104452140D01*
G37*
G36*
X102866242Y-103853404D02*
G01*
X102903337Y-103864657D01*
X102937515Y-103882925D01*
X102967481Y-103907519D01*
X102992075Y-103937485D01*
X103010343Y-103971663D01*
X103021596Y-104008758D01*
X103026000Y-104053474D01*
X103026000Y-104946526D01*
X103021596Y-104991242D01*
X103010343Y-105028337D01*
X102992075Y-105062515D01*
X102967481Y-105092481D01*
X102937515Y-105117075D01*
X102903337Y-105135343D01*
X102866242Y-105146596D01*
X102821526Y-105151000D01*
X101378474Y-105151000D01*
X101333758Y-105146596D01*
X101296663Y-105135343D01*
X101262485Y-105117075D01*
X101232519Y-105092481D01*
X101207925Y-105062515D01*
X101189657Y-105028337D01*
X101178404Y-104991242D01*
X101174000Y-104946526D01*
X101174000Y-104053474D01*
X101178404Y-104008758D01*
X101189657Y-103971663D01*
X101207925Y-103937485D01*
X101232519Y-103907519D01*
X101262485Y-103882925D01*
X101296663Y-103864657D01*
X101333758Y-103853404D01*
X101378474Y-103849000D01*
X102821526Y-103849000D01*
X102866242Y-103853404D01*
X102866242Y-103853404D01*
G37*
G36*
X106101000Y-104861000D02*
G01*
X104299000Y-104861000D01*
X104299000Y-103059000D01*
X106101000Y-103059000D01*
X106101000Y-104861000D01*
X106101000Y-104861000D01*
G37*
M02*
