G04 #@! TF.GenerationSoftware,KiCad,Pcbnew,(5.1.2)-2*
G04 #@! TF.CreationDate,2019-09-09T17:29:24+02:00*
G04 #@! TF.ProjectId,solenoid-board,736f6c65-6e6f-4696-942d-626f6172642e,rev?*
G04 #@! TF.SameCoordinates,Original*
G04 #@! TF.FileFunction,Copper,L2,Bot*
G04 #@! TF.FilePolarity,Positive*
%FSLAX46Y46*%
G04 Gerber Fmt 4.6, Leading zero omitted, Abs format (unit mm)*
G04 Created by KiCad (PCBNEW (5.1.2)-2) date 2019-09-09 17:29:24*
%MOMM*%
%LPD*%
G04 APERTURE LIST*
%ADD10C,0.100000*%
%ADD11C,1.200000*%
%ADD12O,1.750000X1.200000*%
%ADD13R,1.700000X1.700000*%
%ADD14O,1.700000X1.700000*%
%ADD15C,0.254000*%
G04 APERTURE END LIST*
D10*
G36*
X102749505Y-103901204D02*
G01*
X102773773Y-103904804D01*
X102797572Y-103910765D01*
X102820671Y-103919030D01*
X102842850Y-103929520D01*
X102863893Y-103942132D01*
X102883599Y-103956747D01*
X102901777Y-103973223D01*
X102918253Y-103991401D01*
X102932868Y-104011107D01*
X102945480Y-104032150D01*
X102955970Y-104054329D01*
X102964235Y-104077428D01*
X102970196Y-104101227D01*
X102973796Y-104125495D01*
X102975000Y-104149999D01*
X102975000Y-104850001D01*
X102973796Y-104874505D01*
X102970196Y-104898773D01*
X102964235Y-104922572D01*
X102955970Y-104945671D01*
X102945480Y-104967850D01*
X102932868Y-104988893D01*
X102918253Y-105008599D01*
X102901777Y-105026777D01*
X102883599Y-105043253D01*
X102863893Y-105057868D01*
X102842850Y-105070480D01*
X102820671Y-105080970D01*
X102797572Y-105089235D01*
X102773773Y-105095196D01*
X102749505Y-105098796D01*
X102725001Y-105100000D01*
X101474999Y-105100000D01*
X101450495Y-105098796D01*
X101426227Y-105095196D01*
X101402428Y-105089235D01*
X101379329Y-105080970D01*
X101357150Y-105070480D01*
X101336107Y-105057868D01*
X101316401Y-105043253D01*
X101298223Y-105026777D01*
X101281747Y-105008599D01*
X101267132Y-104988893D01*
X101254520Y-104967850D01*
X101244030Y-104945671D01*
X101235765Y-104922572D01*
X101229804Y-104898773D01*
X101226204Y-104874505D01*
X101225000Y-104850001D01*
X101225000Y-104149999D01*
X101226204Y-104125495D01*
X101229804Y-104101227D01*
X101235765Y-104077428D01*
X101244030Y-104054329D01*
X101254520Y-104032150D01*
X101267132Y-104011107D01*
X101281747Y-103991401D01*
X101298223Y-103973223D01*
X101316401Y-103956747D01*
X101336107Y-103942132D01*
X101357150Y-103929520D01*
X101379329Y-103919030D01*
X101402428Y-103910765D01*
X101426227Y-103904804D01*
X101450495Y-103901204D01*
X101474999Y-103900000D01*
X102725001Y-103900000D01*
X102749505Y-103901204D01*
X102749505Y-103901204D01*
G37*
D11*
X102100000Y-104500000D03*
D12*
X102100000Y-106500000D03*
X102100000Y-108500000D03*
D10*
G36*
X122149505Y-106501204D02*
G01*
X122173773Y-106504804D01*
X122197572Y-106510765D01*
X122220671Y-106519030D01*
X122242850Y-106529520D01*
X122263893Y-106542132D01*
X122283599Y-106556747D01*
X122301777Y-106573223D01*
X122318253Y-106591401D01*
X122332868Y-106611107D01*
X122345480Y-106632150D01*
X122355970Y-106654329D01*
X122364235Y-106677428D01*
X122370196Y-106701227D01*
X122373796Y-106725495D01*
X122375000Y-106749999D01*
X122375000Y-107450001D01*
X122373796Y-107474505D01*
X122370196Y-107498773D01*
X122364235Y-107522572D01*
X122355970Y-107545671D01*
X122345480Y-107567850D01*
X122332868Y-107588893D01*
X122318253Y-107608599D01*
X122301777Y-107626777D01*
X122283599Y-107643253D01*
X122263893Y-107657868D01*
X122242850Y-107670480D01*
X122220671Y-107680970D01*
X122197572Y-107689235D01*
X122173773Y-107695196D01*
X122149505Y-107698796D01*
X122125001Y-107700000D01*
X120874999Y-107700000D01*
X120850495Y-107698796D01*
X120826227Y-107695196D01*
X120802428Y-107689235D01*
X120779329Y-107680970D01*
X120757150Y-107670480D01*
X120736107Y-107657868D01*
X120716401Y-107643253D01*
X120698223Y-107626777D01*
X120681747Y-107608599D01*
X120667132Y-107588893D01*
X120654520Y-107567850D01*
X120644030Y-107545671D01*
X120635765Y-107522572D01*
X120629804Y-107498773D01*
X120626204Y-107474505D01*
X120625000Y-107450001D01*
X120625000Y-106749999D01*
X120626204Y-106725495D01*
X120629804Y-106701227D01*
X120635765Y-106677428D01*
X120644030Y-106654329D01*
X120654520Y-106632150D01*
X120667132Y-106611107D01*
X120681747Y-106591401D01*
X120698223Y-106573223D01*
X120716401Y-106556747D01*
X120736107Y-106542132D01*
X120757150Y-106529520D01*
X120779329Y-106519030D01*
X120802428Y-106510765D01*
X120826227Y-106504804D01*
X120850495Y-106501204D01*
X120874999Y-106500000D01*
X122125001Y-106500000D01*
X122149505Y-106501204D01*
X122149505Y-106501204D01*
G37*
D11*
X121500000Y-107100000D03*
D12*
X121500000Y-105100000D03*
D13*
X105200000Y-103960000D03*
D14*
X105200000Y-106500000D03*
X105200000Y-109040000D03*
D15*
G36*
X127090000Y-111090000D02*
G01*
X96660000Y-111090000D01*
X96660000Y-106500000D01*
X100584025Y-106500000D01*
X100607870Y-106742102D01*
X100678489Y-106974901D01*
X100793167Y-107189449D01*
X100947498Y-107377502D01*
X101096762Y-107500000D01*
X100947498Y-107622498D01*
X100793167Y-107810551D01*
X100678489Y-108025099D01*
X100607870Y-108257898D01*
X100584025Y-108500000D01*
X100607870Y-108742102D01*
X100678489Y-108974901D01*
X100793167Y-109189449D01*
X100947498Y-109377502D01*
X101135551Y-109531833D01*
X101350099Y-109646511D01*
X101582898Y-109717130D01*
X101764335Y-109735000D01*
X102435665Y-109735000D01*
X102617102Y-109717130D01*
X102849901Y-109646511D01*
X103064449Y-109531833D01*
X103252502Y-109377502D01*
X103406833Y-109189449D01*
X103521511Y-108974901D01*
X103592130Y-108742102D01*
X103615975Y-108500000D01*
X103592130Y-108257898D01*
X103521511Y-108025099D01*
X103406833Y-107810551D01*
X103252502Y-107622498D01*
X103103238Y-107500000D01*
X103252502Y-107377502D01*
X103406833Y-107189449D01*
X103521511Y-106974901D01*
X103592130Y-106742102D01*
X103615975Y-106500000D01*
X103707815Y-106500000D01*
X103736487Y-106791111D01*
X103821401Y-107071034D01*
X103959294Y-107329014D01*
X104144866Y-107555134D01*
X104370986Y-107740706D01*
X104425791Y-107770000D01*
X104370986Y-107799294D01*
X104144866Y-107984866D01*
X103959294Y-108210986D01*
X103821401Y-108468966D01*
X103736487Y-108748889D01*
X103707815Y-109040000D01*
X103736487Y-109331111D01*
X103821401Y-109611034D01*
X103959294Y-109869014D01*
X104144866Y-110095134D01*
X104370986Y-110280706D01*
X104628966Y-110418599D01*
X104908889Y-110503513D01*
X105127050Y-110525000D01*
X105272950Y-110525000D01*
X105491111Y-110503513D01*
X105771034Y-110418599D01*
X106029014Y-110280706D01*
X106255134Y-110095134D01*
X106440706Y-109869014D01*
X106578599Y-109611034D01*
X106663513Y-109331111D01*
X106692185Y-109040000D01*
X106663513Y-108748889D01*
X106578599Y-108468966D01*
X106440706Y-108210986D01*
X106255134Y-107984866D01*
X106029014Y-107799294D01*
X105974209Y-107770000D01*
X106029014Y-107740706D01*
X106255134Y-107555134D01*
X106440706Y-107329014D01*
X106578599Y-107071034D01*
X106663513Y-106791111D01*
X106692185Y-106500000D01*
X106663513Y-106208889D01*
X106578599Y-105928966D01*
X106440706Y-105670986D01*
X106255134Y-105444866D01*
X106225313Y-105420393D01*
X106294180Y-105399502D01*
X106404494Y-105340537D01*
X106501185Y-105261185D01*
X106580537Y-105164494D01*
X106615010Y-105100000D01*
X119984025Y-105100000D01*
X120007870Y-105342102D01*
X120078489Y-105574901D01*
X120193167Y-105789449D01*
X120347498Y-105977502D01*
X120386111Y-106009191D01*
X120381613Y-106011595D01*
X120247038Y-106122038D01*
X120136595Y-106256613D01*
X120054528Y-106410149D01*
X120003992Y-106576745D01*
X119986928Y-106749999D01*
X119986928Y-107450001D01*
X120003992Y-107623255D01*
X120054528Y-107789851D01*
X120136595Y-107943387D01*
X120247038Y-108077962D01*
X120381613Y-108188405D01*
X120535149Y-108270472D01*
X120701745Y-108321008D01*
X120874999Y-108338072D01*
X122125001Y-108338072D01*
X122298255Y-108321008D01*
X122464851Y-108270472D01*
X122618387Y-108188405D01*
X122752962Y-108077962D01*
X122863405Y-107943387D01*
X122945472Y-107789851D01*
X122996008Y-107623255D01*
X123013072Y-107450001D01*
X123013072Y-106749999D01*
X122996008Y-106576745D01*
X122945472Y-106410149D01*
X122863405Y-106256613D01*
X122752962Y-106122038D01*
X122618387Y-106011595D01*
X122613889Y-106009191D01*
X122652502Y-105977502D01*
X122806833Y-105789449D01*
X122921511Y-105574901D01*
X122992130Y-105342102D01*
X123015975Y-105100000D01*
X122992130Y-104857898D01*
X122921511Y-104625099D01*
X122806833Y-104410551D01*
X122652502Y-104222498D01*
X122464449Y-104068167D01*
X122249901Y-103953489D01*
X122017102Y-103882870D01*
X121835665Y-103865000D01*
X121164335Y-103865000D01*
X120982898Y-103882870D01*
X120750099Y-103953489D01*
X120535551Y-104068167D01*
X120347498Y-104222498D01*
X120193167Y-104410551D01*
X120078489Y-104625099D01*
X120007870Y-104857898D01*
X119984025Y-105100000D01*
X106615010Y-105100000D01*
X106639502Y-105054180D01*
X106675812Y-104934482D01*
X106688072Y-104810000D01*
X106685000Y-104245750D01*
X106526250Y-104087000D01*
X105327000Y-104087000D01*
X105327000Y-104107000D01*
X105073000Y-104107000D01*
X105073000Y-104087000D01*
X103873750Y-104087000D01*
X103715000Y-104245750D01*
X103711928Y-104810000D01*
X103724188Y-104934482D01*
X103760498Y-105054180D01*
X103819463Y-105164494D01*
X103898815Y-105261185D01*
X103995506Y-105340537D01*
X104105820Y-105399502D01*
X104174687Y-105420393D01*
X104144866Y-105444866D01*
X103959294Y-105670986D01*
X103821401Y-105928966D01*
X103736487Y-106208889D01*
X103707815Y-106500000D01*
X103615975Y-106500000D01*
X103592130Y-106257898D01*
X103521511Y-106025099D01*
X103406833Y-105810551D01*
X103280564Y-105656691D01*
X103329494Y-105630537D01*
X103426185Y-105551185D01*
X103505537Y-105454494D01*
X103564502Y-105344180D01*
X103600812Y-105224482D01*
X103613072Y-105100000D01*
X103610000Y-104785750D01*
X103451250Y-104627000D01*
X102227000Y-104627000D01*
X102227000Y-104647000D01*
X101973000Y-104647000D01*
X101973000Y-104627000D01*
X100748750Y-104627000D01*
X100590000Y-104785750D01*
X100586928Y-105100000D01*
X100599188Y-105224482D01*
X100635498Y-105344180D01*
X100694463Y-105454494D01*
X100773815Y-105551185D01*
X100870506Y-105630537D01*
X100919436Y-105656691D01*
X100793167Y-105810551D01*
X100678489Y-106025099D01*
X100607870Y-106257898D01*
X100584025Y-106500000D01*
X96660000Y-106500000D01*
X96660000Y-103900000D01*
X100586928Y-103900000D01*
X100590000Y-104214250D01*
X100748750Y-104373000D01*
X101973000Y-104373000D01*
X101973000Y-103423750D01*
X102227000Y-103423750D01*
X102227000Y-104373000D01*
X103451250Y-104373000D01*
X103610000Y-104214250D01*
X103613072Y-103900000D01*
X103600812Y-103775518D01*
X103564502Y-103655820D01*
X103505537Y-103545506D01*
X103426185Y-103448815D01*
X103329494Y-103369463D01*
X103219180Y-103310498D01*
X103099482Y-103274188D01*
X102975000Y-103261928D01*
X102385750Y-103265000D01*
X102227000Y-103423750D01*
X101973000Y-103423750D01*
X101814250Y-103265000D01*
X101225000Y-103261928D01*
X101100518Y-103274188D01*
X100980820Y-103310498D01*
X100870506Y-103369463D01*
X100773815Y-103448815D01*
X100694463Y-103545506D01*
X100635498Y-103655820D01*
X100599188Y-103775518D01*
X100586928Y-103900000D01*
X96660000Y-103900000D01*
X96660000Y-103110000D01*
X103711928Y-103110000D01*
X103715000Y-103674250D01*
X103873750Y-103833000D01*
X105073000Y-103833000D01*
X105073000Y-102633750D01*
X105327000Y-102633750D01*
X105327000Y-103833000D01*
X106526250Y-103833000D01*
X106685000Y-103674250D01*
X106688072Y-103110000D01*
X106675812Y-102985518D01*
X106639502Y-102865820D01*
X106580537Y-102755506D01*
X106501185Y-102658815D01*
X106404494Y-102579463D01*
X106294180Y-102520498D01*
X106174482Y-102484188D01*
X106050000Y-102471928D01*
X105485750Y-102475000D01*
X105327000Y-102633750D01*
X105073000Y-102633750D01*
X104914250Y-102475000D01*
X104350000Y-102471928D01*
X104225518Y-102484188D01*
X104105820Y-102520498D01*
X103995506Y-102579463D01*
X103898815Y-102658815D01*
X103819463Y-102755506D01*
X103760498Y-102865820D01*
X103724188Y-102985518D01*
X103711928Y-103110000D01*
X96660000Y-103110000D01*
X96660000Y-101910000D01*
X127090001Y-101910000D01*
X127090000Y-111090000D01*
X127090000Y-111090000D01*
G37*
X127090000Y-111090000D02*
X96660000Y-111090000D01*
X96660000Y-106500000D01*
X100584025Y-106500000D01*
X100607870Y-106742102D01*
X100678489Y-106974901D01*
X100793167Y-107189449D01*
X100947498Y-107377502D01*
X101096762Y-107500000D01*
X100947498Y-107622498D01*
X100793167Y-107810551D01*
X100678489Y-108025099D01*
X100607870Y-108257898D01*
X100584025Y-108500000D01*
X100607870Y-108742102D01*
X100678489Y-108974901D01*
X100793167Y-109189449D01*
X100947498Y-109377502D01*
X101135551Y-109531833D01*
X101350099Y-109646511D01*
X101582898Y-109717130D01*
X101764335Y-109735000D01*
X102435665Y-109735000D01*
X102617102Y-109717130D01*
X102849901Y-109646511D01*
X103064449Y-109531833D01*
X103252502Y-109377502D01*
X103406833Y-109189449D01*
X103521511Y-108974901D01*
X103592130Y-108742102D01*
X103615975Y-108500000D01*
X103592130Y-108257898D01*
X103521511Y-108025099D01*
X103406833Y-107810551D01*
X103252502Y-107622498D01*
X103103238Y-107500000D01*
X103252502Y-107377502D01*
X103406833Y-107189449D01*
X103521511Y-106974901D01*
X103592130Y-106742102D01*
X103615975Y-106500000D01*
X103707815Y-106500000D01*
X103736487Y-106791111D01*
X103821401Y-107071034D01*
X103959294Y-107329014D01*
X104144866Y-107555134D01*
X104370986Y-107740706D01*
X104425791Y-107770000D01*
X104370986Y-107799294D01*
X104144866Y-107984866D01*
X103959294Y-108210986D01*
X103821401Y-108468966D01*
X103736487Y-108748889D01*
X103707815Y-109040000D01*
X103736487Y-109331111D01*
X103821401Y-109611034D01*
X103959294Y-109869014D01*
X104144866Y-110095134D01*
X104370986Y-110280706D01*
X104628966Y-110418599D01*
X104908889Y-110503513D01*
X105127050Y-110525000D01*
X105272950Y-110525000D01*
X105491111Y-110503513D01*
X105771034Y-110418599D01*
X106029014Y-110280706D01*
X106255134Y-110095134D01*
X106440706Y-109869014D01*
X106578599Y-109611034D01*
X106663513Y-109331111D01*
X106692185Y-109040000D01*
X106663513Y-108748889D01*
X106578599Y-108468966D01*
X106440706Y-108210986D01*
X106255134Y-107984866D01*
X106029014Y-107799294D01*
X105974209Y-107770000D01*
X106029014Y-107740706D01*
X106255134Y-107555134D01*
X106440706Y-107329014D01*
X106578599Y-107071034D01*
X106663513Y-106791111D01*
X106692185Y-106500000D01*
X106663513Y-106208889D01*
X106578599Y-105928966D01*
X106440706Y-105670986D01*
X106255134Y-105444866D01*
X106225313Y-105420393D01*
X106294180Y-105399502D01*
X106404494Y-105340537D01*
X106501185Y-105261185D01*
X106580537Y-105164494D01*
X106615010Y-105100000D01*
X119984025Y-105100000D01*
X120007870Y-105342102D01*
X120078489Y-105574901D01*
X120193167Y-105789449D01*
X120347498Y-105977502D01*
X120386111Y-106009191D01*
X120381613Y-106011595D01*
X120247038Y-106122038D01*
X120136595Y-106256613D01*
X120054528Y-106410149D01*
X120003992Y-106576745D01*
X119986928Y-106749999D01*
X119986928Y-107450001D01*
X120003992Y-107623255D01*
X120054528Y-107789851D01*
X120136595Y-107943387D01*
X120247038Y-108077962D01*
X120381613Y-108188405D01*
X120535149Y-108270472D01*
X120701745Y-108321008D01*
X120874999Y-108338072D01*
X122125001Y-108338072D01*
X122298255Y-108321008D01*
X122464851Y-108270472D01*
X122618387Y-108188405D01*
X122752962Y-108077962D01*
X122863405Y-107943387D01*
X122945472Y-107789851D01*
X122996008Y-107623255D01*
X123013072Y-107450001D01*
X123013072Y-106749999D01*
X122996008Y-106576745D01*
X122945472Y-106410149D01*
X122863405Y-106256613D01*
X122752962Y-106122038D01*
X122618387Y-106011595D01*
X122613889Y-106009191D01*
X122652502Y-105977502D01*
X122806833Y-105789449D01*
X122921511Y-105574901D01*
X122992130Y-105342102D01*
X123015975Y-105100000D01*
X122992130Y-104857898D01*
X122921511Y-104625099D01*
X122806833Y-104410551D01*
X122652502Y-104222498D01*
X122464449Y-104068167D01*
X122249901Y-103953489D01*
X122017102Y-103882870D01*
X121835665Y-103865000D01*
X121164335Y-103865000D01*
X120982898Y-103882870D01*
X120750099Y-103953489D01*
X120535551Y-104068167D01*
X120347498Y-104222498D01*
X120193167Y-104410551D01*
X120078489Y-104625099D01*
X120007870Y-104857898D01*
X119984025Y-105100000D01*
X106615010Y-105100000D01*
X106639502Y-105054180D01*
X106675812Y-104934482D01*
X106688072Y-104810000D01*
X106685000Y-104245750D01*
X106526250Y-104087000D01*
X105327000Y-104087000D01*
X105327000Y-104107000D01*
X105073000Y-104107000D01*
X105073000Y-104087000D01*
X103873750Y-104087000D01*
X103715000Y-104245750D01*
X103711928Y-104810000D01*
X103724188Y-104934482D01*
X103760498Y-105054180D01*
X103819463Y-105164494D01*
X103898815Y-105261185D01*
X103995506Y-105340537D01*
X104105820Y-105399502D01*
X104174687Y-105420393D01*
X104144866Y-105444866D01*
X103959294Y-105670986D01*
X103821401Y-105928966D01*
X103736487Y-106208889D01*
X103707815Y-106500000D01*
X103615975Y-106500000D01*
X103592130Y-106257898D01*
X103521511Y-106025099D01*
X103406833Y-105810551D01*
X103280564Y-105656691D01*
X103329494Y-105630537D01*
X103426185Y-105551185D01*
X103505537Y-105454494D01*
X103564502Y-105344180D01*
X103600812Y-105224482D01*
X103613072Y-105100000D01*
X103610000Y-104785750D01*
X103451250Y-104627000D01*
X102227000Y-104627000D01*
X102227000Y-104647000D01*
X101973000Y-104647000D01*
X101973000Y-104627000D01*
X100748750Y-104627000D01*
X100590000Y-104785750D01*
X100586928Y-105100000D01*
X100599188Y-105224482D01*
X100635498Y-105344180D01*
X100694463Y-105454494D01*
X100773815Y-105551185D01*
X100870506Y-105630537D01*
X100919436Y-105656691D01*
X100793167Y-105810551D01*
X100678489Y-106025099D01*
X100607870Y-106257898D01*
X100584025Y-106500000D01*
X96660000Y-106500000D01*
X96660000Y-103900000D01*
X100586928Y-103900000D01*
X100590000Y-104214250D01*
X100748750Y-104373000D01*
X101973000Y-104373000D01*
X101973000Y-103423750D01*
X102227000Y-103423750D01*
X102227000Y-104373000D01*
X103451250Y-104373000D01*
X103610000Y-104214250D01*
X103613072Y-103900000D01*
X103600812Y-103775518D01*
X103564502Y-103655820D01*
X103505537Y-103545506D01*
X103426185Y-103448815D01*
X103329494Y-103369463D01*
X103219180Y-103310498D01*
X103099482Y-103274188D01*
X102975000Y-103261928D01*
X102385750Y-103265000D01*
X102227000Y-103423750D01*
X101973000Y-103423750D01*
X101814250Y-103265000D01*
X101225000Y-103261928D01*
X101100518Y-103274188D01*
X100980820Y-103310498D01*
X100870506Y-103369463D01*
X100773815Y-103448815D01*
X100694463Y-103545506D01*
X100635498Y-103655820D01*
X100599188Y-103775518D01*
X100586928Y-103900000D01*
X96660000Y-103900000D01*
X96660000Y-103110000D01*
X103711928Y-103110000D01*
X103715000Y-103674250D01*
X103873750Y-103833000D01*
X105073000Y-103833000D01*
X105073000Y-102633750D01*
X105327000Y-102633750D01*
X105327000Y-103833000D01*
X106526250Y-103833000D01*
X106685000Y-103674250D01*
X106688072Y-103110000D01*
X106675812Y-102985518D01*
X106639502Y-102865820D01*
X106580537Y-102755506D01*
X106501185Y-102658815D01*
X106404494Y-102579463D01*
X106294180Y-102520498D01*
X106174482Y-102484188D01*
X106050000Y-102471928D01*
X105485750Y-102475000D01*
X105327000Y-102633750D01*
X105073000Y-102633750D01*
X104914250Y-102475000D01*
X104350000Y-102471928D01*
X104225518Y-102484188D01*
X104105820Y-102520498D01*
X103995506Y-102579463D01*
X103898815Y-102658815D01*
X103819463Y-102755506D01*
X103760498Y-102865820D01*
X103724188Y-102985518D01*
X103711928Y-103110000D01*
X96660000Y-103110000D01*
X96660000Y-101910000D01*
X127090001Y-101910000D01*
X127090000Y-111090000D01*
M02*
