G04 #@! TF.GenerationSoftware,KiCad,Pcbnew,(5.1.2)-2*
G04 #@! TF.CreationDate,2019-09-09T17:29:24+02:00*
G04 #@! TF.ProjectId,solenoid-board,736f6c65-6e6f-4696-942d-626f6172642e,rev?*
G04 #@! TF.SameCoordinates,Original*
G04 #@! TF.FileFunction,Copper,L1,Top*
G04 #@! TF.FilePolarity,Positive*
%FSLAX46Y46*%
G04 Gerber Fmt 4.6, Leading zero omitted, Abs format (unit mm)*
G04 Created by KiCad (PCBNEW (5.1.2)-2) date 2019-09-09 17:29:24*
%MOMM*%
%LPD*%
G04 APERTURE LIST*
%ADD10C,0.100000*%
%ADD11C,1.600000*%
%ADD12R,1.100000X1.100000*%
%ADD13C,1.200000*%
%ADD14O,1.750000X1.200000*%
%ADD15R,0.800000X1.900000*%
%ADD16C,0.950000*%
%ADD17R,1.700000X1.700000*%
%ADD18O,1.700000X1.700000*%
%ADD19C,0.600000*%
%ADD20C,0.800000*%
%ADD21C,1.000000*%
%ADD22C,0.400000*%
%ADD23C,0.254000*%
G04 APERTURE END LIST*
D10*
G36*
X114374504Y-107551204D02*
G01*
X114398773Y-107554804D01*
X114422571Y-107560765D01*
X114445671Y-107569030D01*
X114467849Y-107579520D01*
X114488893Y-107592133D01*
X114508598Y-107606747D01*
X114526777Y-107623223D01*
X114543253Y-107641402D01*
X114557867Y-107661107D01*
X114570480Y-107682151D01*
X114580970Y-107704329D01*
X114589235Y-107727429D01*
X114595196Y-107751227D01*
X114598796Y-107775496D01*
X114600000Y-107800000D01*
X114600000Y-110800000D01*
X114598796Y-110824504D01*
X114595196Y-110848773D01*
X114589235Y-110872571D01*
X114580970Y-110895671D01*
X114570480Y-110917849D01*
X114557867Y-110938893D01*
X114543253Y-110958598D01*
X114526777Y-110976777D01*
X114508598Y-110993253D01*
X114488893Y-111007867D01*
X114467849Y-111020480D01*
X114445671Y-111030970D01*
X114422571Y-111039235D01*
X114398773Y-111045196D01*
X114374504Y-111048796D01*
X114350000Y-111050000D01*
X113250000Y-111050000D01*
X113225496Y-111048796D01*
X113201227Y-111045196D01*
X113177429Y-111039235D01*
X113154329Y-111030970D01*
X113132151Y-111020480D01*
X113111107Y-111007867D01*
X113091402Y-110993253D01*
X113073223Y-110976777D01*
X113056747Y-110958598D01*
X113042133Y-110938893D01*
X113029520Y-110917849D01*
X113019030Y-110895671D01*
X113010765Y-110872571D01*
X113004804Y-110848773D01*
X113001204Y-110824504D01*
X113000000Y-110800000D01*
X113000000Y-107800000D01*
X113001204Y-107775496D01*
X113004804Y-107751227D01*
X113010765Y-107727429D01*
X113019030Y-107704329D01*
X113029520Y-107682151D01*
X113042133Y-107661107D01*
X113056747Y-107641402D01*
X113073223Y-107623223D01*
X113091402Y-107606747D01*
X113111107Y-107592133D01*
X113132151Y-107579520D01*
X113154329Y-107569030D01*
X113177429Y-107560765D01*
X113201227Y-107554804D01*
X113225496Y-107551204D01*
X113250000Y-107550000D01*
X114350000Y-107550000D01*
X114374504Y-107551204D01*
X114374504Y-107551204D01*
G37*
D11*
X113800000Y-109300000D03*
D10*
G36*
X114374504Y-101951204D02*
G01*
X114398773Y-101954804D01*
X114422571Y-101960765D01*
X114445671Y-101969030D01*
X114467849Y-101979520D01*
X114488893Y-101992133D01*
X114508598Y-102006747D01*
X114526777Y-102023223D01*
X114543253Y-102041402D01*
X114557867Y-102061107D01*
X114570480Y-102082151D01*
X114580970Y-102104329D01*
X114589235Y-102127429D01*
X114595196Y-102151227D01*
X114598796Y-102175496D01*
X114600000Y-102200000D01*
X114600000Y-105200000D01*
X114598796Y-105224504D01*
X114595196Y-105248773D01*
X114589235Y-105272571D01*
X114580970Y-105295671D01*
X114570480Y-105317849D01*
X114557867Y-105338893D01*
X114543253Y-105358598D01*
X114526777Y-105376777D01*
X114508598Y-105393253D01*
X114488893Y-105407867D01*
X114467849Y-105420480D01*
X114445671Y-105430970D01*
X114422571Y-105439235D01*
X114398773Y-105445196D01*
X114374504Y-105448796D01*
X114350000Y-105450000D01*
X113250000Y-105450000D01*
X113225496Y-105448796D01*
X113201227Y-105445196D01*
X113177429Y-105439235D01*
X113154329Y-105430970D01*
X113132151Y-105420480D01*
X113111107Y-105407867D01*
X113091402Y-105393253D01*
X113073223Y-105376777D01*
X113056747Y-105358598D01*
X113042133Y-105338893D01*
X113029520Y-105317849D01*
X113019030Y-105295671D01*
X113010765Y-105272571D01*
X113004804Y-105248773D01*
X113001204Y-105224504D01*
X113000000Y-105200000D01*
X113000000Y-102200000D01*
X113001204Y-102175496D01*
X113004804Y-102151227D01*
X113010765Y-102127429D01*
X113019030Y-102104329D01*
X113029520Y-102082151D01*
X113042133Y-102061107D01*
X113056747Y-102041402D01*
X113073223Y-102023223D01*
X113091402Y-102006747D01*
X113111107Y-101992133D01*
X113132151Y-101979520D01*
X113154329Y-101969030D01*
X113177429Y-101960765D01*
X113201227Y-101954804D01*
X113225496Y-101951204D01*
X113250000Y-101950000D01*
X114350000Y-101950000D01*
X114374504Y-101951204D01*
X114374504Y-101951204D01*
G37*
D11*
X113800000Y-103700000D03*
D12*
X118600000Y-107600000D03*
X118600000Y-104800000D03*
D10*
G36*
X102749505Y-103901204D02*
G01*
X102773773Y-103904804D01*
X102797572Y-103910765D01*
X102820671Y-103919030D01*
X102842850Y-103929520D01*
X102863893Y-103942132D01*
X102883599Y-103956747D01*
X102901777Y-103973223D01*
X102918253Y-103991401D01*
X102932868Y-104011107D01*
X102945480Y-104032150D01*
X102955970Y-104054329D01*
X102964235Y-104077428D01*
X102970196Y-104101227D01*
X102973796Y-104125495D01*
X102975000Y-104149999D01*
X102975000Y-104850001D01*
X102973796Y-104874505D01*
X102970196Y-104898773D01*
X102964235Y-104922572D01*
X102955970Y-104945671D01*
X102945480Y-104967850D01*
X102932868Y-104988893D01*
X102918253Y-105008599D01*
X102901777Y-105026777D01*
X102883599Y-105043253D01*
X102863893Y-105057868D01*
X102842850Y-105070480D01*
X102820671Y-105080970D01*
X102797572Y-105089235D01*
X102773773Y-105095196D01*
X102749505Y-105098796D01*
X102725001Y-105100000D01*
X101474999Y-105100000D01*
X101450495Y-105098796D01*
X101426227Y-105095196D01*
X101402428Y-105089235D01*
X101379329Y-105080970D01*
X101357150Y-105070480D01*
X101336107Y-105057868D01*
X101316401Y-105043253D01*
X101298223Y-105026777D01*
X101281747Y-105008599D01*
X101267132Y-104988893D01*
X101254520Y-104967850D01*
X101244030Y-104945671D01*
X101235765Y-104922572D01*
X101229804Y-104898773D01*
X101226204Y-104874505D01*
X101225000Y-104850001D01*
X101225000Y-104149999D01*
X101226204Y-104125495D01*
X101229804Y-104101227D01*
X101235765Y-104077428D01*
X101244030Y-104054329D01*
X101254520Y-104032150D01*
X101267132Y-104011107D01*
X101281747Y-103991401D01*
X101298223Y-103973223D01*
X101316401Y-103956747D01*
X101336107Y-103942132D01*
X101357150Y-103929520D01*
X101379329Y-103919030D01*
X101402428Y-103910765D01*
X101426227Y-103904804D01*
X101450495Y-103901204D01*
X101474999Y-103900000D01*
X102725001Y-103900000D01*
X102749505Y-103901204D01*
X102749505Y-103901204D01*
G37*
D13*
X102100000Y-104500000D03*
D14*
X102100000Y-106500000D03*
X102100000Y-108500000D03*
D10*
G36*
X122149505Y-106501204D02*
G01*
X122173773Y-106504804D01*
X122197572Y-106510765D01*
X122220671Y-106519030D01*
X122242850Y-106529520D01*
X122263893Y-106542132D01*
X122283599Y-106556747D01*
X122301777Y-106573223D01*
X122318253Y-106591401D01*
X122332868Y-106611107D01*
X122345480Y-106632150D01*
X122355970Y-106654329D01*
X122364235Y-106677428D01*
X122370196Y-106701227D01*
X122373796Y-106725495D01*
X122375000Y-106749999D01*
X122375000Y-107450001D01*
X122373796Y-107474505D01*
X122370196Y-107498773D01*
X122364235Y-107522572D01*
X122355970Y-107545671D01*
X122345480Y-107567850D01*
X122332868Y-107588893D01*
X122318253Y-107608599D01*
X122301777Y-107626777D01*
X122283599Y-107643253D01*
X122263893Y-107657868D01*
X122242850Y-107670480D01*
X122220671Y-107680970D01*
X122197572Y-107689235D01*
X122173773Y-107695196D01*
X122149505Y-107698796D01*
X122125001Y-107700000D01*
X120874999Y-107700000D01*
X120850495Y-107698796D01*
X120826227Y-107695196D01*
X120802428Y-107689235D01*
X120779329Y-107680970D01*
X120757150Y-107670480D01*
X120736107Y-107657868D01*
X120716401Y-107643253D01*
X120698223Y-107626777D01*
X120681747Y-107608599D01*
X120667132Y-107588893D01*
X120654520Y-107567850D01*
X120644030Y-107545671D01*
X120635765Y-107522572D01*
X120629804Y-107498773D01*
X120626204Y-107474505D01*
X120625000Y-107450001D01*
X120625000Y-106749999D01*
X120626204Y-106725495D01*
X120629804Y-106701227D01*
X120635765Y-106677428D01*
X120644030Y-106654329D01*
X120654520Y-106632150D01*
X120667132Y-106611107D01*
X120681747Y-106591401D01*
X120698223Y-106573223D01*
X120716401Y-106556747D01*
X120736107Y-106542132D01*
X120757150Y-106529520D01*
X120779329Y-106519030D01*
X120802428Y-106510765D01*
X120826227Y-106504804D01*
X120850495Y-106501204D01*
X120874999Y-106500000D01*
X122125001Y-106500000D01*
X122149505Y-106501204D01*
X122149505Y-106501204D01*
G37*
D13*
X121500000Y-107100000D03*
D14*
X121500000Y-105100000D03*
D15*
X107350000Y-107000000D03*
X109250000Y-107000000D03*
X108300000Y-104000000D03*
D10*
G36*
X109885779Y-109626144D02*
G01*
X109908834Y-109629563D01*
X109931443Y-109635227D01*
X109953387Y-109643079D01*
X109974457Y-109653044D01*
X109994448Y-109665026D01*
X110013168Y-109678910D01*
X110030438Y-109694562D01*
X110046090Y-109711832D01*
X110059974Y-109730552D01*
X110071956Y-109750543D01*
X110081921Y-109771613D01*
X110089773Y-109793557D01*
X110095437Y-109816166D01*
X110098856Y-109839221D01*
X110100000Y-109862500D01*
X110100000Y-110337500D01*
X110098856Y-110360779D01*
X110095437Y-110383834D01*
X110089773Y-110406443D01*
X110081921Y-110428387D01*
X110071956Y-110449457D01*
X110059974Y-110469448D01*
X110046090Y-110488168D01*
X110030438Y-110505438D01*
X110013168Y-110521090D01*
X109994448Y-110534974D01*
X109974457Y-110546956D01*
X109953387Y-110556921D01*
X109931443Y-110564773D01*
X109908834Y-110570437D01*
X109885779Y-110573856D01*
X109862500Y-110575000D01*
X109287500Y-110575000D01*
X109264221Y-110573856D01*
X109241166Y-110570437D01*
X109218557Y-110564773D01*
X109196613Y-110556921D01*
X109175543Y-110546956D01*
X109155552Y-110534974D01*
X109136832Y-110521090D01*
X109119562Y-110505438D01*
X109103910Y-110488168D01*
X109090026Y-110469448D01*
X109078044Y-110449457D01*
X109068079Y-110428387D01*
X109060227Y-110406443D01*
X109054563Y-110383834D01*
X109051144Y-110360779D01*
X109050000Y-110337500D01*
X109050000Y-109862500D01*
X109051144Y-109839221D01*
X109054563Y-109816166D01*
X109060227Y-109793557D01*
X109068079Y-109771613D01*
X109078044Y-109750543D01*
X109090026Y-109730552D01*
X109103910Y-109711832D01*
X109119562Y-109694562D01*
X109136832Y-109678910D01*
X109155552Y-109665026D01*
X109175543Y-109653044D01*
X109196613Y-109643079D01*
X109218557Y-109635227D01*
X109241166Y-109629563D01*
X109264221Y-109626144D01*
X109287500Y-109625000D01*
X109862500Y-109625000D01*
X109885779Y-109626144D01*
X109885779Y-109626144D01*
G37*
D16*
X109575000Y-110100000D03*
D10*
G36*
X108135779Y-109626144D02*
G01*
X108158834Y-109629563D01*
X108181443Y-109635227D01*
X108203387Y-109643079D01*
X108224457Y-109653044D01*
X108244448Y-109665026D01*
X108263168Y-109678910D01*
X108280438Y-109694562D01*
X108296090Y-109711832D01*
X108309974Y-109730552D01*
X108321956Y-109750543D01*
X108331921Y-109771613D01*
X108339773Y-109793557D01*
X108345437Y-109816166D01*
X108348856Y-109839221D01*
X108350000Y-109862500D01*
X108350000Y-110337500D01*
X108348856Y-110360779D01*
X108345437Y-110383834D01*
X108339773Y-110406443D01*
X108331921Y-110428387D01*
X108321956Y-110449457D01*
X108309974Y-110469448D01*
X108296090Y-110488168D01*
X108280438Y-110505438D01*
X108263168Y-110521090D01*
X108244448Y-110534974D01*
X108224457Y-110546956D01*
X108203387Y-110556921D01*
X108181443Y-110564773D01*
X108158834Y-110570437D01*
X108135779Y-110573856D01*
X108112500Y-110575000D01*
X107537500Y-110575000D01*
X107514221Y-110573856D01*
X107491166Y-110570437D01*
X107468557Y-110564773D01*
X107446613Y-110556921D01*
X107425543Y-110546956D01*
X107405552Y-110534974D01*
X107386832Y-110521090D01*
X107369562Y-110505438D01*
X107353910Y-110488168D01*
X107340026Y-110469448D01*
X107328044Y-110449457D01*
X107318079Y-110428387D01*
X107310227Y-110406443D01*
X107304563Y-110383834D01*
X107301144Y-110360779D01*
X107300000Y-110337500D01*
X107300000Y-109862500D01*
X107301144Y-109839221D01*
X107304563Y-109816166D01*
X107310227Y-109793557D01*
X107318079Y-109771613D01*
X107328044Y-109750543D01*
X107340026Y-109730552D01*
X107353910Y-109711832D01*
X107369562Y-109694562D01*
X107386832Y-109678910D01*
X107405552Y-109665026D01*
X107425543Y-109653044D01*
X107446613Y-109643079D01*
X107468557Y-109635227D01*
X107491166Y-109629563D01*
X107514221Y-109626144D01*
X107537500Y-109625000D01*
X108112500Y-109625000D01*
X108135779Y-109626144D01*
X108135779Y-109626144D01*
G37*
D16*
X107825000Y-110100000D03*
D17*
X105200000Y-103960000D03*
D18*
X105200000Y-106500000D03*
X105200000Y-109040000D03*
D19*
X121500000Y-107100000D02*
X120300000Y-107100000D01*
X119800000Y-107600000D02*
X118600000Y-107600000D01*
X120300000Y-107100000D02*
X119800000Y-107600000D01*
X118600000Y-108750000D02*
X118050000Y-109300000D01*
X118600000Y-107600000D02*
X118600000Y-108750000D01*
X118050000Y-109300000D02*
X113800000Y-109300000D01*
X109575000Y-110100000D02*
X111500000Y-110100000D01*
X112300000Y-109300000D02*
X113800000Y-109300000D01*
X111500000Y-110100000D02*
X112300000Y-109300000D01*
X102640000Y-103960000D02*
X102100000Y-104500000D01*
X105200000Y-103960000D02*
X102640000Y-103960000D01*
X108260000Y-103960000D02*
X108300000Y-104000000D01*
X105200000Y-103960000D02*
X108260000Y-103960000D01*
D20*
X113500000Y-104000000D02*
X113800000Y-103700000D01*
X108300000Y-104000000D02*
X113500000Y-104000000D01*
X119700000Y-104975000D02*
X119700000Y-104800000D01*
X119825000Y-105100000D02*
X119700000Y-104975000D01*
X121500000Y-105100000D02*
X119825000Y-105100000D01*
X119700000Y-104800000D02*
X118600000Y-104800000D01*
D21*
X117050000Y-104800000D02*
X115350000Y-106500000D01*
X118600000Y-104800000D02*
X117050000Y-104800000D01*
X110650000Y-107000000D02*
X109400000Y-107000000D01*
X111150000Y-106500000D02*
X110650000Y-107000000D01*
X115350000Y-106500000D02*
X111150000Y-106500000D01*
D22*
X102100000Y-106500000D02*
X105200000Y-106500000D01*
X106850000Y-106500000D02*
X107350000Y-107000000D01*
X105200000Y-106500000D02*
X106850000Y-106500000D01*
D19*
X106260000Y-110100000D02*
X105200000Y-109040000D01*
X107825000Y-110100000D02*
X106260000Y-110100000D01*
X104660000Y-108500000D02*
X105200000Y-109040000D01*
X102100000Y-108500000D02*
X104660000Y-108500000D01*
D23*
G36*
X112361928Y-101950000D02*
G01*
X112365000Y-103414250D01*
X112523750Y-103573000D01*
X113673000Y-103573000D01*
X113673000Y-103553000D01*
X113927000Y-103553000D01*
X113927000Y-103573000D01*
X115076250Y-103573000D01*
X115235000Y-103414250D01*
X115238072Y-101950000D01*
X115234132Y-101910000D01*
X127090001Y-101910000D01*
X127090000Y-111090000D01*
X115185594Y-111090000D01*
X115221008Y-110973254D01*
X115238072Y-110800000D01*
X115238072Y-110235000D01*
X118004068Y-110235000D01*
X118050000Y-110239524D01*
X118095932Y-110235000D01*
X118233292Y-110221471D01*
X118409540Y-110168007D01*
X118571972Y-110081186D01*
X118714344Y-109964344D01*
X118743630Y-109928659D01*
X119228659Y-109443630D01*
X119264344Y-109414344D01*
X119381186Y-109271972D01*
X119468007Y-109109540D01*
X119521471Y-108933292D01*
X119535000Y-108795932D01*
X119535000Y-108795926D01*
X119539523Y-108750001D01*
X119535000Y-108704076D01*
X119535000Y-108655501D01*
X119601185Y-108601185D01*
X119655501Y-108535000D01*
X119754068Y-108535000D01*
X119800000Y-108539524D01*
X119845932Y-108535000D01*
X119983292Y-108521471D01*
X120159540Y-108468007D01*
X120321972Y-108381186D01*
X120464344Y-108264344D01*
X120482438Y-108242297D01*
X120535149Y-108270472D01*
X120701745Y-108321008D01*
X120874999Y-108338072D01*
X122125001Y-108338072D01*
X122298255Y-108321008D01*
X122464851Y-108270472D01*
X122618387Y-108188405D01*
X122752962Y-108077962D01*
X122863405Y-107943387D01*
X122945472Y-107789851D01*
X122996008Y-107623255D01*
X123013072Y-107450001D01*
X123013072Y-106749999D01*
X122996008Y-106576745D01*
X122945472Y-106410149D01*
X122863405Y-106256613D01*
X122752962Y-106122038D01*
X122618387Y-106011595D01*
X122613889Y-106009191D01*
X122652502Y-105977502D01*
X122806833Y-105789449D01*
X122921511Y-105574901D01*
X122992130Y-105342102D01*
X123015975Y-105100000D01*
X122992130Y-104857898D01*
X122921511Y-104625099D01*
X122806833Y-104410551D01*
X122652502Y-104222498D01*
X122464449Y-104068167D01*
X122249901Y-103953489D01*
X122017102Y-103882870D01*
X121835665Y-103865000D01*
X121164335Y-103865000D01*
X120982898Y-103882870D01*
X120750099Y-103953489D01*
X120541476Y-104065000D01*
X120435721Y-104065000D01*
X120435396Y-104064604D01*
X120277797Y-103935266D01*
X120097993Y-103839159D01*
X119902895Y-103779976D01*
X119750838Y-103765000D01*
X119700000Y-103759993D01*
X119649162Y-103765000D01*
X119559981Y-103765000D01*
X119504494Y-103719463D01*
X119394180Y-103660498D01*
X119274482Y-103624188D01*
X119150000Y-103611928D01*
X118050000Y-103611928D01*
X117925518Y-103624188D01*
X117805820Y-103660498D01*
X117797397Y-103665000D01*
X117105751Y-103665000D01*
X117049999Y-103659509D01*
X116994248Y-103665000D01*
X116827501Y-103681423D01*
X116613553Y-103746324D01*
X116416377Y-103851716D01*
X116243551Y-103993551D01*
X116208009Y-104036860D01*
X115237144Y-105007724D01*
X115235000Y-103985750D01*
X115076250Y-103827000D01*
X113927000Y-103827000D01*
X113927000Y-103847000D01*
X113673000Y-103847000D01*
X113673000Y-103827000D01*
X112523750Y-103827000D01*
X112365000Y-103985750D01*
X112362106Y-105365000D01*
X111205752Y-105365000D01*
X111150000Y-105359509D01*
X111094248Y-105365000D01*
X110927501Y-105381423D01*
X110713553Y-105446324D01*
X110516377Y-105551716D01*
X110343551Y-105693551D01*
X110308004Y-105736865D01*
X110239344Y-105805525D01*
X110180537Y-105695506D01*
X110101185Y-105598815D01*
X110004494Y-105519463D01*
X109894180Y-105460498D01*
X109774482Y-105424188D01*
X109650000Y-105411928D01*
X109138095Y-105411928D01*
X109151185Y-105401185D01*
X109230537Y-105304494D01*
X109289502Y-105194180D01*
X109325812Y-105074482D01*
X109338072Y-104950000D01*
X109335000Y-104285750D01*
X109176250Y-104127000D01*
X108427000Y-104127000D01*
X108427000Y-105426250D01*
X108511607Y-105510857D01*
X108495506Y-105519463D01*
X108398815Y-105598815D01*
X108319463Y-105695506D01*
X108300000Y-105731918D01*
X108280537Y-105695506D01*
X108201185Y-105598815D01*
X108104494Y-105519463D01*
X108088393Y-105510857D01*
X108173000Y-105426250D01*
X108173000Y-104127000D01*
X107423750Y-104127000D01*
X107265000Y-104285750D01*
X107261928Y-104950000D01*
X107274188Y-105074482D01*
X107310498Y-105194180D01*
X107369463Y-105304494D01*
X107448815Y-105401185D01*
X107461905Y-105411928D01*
X106950000Y-105411928D01*
X106825518Y-105424188D01*
X106705820Y-105460498D01*
X106595506Y-105519463D01*
X106498815Y-105598815D01*
X106444499Y-105665000D01*
X106435793Y-105665000D01*
X106255134Y-105444866D01*
X106225313Y-105420393D01*
X106294180Y-105399502D01*
X106404494Y-105340537D01*
X106501185Y-105261185D01*
X106580537Y-105164494D01*
X106639502Y-105054180D01*
X106675812Y-104934482D01*
X106688072Y-104810000D01*
X106685000Y-104245750D01*
X106526250Y-104087000D01*
X105327000Y-104087000D01*
X105327000Y-104107000D01*
X105073000Y-104107000D01*
X105073000Y-104087000D01*
X103873750Y-104087000D01*
X103715000Y-104245750D01*
X103711928Y-104810000D01*
X103724188Y-104934482D01*
X103760498Y-105054180D01*
X103819463Y-105164494D01*
X103898815Y-105261185D01*
X103995506Y-105340537D01*
X104105820Y-105399502D01*
X104174687Y-105420393D01*
X104144866Y-105444866D01*
X103964207Y-105665000D01*
X103287382Y-105665000D01*
X103280564Y-105656691D01*
X103329494Y-105630537D01*
X103426185Y-105551185D01*
X103505537Y-105454494D01*
X103564502Y-105344180D01*
X103600812Y-105224482D01*
X103613072Y-105100000D01*
X103610000Y-104785750D01*
X103451250Y-104627000D01*
X102227000Y-104627000D01*
X102227000Y-104647000D01*
X101973000Y-104647000D01*
X101973000Y-104627000D01*
X100748750Y-104627000D01*
X100590000Y-104785750D01*
X100586928Y-105100000D01*
X100599188Y-105224482D01*
X100635498Y-105344180D01*
X100694463Y-105454494D01*
X100773815Y-105551185D01*
X100870506Y-105630537D01*
X100919436Y-105656691D01*
X100793167Y-105810551D01*
X100678489Y-106025099D01*
X100607870Y-106257898D01*
X100584025Y-106500000D01*
X100607870Y-106742102D01*
X100678489Y-106974901D01*
X100793167Y-107189449D01*
X100947498Y-107377502D01*
X101096762Y-107500000D01*
X100947498Y-107622498D01*
X100793167Y-107810551D01*
X100678489Y-108025099D01*
X100607870Y-108257898D01*
X100584025Y-108500000D01*
X100607870Y-108742102D01*
X100678489Y-108974901D01*
X100793167Y-109189449D01*
X100947498Y-109377502D01*
X101135551Y-109531833D01*
X101350099Y-109646511D01*
X101582898Y-109717130D01*
X101764335Y-109735000D01*
X102435665Y-109735000D01*
X102617102Y-109717130D01*
X102849901Y-109646511D01*
X103064449Y-109531833D01*
X103182440Y-109435000D01*
X103768001Y-109435000D01*
X103821401Y-109611034D01*
X103959294Y-109869014D01*
X104144866Y-110095134D01*
X104370986Y-110280706D01*
X104628966Y-110418599D01*
X104908889Y-110503513D01*
X105127050Y-110525000D01*
X105272950Y-110525000D01*
X105354662Y-110516952D01*
X105566374Y-110728664D01*
X105595656Y-110764344D01*
X105738028Y-110881186D01*
X105900460Y-110968007D01*
X106023243Y-111005253D01*
X106076707Y-111021471D01*
X106259999Y-111039524D01*
X106305931Y-111035000D01*
X107013879Y-111035000D01*
X107051058Y-111065512D01*
X107096872Y-111090000D01*
X96660000Y-111090000D01*
X96660000Y-103900000D01*
X100586928Y-103900000D01*
X100590000Y-104214250D01*
X100748750Y-104373000D01*
X101973000Y-104373000D01*
X101973000Y-103423750D01*
X102227000Y-103423750D01*
X102227000Y-104373000D01*
X103451250Y-104373000D01*
X103610000Y-104214250D01*
X103613072Y-103900000D01*
X103600812Y-103775518D01*
X103564502Y-103655820D01*
X103505537Y-103545506D01*
X103426185Y-103448815D01*
X103329494Y-103369463D01*
X103219180Y-103310498D01*
X103099482Y-103274188D01*
X102975000Y-103261928D01*
X102385750Y-103265000D01*
X102227000Y-103423750D01*
X101973000Y-103423750D01*
X101814250Y-103265000D01*
X101225000Y-103261928D01*
X101100518Y-103274188D01*
X100980820Y-103310498D01*
X100870506Y-103369463D01*
X100773815Y-103448815D01*
X100694463Y-103545506D01*
X100635498Y-103655820D01*
X100599188Y-103775518D01*
X100586928Y-103900000D01*
X96660000Y-103900000D01*
X96660000Y-103110000D01*
X103711928Y-103110000D01*
X103715000Y-103674250D01*
X103873750Y-103833000D01*
X105073000Y-103833000D01*
X105073000Y-102633750D01*
X105327000Y-102633750D01*
X105327000Y-103833000D01*
X106526250Y-103833000D01*
X106685000Y-103674250D01*
X106688072Y-103110000D01*
X106682163Y-103050000D01*
X107261928Y-103050000D01*
X107265000Y-103714250D01*
X107423750Y-103873000D01*
X108173000Y-103873000D01*
X108173000Y-102573750D01*
X108427000Y-102573750D01*
X108427000Y-103873000D01*
X109176250Y-103873000D01*
X109335000Y-103714250D01*
X109338072Y-103050000D01*
X109325812Y-102925518D01*
X109289502Y-102805820D01*
X109230537Y-102695506D01*
X109151185Y-102598815D01*
X109054494Y-102519463D01*
X108944180Y-102460498D01*
X108824482Y-102424188D01*
X108700000Y-102411928D01*
X108585750Y-102415000D01*
X108427000Y-102573750D01*
X108173000Y-102573750D01*
X108014250Y-102415000D01*
X107900000Y-102411928D01*
X107775518Y-102424188D01*
X107655820Y-102460498D01*
X107545506Y-102519463D01*
X107448815Y-102598815D01*
X107369463Y-102695506D01*
X107310498Y-102805820D01*
X107274188Y-102925518D01*
X107261928Y-103050000D01*
X106682163Y-103050000D01*
X106675812Y-102985518D01*
X106639502Y-102865820D01*
X106580537Y-102755506D01*
X106501185Y-102658815D01*
X106404494Y-102579463D01*
X106294180Y-102520498D01*
X106174482Y-102484188D01*
X106050000Y-102471928D01*
X105485750Y-102475000D01*
X105327000Y-102633750D01*
X105073000Y-102633750D01*
X104914250Y-102475000D01*
X104350000Y-102471928D01*
X104225518Y-102484188D01*
X104105820Y-102520498D01*
X103995506Y-102579463D01*
X103898815Y-102658815D01*
X103819463Y-102755506D01*
X103760498Y-102865820D01*
X103724188Y-102985518D01*
X103711928Y-103110000D01*
X96660000Y-103110000D01*
X96660000Y-101910000D01*
X112365868Y-101910000D01*
X112361928Y-101950000D01*
X112361928Y-101950000D01*
G37*
X112361928Y-101950000D02*
X112365000Y-103414250D01*
X112523750Y-103573000D01*
X113673000Y-103573000D01*
X113673000Y-103553000D01*
X113927000Y-103553000D01*
X113927000Y-103573000D01*
X115076250Y-103573000D01*
X115235000Y-103414250D01*
X115238072Y-101950000D01*
X115234132Y-101910000D01*
X127090001Y-101910000D01*
X127090000Y-111090000D01*
X115185594Y-111090000D01*
X115221008Y-110973254D01*
X115238072Y-110800000D01*
X115238072Y-110235000D01*
X118004068Y-110235000D01*
X118050000Y-110239524D01*
X118095932Y-110235000D01*
X118233292Y-110221471D01*
X118409540Y-110168007D01*
X118571972Y-110081186D01*
X118714344Y-109964344D01*
X118743630Y-109928659D01*
X119228659Y-109443630D01*
X119264344Y-109414344D01*
X119381186Y-109271972D01*
X119468007Y-109109540D01*
X119521471Y-108933292D01*
X119535000Y-108795932D01*
X119535000Y-108795926D01*
X119539523Y-108750001D01*
X119535000Y-108704076D01*
X119535000Y-108655501D01*
X119601185Y-108601185D01*
X119655501Y-108535000D01*
X119754068Y-108535000D01*
X119800000Y-108539524D01*
X119845932Y-108535000D01*
X119983292Y-108521471D01*
X120159540Y-108468007D01*
X120321972Y-108381186D01*
X120464344Y-108264344D01*
X120482438Y-108242297D01*
X120535149Y-108270472D01*
X120701745Y-108321008D01*
X120874999Y-108338072D01*
X122125001Y-108338072D01*
X122298255Y-108321008D01*
X122464851Y-108270472D01*
X122618387Y-108188405D01*
X122752962Y-108077962D01*
X122863405Y-107943387D01*
X122945472Y-107789851D01*
X122996008Y-107623255D01*
X123013072Y-107450001D01*
X123013072Y-106749999D01*
X122996008Y-106576745D01*
X122945472Y-106410149D01*
X122863405Y-106256613D01*
X122752962Y-106122038D01*
X122618387Y-106011595D01*
X122613889Y-106009191D01*
X122652502Y-105977502D01*
X122806833Y-105789449D01*
X122921511Y-105574901D01*
X122992130Y-105342102D01*
X123015975Y-105100000D01*
X122992130Y-104857898D01*
X122921511Y-104625099D01*
X122806833Y-104410551D01*
X122652502Y-104222498D01*
X122464449Y-104068167D01*
X122249901Y-103953489D01*
X122017102Y-103882870D01*
X121835665Y-103865000D01*
X121164335Y-103865000D01*
X120982898Y-103882870D01*
X120750099Y-103953489D01*
X120541476Y-104065000D01*
X120435721Y-104065000D01*
X120435396Y-104064604D01*
X120277797Y-103935266D01*
X120097993Y-103839159D01*
X119902895Y-103779976D01*
X119750838Y-103765000D01*
X119700000Y-103759993D01*
X119649162Y-103765000D01*
X119559981Y-103765000D01*
X119504494Y-103719463D01*
X119394180Y-103660498D01*
X119274482Y-103624188D01*
X119150000Y-103611928D01*
X118050000Y-103611928D01*
X117925518Y-103624188D01*
X117805820Y-103660498D01*
X117797397Y-103665000D01*
X117105751Y-103665000D01*
X117049999Y-103659509D01*
X116994248Y-103665000D01*
X116827501Y-103681423D01*
X116613553Y-103746324D01*
X116416377Y-103851716D01*
X116243551Y-103993551D01*
X116208009Y-104036860D01*
X115237144Y-105007724D01*
X115235000Y-103985750D01*
X115076250Y-103827000D01*
X113927000Y-103827000D01*
X113927000Y-103847000D01*
X113673000Y-103847000D01*
X113673000Y-103827000D01*
X112523750Y-103827000D01*
X112365000Y-103985750D01*
X112362106Y-105365000D01*
X111205752Y-105365000D01*
X111150000Y-105359509D01*
X111094248Y-105365000D01*
X110927501Y-105381423D01*
X110713553Y-105446324D01*
X110516377Y-105551716D01*
X110343551Y-105693551D01*
X110308004Y-105736865D01*
X110239344Y-105805525D01*
X110180537Y-105695506D01*
X110101185Y-105598815D01*
X110004494Y-105519463D01*
X109894180Y-105460498D01*
X109774482Y-105424188D01*
X109650000Y-105411928D01*
X109138095Y-105411928D01*
X109151185Y-105401185D01*
X109230537Y-105304494D01*
X109289502Y-105194180D01*
X109325812Y-105074482D01*
X109338072Y-104950000D01*
X109335000Y-104285750D01*
X109176250Y-104127000D01*
X108427000Y-104127000D01*
X108427000Y-105426250D01*
X108511607Y-105510857D01*
X108495506Y-105519463D01*
X108398815Y-105598815D01*
X108319463Y-105695506D01*
X108300000Y-105731918D01*
X108280537Y-105695506D01*
X108201185Y-105598815D01*
X108104494Y-105519463D01*
X108088393Y-105510857D01*
X108173000Y-105426250D01*
X108173000Y-104127000D01*
X107423750Y-104127000D01*
X107265000Y-104285750D01*
X107261928Y-104950000D01*
X107274188Y-105074482D01*
X107310498Y-105194180D01*
X107369463Y-105304494D01*
X107448815Y-105401185D01*
X107461905Y-105411928D01*
X106950000Y-105411928D01*
X106825518Y-105424188D01*
X106705820Y-105460498D01*
X106595506Y-105519463D01*
X106498815Y-105598815D01*
X106444499Y-105665000D01*
X106435793Y-105665000D01*
X106255134Y-105444866D01*
X106225313Y-105420393D01*
X106294180Y-105399502D01*
X106404494Y-105340537D01*
X106501185Y-105261185D01*
X106580537Y-105164494D01*
X106639502Y-105054180D01*
X106675812Y-104934482D01*
X106688072Y-104810000D01*
X106685000Y-104245750D01*
X106526250Y-104087000D01*
X105327000Y-104087000D01*
X105327000Y-104107000D01*
X105073000Y-104107000D01*
X105073000Y-104087000D01*
X103873750Y-104087000D01*
X103715000Y-104245750D01*
X103711928Y-104810000D01*
X103724188Y-104934482D01*
X103760498Y-105054180D01*
X103819463Y-105164494D01*
X103898815Y-105261185D01*
X103995506Y-105340537D01*
X104105820Y-105399502D01*
X104174687Y-105420393D01*
X104144866Y-105444866D01*
X103964207Y-105665000D01*
X103287382Y-105665000D01*
X103280564Y-105656691D01*
X103329494Y-105630537D01*
X103426185Y-105551185D01*
X103505537Y-105454494D01*
X103564502Y-105344180D01*
X103600812Y-105224482D01*
X103613072Y-105100000D01*
X103610000Y-104785750D01*
X103451250Y-104627000D01*
X102227000Y-104627000D01*
X102227000Y-104647000D01*
X101973000Y-104647000D01*
X101973000Y-104627000D01*
X100748750Y-104627000D01*
X100590000Y-104785750D01*
X100586928Y-105100000D01*
X100599188Y-105224482D01*
X100635498Y-105344180D01*
X100694463Y-105454494D01*
X100773815Y-105551185D01*
X100870506Y-105630537D01*
X100919436Y-105656691D01*
X100793167Y-105810551D01*
X100678489Y-106025099D01*
X100607870Y-106257898D01*
X100584025Y-106500000D01*
X100607870Y-106742102D01*
X100678489Y-106974901D01*
X100793167Y-107189449D01*
X100947498Y-107377502D01*
X101096762Y-107500000D01*
X100947498Y-107622498D01*
X100793167Y-107810551D01*
X100678489Y-108025099D01*
X100607870Y-108257898D01*
X100584025Y-108500000D01*
X100607870Y-108742102D01*
X100678489Y-108974901D01*
X100793167Y-109189449D01*
X100947498Y-109377502D01*
X101135551Y-109531833D01*
X101350099Y-109646511D01*
X101582898Y-109717130D01*
X101764335Y-109735000D01*
X102435665Y-109735000D01*
X102617102Y-109717130D01*
X102849901Y-109646511D01*
X103064449Y-109531833D01*
X103182440Y-109435000D01*
X103768001Y-109435000D01*
X103821401Y-109611034D01*
X103959294Y-109869014D01*
X104144866Y-110095134D01*
X104370986Y-110280706D01*
X104628966Y-110418599D01*
X104908889Y-110503513D01*
X105127050Y-110525000D01*
X105272950Y-110525000D01*
X105354662Y-110516952D01*
X105566374Y-110728664D01*
X105595656Y-110764344D01*
X105738028Y-110881186D01*
X105900460Y-110968007D01*
X106023243Y-111005253D01*
X106076707Y-111021471D01*
X106259999Y-111039524D01*
X106305931Y-111035000D01*
X107013879Y-111035000D01*
X107051058Y-111065512D01*
X107096872Y-111090000D01*
X96660000Y-111090000D01*
X96660000Y-103900000D01*
X100586928Y-103900000D01*
X100590000Y-104214250D01*
X100748750Y-104373000D01*
X101973000Y-104373000D01*
X101973000Y-103423750D01*
X102227000Y-103423750D01*
X102227000Y-104373000D01*
X103451250Y-104373000D01*
X103610000Y-104214250D01*
X103613072Y-103900000D01*
X103600812Y-103775518D01*
X103564502Y-103655820D01*
X103505537Y-103545506D01*
X103426185Y-103448815D01*
X103329494Y-103369463D01*
X103219180Y-103310498D01*
X103099482Y-103274188D01*
X102975000Y-103261928D01*
X102385750Y-103265000D01*
X102227000Y-103423750D01*
X101973000Y-103423750D01*
X101814250Y-103265000D01*
X101225000Y-103261928D01*
X101100518Y-103274188D01*
X100980820Y-103310498D01*
X100870506Y-103369463D01*
X100773815Y-103448815D01*
X100694463Y-103545506D01*
X100635498Y-103655820D01*
X100599188Y-103775518D01*
X100586928Y-103900000D01*
X96660000Y-103900000D01*
X96660000Y-103110000D01*
X103711928Y-103110000D01*
X103715000Y-103674250D01*
X103873750Y-103833000D01*
X105073000Y-103833000D01*
X105073000Y-102633750D01*
X105327000Y-102633750D01*
X105327000Y-103833000D01*
X106526250Y-103833000D01*
X106685000Y-103674250D01*
X106688072Y-103110000D01*
X106682163Y-103050000D01*
X107261928Y-103050000D01*
X107265000Y-103714250D01*
X107423750Y-103873000D01*
X108173000Y-103873000D01*
X108173000Y-102573750D01*
X108427000Y-102573750D01*
X108427000Y-103873000D01*
X109176250Y-103873000D01*
X109335000Y-103714250D01*
X109338072Y-103050000D01*
X109325812Y-102925518D01*
X109289502Y-102805820D01*
X109230537Y-102695506D01*
X109151185Y-102598815D01*
X109054494Y-102519463D01*
X108944180Y-102460498D01*
X108824482Y-102424188D01*
X108700000Y-102411928D01*
X108585750Y-102415000D01*
X108427000Y-102573750D01*
X108173000Y-102573750D01*
X108014250Y-102415000D01*
X107900000Y-102411928D01*
X107775518Y-102424188D01*
X107655820Y-102460498D01*
X107545506Y-102519463D01*
X107448815Y-102598815D01*
X107369463Y-102695506D01*
X107310498Y-102805820D01*
X107274188Y-102925518D01*
X107261928Y-103050000D01*
X106682163Y-103050000D01*
X106675812Y-102985518D01*
X106639502Y-102865820D01*
X106580537Y-102755506D01*
X106501185Y-102658815D01*
X106404494Y-102579463D01*
X106294180Y-102520498D01*
X106174482Y-102484188D01*
X106050000Y-102471928D01*
X105485750Y-102475000D01*
X105327000Y-102633750D01*
X105073000Y-102633750D01*
X104914250Y-102475000D01*
X104350000Y-102471928D01*
X104225518Y-102484188D01*
X104105820Y-102520498D01*
X103995506Y-102579463D01*
X103898815Y-102658815D01*
X103819463Y-102755506D01*
X103760498Y-102865820D01*
X103724188Y-102985518D01*
X103711928Y-103110000D01*
X96660000Y-103110000D01*
X96660000Y-101910000D01*
X112365868Y-101910000D01*
X112361928Y-101950000D01*
M02*
