G04 #@! TF.GenerationSoftware,KiCad,Pcbnew,(5.1.2)-2*
G04 #@! TF.CreationDate,2019-09-09T17:29:24+02:00*
G04 #@! TF.ProjectId,solenoid-board,736f6c65-6e6f-4696-942d-626f6172642e,rev?*
G04 #@! TF.SameCoordinates,Original*
G04 #@! TF.FileFunction,Soldermask,Top*
G04 #@! TF.FilePolarity,Negative*
%FSLAX46Y46*%
G04 Gerber Fmt 4.6, Leading zero omitted, Abs format (unit mm)*
G04 Created by KiCad (PCBNEW (5.1.2)-2) date 2019-09-09 17:29:24*
%MOMM*%
%LPD*%
G04 APERTURE LIST*
%ADD10C,0.100000*%
G04 APERTURE END LIST*
D10*
G36*
X114505997Y-107503051D02*
G01*
X114539652Y-107513261D01*
X114570665Y-107529838D01*
X114597851Y-107552149D01*
X114620162Y-107579335D01*
X114636739Y-107610348D01*
X114646949Y-107644003D01*
X114651000Y-107685138D01*
X114651000Y-110914862D01*
X114646949Y-110955997D01*
X114636739Y-110989652D01*
X114620162Y-111020665D01*
X114597851Y-111047851D01*
X114570665Y-111070162D01*
X114539652Y-111086739D01*
X114505997Y-111096949D01*
X114464862Y-111101000D01*
X113135138Y-111101000D01*
X113094003Y-111096949D01*
X113060348Y-111086739D01*
X113029335Y-111070162D01*
X113002149Y-111047851D01*
X112979838Y-111020665D01*
X112963261Y-110989652D01*
X112953051Y-110955997D01*
X112949000Y-110914862D01*
X112949000Y-107685138D01*
X112953051Y-107644003D01*
X112963261Y-107610348D01*
X112979838Y-107579335D01*
X113002149Y-107552149D01*
X113029335Y-107529838D01*
X113060348Y-107513261D01*
X113094003Y-107503051D01*
X113135138Y-107499000D01*
X114464862Y-107499000D01*
X114505997Y-107503051D01*
X114505997Y-107503051D01*
G37*
G36*
X109989499Y-109578445D02*
G01*
X110026995Y-109589820D01*
X110061554Y-109608292D01*
X110091847Y-109633153D01*
X110116708Y-109663446D01*
X110135180Y-109698005D01*
X110146555Y-109735501D01*
X110151000Y-109780638D01*
X110151000Y-110419362D01*
X110146555Y-110464499D01*
X110135180Y-110501995D01*
X110116708Y-110536554D01*
X110091847Y-110566847D01*
X110061554Y-110591708D01*
X110026995Y-110610180D01*
X109989499Y-110621555D01*
X109944362Y-110626000D01*
X109205638Y-110626000D01*
X109160501Y-110621555D01*
X109123005Y-110610180D01*
X109088446Y-110591708D01*
X109058153Y-110566847D01*
X109033292Y-110536554D01*
X109014820Y-110501995D01*
X109003445Y-110464499D01*
X108999000Y-110419362D01*
X108999000Y-109780638D01*
X109003445Y-109735501D01*
X109014820Y-109698005D01*
X109033292Y-109663446D01*
X109058153Y-109633153D01*
X109088446Y-109608292D01*
X109123005Y-109589820D01*
X109160501Y-109578445D01*
X109205638Y-109574000D01*
X109944362Y-109574000D01*
X109989499Y-109578445D01*
X109989499Y-109578445D01*
G37*
G36*
X108239499Y-109578445D02*
G01*
X108276995Y-109589820D01*
X108311554Y-109608292D01*
X108341847Y-109633153D01*
X108366708Y-109663446D01*
X108385180Y-109698005D01*
X108396555Y-109735501D01*
X108401000Y-109780638D01*
X108401000Y-110419362D01*
X108396555Y-110464499D01*
X108385180Y-110501995D01*
X108366708Y-110536554D01*
X108341847Y-110566847D01*
X108311554Y-110591708D01*
X108276995Y-110610180D01*
X108239499Y-110621555D01*
X108194362Y-110626000D01*
X107455638Y-110626000D01*
X107410501Y-110621555D01*
X107373005Y-110610180D01*
X107338446Y-110591708D01*
X107308153Y-110566847D01*
X107283292Y-110536554D01*
X107264820Y-110501995D01*
X107253445Y-110464499D01*
X107249000Y-110419362D01*
X107249000Y-109780638D01*
X107253445Y-109735501D01*
X107264820Y-109698005D01*
X107283292Y-109663446D01*
X107308153Y-109633153D01*
X107338446Y-109608292D01*
X107373005Y-109589820D01*
X107410501Y-109578445D01*
X107455638Y-109574000D01*
X108194362Y-109574000D01*
X108239499Y-109578445D01*
X108239499Y-109578445D01*
G37*
G36*
X105310443Y-108145519D02*
G01*
X105376627Y-108152037D01*
X105546466Y-108203557D01*
X105702991Y-108287222D01*
X105738729Y-108316552D01*
X105840186Y-108399814D01*
X105922405Y-108500000D01*
X105952778Y-108537009D01*
X106036443Y-108693534D01*
X106087963Y-108863373D01*
X106105359Y-109040000D01*
X106087963Y-109216627D01*
X106036443Y-109386466D01*
X105952778Y-109542991D01*
X105927329Y-109574000D01*
X105840186Y-109680186D01*
X105738729Y-109763448D01*
X105702991Y-109792778D01*
X105546466Y-109876443D01*
X105376627Y-109927963D01*
X105310442Y-109934482D01*
X105244260Y-109941000D01*
X105155740Y-109941000D01*
X105089558Y-109934482D01*
X105023373Y-109927963D01*
X104853534Y-109876443D01*
X104697009Y-109792778D01*
X104661271Y-109763448D01*
X104559814Y-109680186D01*
X104472671Y-109574000D01*
X104447222Y-109542991D01*
X104363557Y-109386466D01*
X104312037Y-109216627D01*
X104294641Y-109040000D01*
X104312037Y-108863373D01*
X104363557Y-108693534D01*
X104447222Y-108537009D01*
X104477595Y-108500000D01*
X104559814Y-108399814D01*
X104661271Y-108316552D01*
X104697009Y-108287222D01*
X104853534Y-108203557D01*
X105023373Y-108152037D01*
X105089557Y-108145519D01*
X105155740Y-108139000D01*
X105244260Y-108139000D01*
X105310443Y-108145519D01*
X105310443Y-108145519D01*
G37*
G36*
X102438855Y-107852140D02*
G01*
X102502618Y-107858420D01*
X102593404Y-107885960D01*
X102625336Y-107895646D01*
X102738425Y-107956094D01*
X102837554Y-108037446D01*
X102918906Y-108136575D01*
X102979354Y-108249664D01*
X102979355Y-108249668D01*
X103016580Y-108372382D01*
X103029149Y-108500000D01*
X103016580Y-108627618D01*
X102989040Y-108718404D01*
X102979354Y-108750336D01*
X102918906Y-108863425D01*
X102837554Y-108962554D01*
X102738425Y-109043906D01*
X102625336Y-109104354D01*
X102593404Y-109114040D01*
X102502618Y-109141580D01*
X102438855Y-109147860D01*
X102406974Y-109151000D01*
X101793026Y-109151000D01*
X101761145Y-109147860D01*
X101697382Y-109141580D01*
X101606596Y-109114040D01*
X101574664Y-109104354D01*
X101461575Y-109043906D01*
X101362446Y-108962554D01*
X101281094Y-108863425D01*
X101220646Y-108750336D01*
X101210960Y-108718404D01*
X101183420Y-108627618D01*
X101170851Y-108500000D01*
X101183420Y-108372382D01*
X101220645Y-108249668D01*
X101220646Y-108249664D01*
X101281094Y-108136575D01*
X101362446Y-108037446D01*
X101461575Y-107956094D01*
X101574664Y-107895646D01*
X101606596Y-107885960D01*
X101697382Y-107858420D01*
X101761145Y-107852140D01*
X101793026Y-107849000D01*
X102406974Y-107849000D01*
X102438855Y-107852140D01*
X102438855Y-107852140D01*
G37*
G36*
X119201000Y-108201000D02*
G01*
X117999000Y-108201000D01*
X117999000Y-106999000D01*
X119201000Y-106999000D01*
X119201000Y-108201000D01*
X119201000Y-108201000D01*
G37*
G36*
X109701000Y-108001000D02*
G01*
X108799000Y-108001000D01*
X108799000Y-105999000D01*
X109701000Y-105999000D01*
X109701000Y-108001000D01*
X109701000Y-108001000D01*
G37*
G36*
X107801000Y-108001000D02*
G01*
X106899000Y-108001000D01*
X106899000Y-105999000D01*
X107801000Y-105999000D01*
X107801000Y-108001000D01*
X107801000Y-108001000D01*
G37*
G36*
X122266242Y-106453404D02*
G01*
X122303337Y-106464657D01*
X122337515Y-106482925D01*
X122367481Y-106507519D01*
X122392075Y-106537485D01*
X122410343Y-106571663D01*
X122421596Y-106608758D01*
X122426000Y-106653474D01*
X122426000Y-107546526D01*
X122421596Y-107591242D01*
X122410343Y-107628337D01*
X122392075Y-107662515D01*
X122367481Y-107692481D01*
X122337515Y-107717075D01*
X122303337Y-107735343D01*
X122266242Y-107746596D01*
X122221526Y-107751000D01*
X120778474Y-107751000D01*
X120733758Y-107746596D01*
X120696663Y-107735343D01*
X120662485Y-107717075D01*
X120632519Y-107692481D01*
X120607925Y-107662515D01*
X120589657Y-107628337D01*
X120578404Y-107591242D01*
X120574000Y-107546526D01*
X120574000Y-106653474D01*
X120578404Y-106608758D01*
X120589657Y-106571663D01*
X120607925Y-106537485D01*
X120632519Y-106507519D01*
X120662485Y-106482925D01*
X120696663Y-106464657D01*
X120733758Y-106453404D01*
X120778474Y-106449000D01*
X122221526Y-106449000D01*
X122266242Y-106453404D01*
X122266242Y-106453404D01*
G37*
G36*
X105310442Y-105605518D02*
G01*
X105376627Y-105612037D01*
X105546466Y-105663557D01*
X105702991Y-105747222D01*
X105707594Y-105751000D01*
X105840186Y-105859814D01*
X105919200Y-105956094D01*
X105952778Y-105997009D01*
X106036443Y-106153534D01*
X106087963Y-106323373D01*
X106105359Y-106500000D01*
X106087963Y-106676627D01*
X106036443Y-106846466D01*
X105952778Y-107002991D01*
X105923448Y-107038729D01*
X105840186Y-107140186D01*
X105738729Y-107223448D01*
X105702991Y-107252778D01*
X105546466Y-107336443D01*
X105376627Y-107387963D01*
X105310442Y-107394482D01*
X105244260Y-107401000D01*
X105155740Y-107401000D01*
X105089558Y-107394482D01*
X105023373Y-107387963D01*
X104853534Y-107336443D01*
X104697009Y-107252778D01*
X104661271Y-107223448D01*
X104559814Y-107140186D01*
X104476552Y-107038729D01*
X104447222Y-107002991D01*
X104363557Y-106846466D01*
X104312037Y-106676627D01*
X104294641Y-106500000D01*
X104312037Y-106323373D01*
X104363557Y-106153534D01*
X104447222Y-105997009D01*
X104480800Y-105956094D01*
X104559814Y-105859814D01*
X104692406Y-105751000D01*
X104697009Y-105747222D01*
X104853534Y-105663557D01*
X105023373Y-105612037D01*
X105089557Y-105605519D01*
X105155740Y-105599000D01*
X105244260Y-105599000D01*
X105310442Y-105605518D01*
X105310442Y-105605518D01*
G37*
G36*
X102438855Y-105852140D02*
G01*
X102502618Y-105858420D01*
X102593404Y-105885960D01*
X102625336Y-105895646D01*
X102738425Y-105956094D01*
X102837554Y-106037446D01*
X102918906Y-106136575D01*
X102979354Y-106249664D01*
X102979355Y-106249668D01*
X103016580Y-106372382D01*
X103029149Y-106500000D01*
X103016580Y-106627618D01*
X103004533Y-106667331D01*
X102979354Y-106750336D01*
X102918906Y-106863425D01*
X102837554Y-106962554D01*
X102738425Y-107043906D01*
X102625336Y-107104354D01*
X102593404Y-107114040D01*
X102502618Y-107141580D01*
X102438855Y-107147860D01*
X102406974Y-107151000D01*
X101793026Y-107151000D01*
X101761145Y-107147860D01*
X101697382Y-107141580D01*
X101606596Y-107114040D01*
X101574664Y-107104354D01*
X101461575Y-107043906D01*
X101362446Y-106962554D01*
X101281094Y-106863425D01*
X101220646Y-106750336D01*
X101195467Y-106667331D01*
X101183420Y-106627618D01*
X101170851Y-106500000D01*
X101183420Y-106372382D01*
X101220645Y-106249668D01*
X101220646Y-106249664D01*
X101281094Y-106136575D01*
X101362446Y-106037446D01*
X101461575Y-105956094D01*
X101574664Y-105895646D01*
X101606596Y-105885960D01*
X101697382Y-105858420D01*
X101761145Y-105852140D01*
X101793026Y-105849000D01*
X102406974Y-105849000D01*
X102438855Y-105852140D01*
X102438855Y-105852140D01*
G37*
G36*
X121838855Y-104452140D02*
G01*
X121902618Y-104458420D01*
X121993404Y-104485960D01*
X122025336Y-104495646D01*
X122138425Y-104556094D01*
X122237554Y-104637446D01*
X122318906Y-104736575D01*
X122379354Y-104849664D01*
X122379355Y-104849668D01*
X122416580Y-104972382D01*
X122429149Y-105100000D01*
X122416580Y-105227618D01*
X122398583Y-105286945D01*
X122379354Y-105350336D01*
X122318906Y-105463425D01*
X122237554Y-105562554D01*
X122138425Y-105643906D01*
X122025336Y-105704354D01*
X121993404Y-105714040D01*
X121902618Y-105741580D01*
X121838855Y-105747860D01*
X121806974Y-105751000D01*
X121193026Y-105751000D01*
X121161145Y-105747860D01*
X121097382Y-105741580D01*
X121006596Y-105714040D01*
X120974664Y-105704354D01*
X120861575Y-105643906D01*
X120762446Y-105562554D01*
X120681094Y-105463425D01*
X120620646Y-105350336D01*
X120601417Y-105286945D01*
X120583420Y-105227618D01*
X120570851Y-105100000D01*
X120583420Y-104972382D01*
X120620645Y-104849668D01*
X120620646Y-104849664D01*
X120681094Y-104736575D01*
X120762446Y-104637446D01*
X120861575Y-104556094D01*
X120974664Y-104495646D01*
X121006596Y-104485960D01*
X121097382Y-104458420D01*
X121161145Y-104452140D01*
X121193026Y-104449000D01*
X121806974Y-104449000D01*
X121838855Y-104452140D01*
X121838855Y-104452140D01*
G37*
G36*
X114505997Y-101903051D02*
G01*
X114539652Y-101913261D01*
X114570665Y-101929838D01*
X114597851Y-101952149D01*
X114620162Y-101979335D01*
X114636739Y-102010348D01*
X114646949Y-102044003D01*
X114651000Y-102085138D01*
X114651000Y-105314862D01*
X114646949Y-105355997D01*
X114636739Y-105389652D01*
X114620162Y-105420665D01*
X114597851Y-105447851D01*
X114570665Y-105470162D01*
X114539652Y-105486739D01*
X114505997Y-105496949D01*
X114464862Y-105501000D01*
X113135138Y-105501000D01*
X113094003Y-105496949D01*
X113060348Y-105486739D01*
X113029335Y-105470162D01*
X113002149Y-105447851D01*
X112979838Y-105420665D01*
X112963261Y-105389652D01*
X112953051Y-105355997D01*
X112949000Y-105314862D01*
X112949000Y-102085138D01*
X112953051Y-102044003D01*
X112963261Y-102010348D01*
X112979838Y-101979335D01*
X113002149Y-101952149D01*
X113029335Y-101929838D01*
X113060348Y-101913261D01*
X113094003Y-101903051D01*
X113135138Y-101899000D01*
X114464862Y-101899000D01*
X114505997Y-101903051D01*
X114505997Y-101903051D01*
G37*
G36*
X119201000Y-105401000D02*
G01*
X117999000Y-105401000D01*
X117999000Y-104199000D01*
X119201000Y-104199000D01*
X119201000Y-105401000D01*
X119201000Y-105401000D01*
G37*
G36*
X102866242Y-103853404D02*
G01*
X102903337Y-103864657D01*
X102937515Y-103882925D01*
X102967481Y-103907519D01*
X102992075Y-103937485D01*
X103010343Y-103971663D01*
X103021596Y-104008758D01*
X103026000Y-104053474D01*
X103026000Y-104946526D01*
X103021596Y-104991242D01*
X103010343Y-105028337D01*
X102992075Y-105062515D01*
X102967481Y-105092481D01*
X102937515Y-105117075D01*
X102903337Y-105135343D01*
X102866242Y-105146596D01*
X102821526Y-105151000D01*
X101378474Y-105151000D01*
X101333758Y-105146596D01*
X101296663Y-105135343D01*
X101262485Y-105117075D01*
X101232519Y-105092481D01*
X101207925Y-105062515D01*
X101189657Y-105028337D01*
X101178404Y-104991242D01*
X101174000Y-104946526D01*
X101174000Y-104053474D01*
X101178404Y-104008758D01*
X101189657Y-103971663D01*
X101207925Y-103937485D01*
X101232519Y-103907519D01*
X101262485Y-103882925D01*
X101296663Y-103864657D01*
X101333758Y-103853404D01*
X101378474Y-103849000D01*
X102821526Y-103849000D01*
X102866242Y-103853404D01*
X102866242Y-103853404D01*
G37*
G36*
X108751000Y-105001000D02*
G01*
X107849000Y-105001000D01*
X107849000Y-102999000D01*
X108751000Y-102999000D01*
X108751000Y-105001000D01*
X108751000Y-105001000D01*
G37*
G36*
X106101000Y-104861000D02*
G01*
X104299000Y-104861000D01*
X104299000Y-103059000D01*
X106101000Y-103059000D01*
X106101000Y-104861000D01*
X106101000Y-104861000D01*
G37*
M02*
