M48
; DRILL file {KiCad 5.99.0-unknown-r16857-c6889b00} date 2019-09-24T09:10:02 CEST
; FORMAT={-:-/ absolute / inch / decimal}
; #@! TF.CreationDate,2019-09-24T09:10:02+02:00
; #@! TF.GenerationSoftware,Kicad,Pcbnew,5.99.0-unknown-r16857-c6889b00
FMAT,2
INCH
T1C0.0157
T2C0.0295
T3C0.0394
%
G90
G05
T1
X3.8701Y-4.0315
X3.8701Y-4.3622
X4.0669Y-4.3622
X4.2126Y-4.0315
X4.4055Y-4.252
X4.437Y-4.0315
X4.4488Y-4.252
X4.4488Y-4.2953
X4.5945Y-4.3622
X4.5984Y-4.0315
X5.0315Y-4.0984
X5.0315Y-4.2913
T2
X4.8248Y-4.1378
X4.8248Y-4.2165
X4.0118Y-4.1142
X4.0118Y-4.1929
X4.0118Y-4.2717
T3
X4.1339Y-4.0929
X4.1339Y-4.1929
X4.1339Y-4.2929
T0
M30
