G04 #@! TF.GenerationSoftware,KiCad,Pcbnew,5.99.0-unknown-r16857-c6889b00*
G04 #@! TF.CreationDate,2019-09-24T09:09:54+02:00*
G04 #@! TF.ProjectId,solenoid-board,736f6c65-6e6f-4696-942d-626f6172642e,rev?*
G04 #@! TF.SameCoordinates,Original*
G04 #@! TF.FileFunction,Soldermask,Top*
G04 #@! TF.FilePolarity,Negative*
%FSLAX46Y46*%
G04 Gerber Fmt 4.6, Leading zero omitted, Abs format (unit mm)*
G04 Created by KiCad (PCBNEW 5.99.0-unknown-r16857-c6889b00) date 2019-09-24 09:09:54*
%MOMM*%
%LPD*%
G04 APERTURE LIST*
%ADD10C,0.100000*%
G04 APERTURE END LIST*
D10*
G36*
X111236756Y-109486764D02*
G01*
X111248228Y-109492289D01*
X111256286Y-109493795D01*
X111273543Y-109504480D01*
X111318638Y-109526197D01*
X111338738Y-109544847D01*
X111351964Y-109553036D01*
X111362264Y-109566676D01*
X111385265Y-109588017D01*
X111407617Y-109626732D01*
X111419781Y-109642840D01*
X111421750Y-109651212D01*
X111429506Y-109664646D01*
X111448419Y-109764603D01*
X111451883Y-109779331D01*
X111451883Y-109782910D01*
X111453194Y-109789839D01*
X111453194Y-111012516D01*
X111438236Y-111111756D01*
X111432711Y-111123228D01*
X111431205Y-111131286D01*
X111420520Y-111148543D01*
X111398803Y-111193638D01*
X111380153Y-111213738D01*
X111371964Y-111226964D01*
X111358324Y-111237264D01*
X111336983Y-111260265D01*
X111298268Y-111282617D01*
X111282160Y-111294781D01*
X111273788Y-111296750D01*
X111260354Y-111304506D01*
X111160397Y-111323419D01*
X111145669Y-111326883D01*
X111142090Y-111326883D01*
X111135161Y-111328194D01*
X110237484Y-111328194D01*
X110138244Y-111313236D01*
X110126772Y-111307711D01*
X110118714Y-111306205D01*
X110101457Y-111295520D01*
X110056362Y-111273803D01*
X110036262Y-111255153D01*
X110023036Y-111246964D01*
X110012736Y-111233324D01*
X109989735Y-111211983D01*
X109967383Y-111173268D01*
X109955219Y-111157160D01*
X109953250Y-111148788D01*
X109945494Y-111135354D01*
X109926581Y-111035397D01*
X109923117Y-111020669D01*
X109923117Y-111017090D01*
X109921806Y-111010161D01*
X109921806Y-109787484D01*
X109936764Y-109688244D01*
X109942289Y-109676772D01*
X109943795Y-109668714D01*
X109954480Y-109651457D01*
X109976197Y-109606362D01*
X109994847Y-109586262D01*
X110003036Y-109573036D01*
X110016676Y-109562736D01*
X110038017Y-109539735D01*
X110076732Y-109517383D01*
X110092840Y-109505219D01*
X110101212Y-109503250D01*
X110114646Y-109495494D01*
X110214603Y-109476581D01*
X110229331Y-109473117D01*
X110232910Y-109473117D01*
X110239839Y-109471806D01*
X111137516Y-109471806D01*
X111236756Y-109486764D01*
X111236756Y-109486764D01*
G37*
G36*
X108261756Y-109486764D02*
G01*
X108273228Y-109492289D01*
X108281286Y-109493795D01*
X108298543Y-109504480D01*
X108343638Y-109526197D01*
X108363738Y-109544847D01*
X108376964Y-109553036D01*
X108387264Y-109566676D01*
X108410265Y-109588017D01*
X108432617Y-109626732D01*
X108444781Y-109642840D01*
X108446750Y-109651212D01*
X108454506Y-109664646D01*
X108473419Y-109764603D01*
X108476883Y-109779331D01*
X108476883Y-109782910D01*
X108478194Y-109789839D01*
X108478194Y-111012516D01*
X108463236Y-111111756D01*
X108457711Y-111123228D01*
X108456205Y-111131286D01*
X108445520Y-111148543D01*
X108423803Y-111193638D01*
X108405153Y-111213738D01*
X108396964Y-111226964D01*
X108383324Y-111237264D01*
X108361983Y-111260265D01*
X108323268Y-111282617D01*
X108307160Y-111294781D01*
X108298788Y-111296750D01*
X108285354Y-111304506D01*
X108185397Y-111323419D01*
X108170669Y-111326883D01*
X108167090Y-111326883D01*
X108160161Y-111328194D01*
X107262484Y-111328194D01*
X107163244Y-111313236D01*
X107151772Y-111307711D01*
X107143714Y-111306205D01*
X107126457Y-111295520D01*
X107081362Y-111273803D01*
X107061262Y-111255153D01*
X107048036Y-111246964D01*
X107037736Y-111233324D01*
X107014735Y-111211983D01*
X106992383Y-111173268D01*
X106980219Y-111157160D01*
X106978250Y-111148788D01*
X106970494Y-111135354D01*
X106951581Y-111035397D01*
X106948117Y-111020669D01*
X106948117Y-111017090D01*
X106946806Y-111010161D01*
X106946806Y-109787484D01*
X106961764Y-109688244D01*
X106967289Y-109676772D01*
X106968795Y-109668714D01*
X106979480Y-109651457D01*
X107001197Y-109606362D01*
X107019847Y-109586262D01*
X107028036Y-109573036D01*
X107041676Y-109562736D01*
X107063017Y-109539735D01*
X107101732Y-109517383D01*
X107117840Y-109505219D01*
X107126212Y-109503250D01*
X107139646Y-109495494D01*
X107239603Y-109476581D01*
X107254331Y-109473117D01*
X107257910Y-109473117D01*
X107264839Y-109471806D01*
X108162516Y-109471806D01*
X108261756Y-109486764D01*
X108261756Y-109486764D01*
G37*
G36*
X115486756Y-107511764D02*
G01*
X115498228Y-107517289D01*
X115506286Y-107518795D01*
X115523543Y-107529480D01*
X115568638Y-107551197D01*
X115588738Y-107569847D01*
X115601964Y-107578036D01*
X115612264Y-107591676D01*
X115635265Y-107613017D01*
X115657617Y-107651732D01*
X115669781Y-107667840D01*
X115671750Y-107676212D01*
X115679506Y-107689646D01*
X115698419Y-107789603D01*
X115701883Y-107804331D01*
X115701883Y-107807910D01*
X115703194Y-107814839D01*
X115703194Y-110787516D01*
X115688236Y-110886756D01*
X115682711Y-110898228D01*
X115681205Y-110906286D01*
X115670520Y-110923543D01*
X115648803Y-110968638D01*
X115630153Y-110988738D01*
X115621964Y-111001964D01*
X115608324Y-111012264D01*
X115586983Y-111035265D01*
X115548268Y-111057617D01*
X115532160Y-111069781D01*
X115523788Y-111071750D01*
X115510354Y-111079506D01*
X115410397Y-111098419D01*
X115395669Y-111101883D01*
X115392090Y-111101883D01*
X115385161Y-111103194D01*
X114312484Y-111103194D01*
X114213244Y-111088236D01*
X114201772Y-111082711D01*
X114193714Y-111081205D01*
X114176457Y-111070520D01*
X114131362Y-111048803D01*
X114111262Y-111030153D01*
X114098036Y-111021964D01*
X114087736Y-111008324D01*
X114064735Y-110986983D01*
X114042383Y-110948268D01*
X114030219Y-110932160D01*
X114028250Y-110923788D01*
X114020494Y-110910354D01*
X114001581Y-110810397D01*
X113998117Y-110795669D01*
X113998117Y-110792090D01*
X113996806Y-110785161D01*
X113996806Y-107812484D01*
X114011764Y-107713244D01*
X114017289Y-107701772D01*
X114018795Y-107693714D01*
X114029480Y-107676457D01*
X114051197Y-107631362D01*
X114069847Y-107611262D01*
X114078036Y-107598036D01*
X114091676Y-107587736D01*
X114113017Y-107564735D01*
X114151732Y-107542383D01*
X114167840Y-107530219D01*
X114176212Y-107528250D01*
X114189646Y-107520494D01*
X114289603Y-107501581D01*
X114304331Y-107498117D01*
X114307910Y-107498117D01*
X114314839Y-107496806D01*
X115387516Y-107496806D01*
X115486756Y-107511764D01*
X115486756Y-107511764D01*
G37*
G36*
X105188360Y-108153835D02*
G01*
X105269397Y-108180166D01*
X105356663Y-108207848D01*
X105359655Y-108209493D01*
X105368488Y-108212363D01*
X105440466Y-108253919D01*
X105511499Y-108292970D01*
X105518986Y-108299253D01*
X105532511Y-108307061D01*
X105590259Y-108359057D01*
X105646857Y-108406549D01*
X105656962Y-108419118D01*
X105673261Y-108433793D01*
X105715454Y-108491867D01*
X105757579Y-108544260D01*
X105767994Y-108564182D01*
X105784586Y-108587019D01*
X105811297Y-108647012D01*
X105839439Y-108700843D01*
X105847582Y-108728510D01*
X105861621Y-108760042D01*
X105873992Y-108818241D01*
X105889328Y-108870349D01*
X105892518Y-108905401D01*
X105900999Y-108945301D01*
X105900999Y-108998592D01*
X105905343Y-109046324D01*
X105900999Y-109087653D01*
X105900999Y-109134699D01*
X105891217Y-109180721D01*
X105886873Y-109222047D01*
X105872702Y-109267827D01*
X105861621Y-109319958D01*
X105845028Y-109357226D01*
X105834622Y-109390843D01*
X105808789Y-109438620D01*
X105784586Y-109492981D01*
X105764298Y-109520905D01*
X105750580Y-109546276D01*
X105711859Y-109593082D01*
X105673261Y-109646207D01*
X105652284Y-109665095D01*
X105637952Y-109682419D01*
X105585845Y-109724917D01*
X105532511Y-109772939D01*
X105513524Y-109783901D01*
X105501025Y-109794095D01*
X105435780Y-109828786D01*
X105368488Y-109867637D01*
X105353636Y-109872463D01*
X105345003Y-109877053D01*
X105267430Y-109900473D01*
X105188360Y-109926165D01*
X105179114Y-109927137D01*
X105175851Y-109928122D01*
X105084710Y-109937059D01*
X105047211Y-109941000D01*
X104952789Y-109941000D01*
X104811640Y-109926165D01*
X104730603Y-109899834D01*
X104643337Y-109872152D01*
X104640345Y-109870507D01*
X104631512Y-109867637D01*
X104559534Y-109826081D01*
X104488501Y-109787030D01*
X104481014Y-109780747D01*
X104467489Y-109772939D01*
X104409741Y-109720943D01*
X104353143Y-109673451D01*
X104343038Y-109660882D01*
X104326739Y-109646207D01*
X104284546Y-109588133D01*
X104242421Y-109535740D01*
X104232006Y-109515818D01*
X104215414Y-109492981D01*
X104188703Y-109432988D01*
X104160561Y-109379157D01*
X104152418Y-109351490D01*
X104138379Y-109319958D01*
X104126008Y-109261759D01*
X104110672Y-109209651D01*
X104107482Y-109174599D01*
X104099001Y-109134699D01*
X104099001Y-109081408D01*
X104094657Y-109033676D01*
X104099001Y-108992347D01*
X104099001Y-108945301D01*
X104108783Y-108899279D01*
X104113127Y-108857953D01*
X104127298Y-108812173D01*
X104138379Y-108760042D01*
X104154972Y-108722774D01*
X104165378Y-108689157D01*
X104191211Y-108641380D01*
X104215414Y-108587019D01*
X104235702Y-108559095D01*
X104249420Y-108533724D01*
X104288141Y-108486918D01*
X104326739Y-108433793D01*
X104347716Y-108414905D01*
X104362048Y-108397581D01*
X104414155Y-108355083D01*
X104467489Y-108307061D01*
X104486476Y-108296099D01*
X104498975Y-108285905D01*
X104564220Y-108251214D01*
X104631512Y-108212363D01*
X104646364Y-108207537D01*
X104654997Y-108202947D01*
X104732570Y-108179527D01*
X104811640Y-108153835D01*
X104820886Y-108152863D01*
X104824149Y-108151878D01*
X104915290Y-108142941D01*
X104952789Y-108139000D01*
X105047211Y-108139000D01*
X105188360Y-108153835D01*
X105188360Y-108153835D01*
G37*
G36*
X102329463Y-107863394D02*
G01*
X102386602Y-107884191D01*
X102416554Y-107889905D01*
X102444481Y-107905258D01*
X102466293Y-107913197D01*
X102509086Y-107940775D01*
X102560689Y-107969144D01*
X102577276Y-107984720D01*
X102589058Y-107992313D01*
X102631333Y-108035483D01*
X102680591Y-108081739D01*
X102687884Y-108093231D01*
X102691247Y-108096665D01*
X102728768Y-108157654D01*
X102768724Y-108220615D01*
X102791754Y-108291494D01*
X102814844Y-108359321D01*
X102815347Y-108364106D01*
X102819551Y-108377045D01*
X102823793Y-108444466D01*
X102830110Y-108504572D01*
X102828450Y-108518492D01*
X102829879Y-108541202D01*
X102818845Y-108599045D01*
X102812817Y-108649599D01*
X102805030Y-108671467D01*
X102799059Y-108702769D01*
X102777787Y-108747975D01*
X102763823Y-108787189D01*
X102746457Y-108814553D01*
X102729026Y-108851596D01*
X102702930Y-108883140D01*
X102685564Y-108910505D01*
X102656026Y-108939838D01*
X102624182Y-108978330D01*
X102598403Y-108997060D01*
X102581931Y-109013417D01*
X102538757Y-109040395D01*
X102491114Y-109075010D01*
X102469955Y-109083387D01*
X102458070Y-109090814D01*
X102401010Y-109110685D01*
X102338184Y-109135559D01*
X102324683Y-109137265D01*
X102320142Y-109138846D01*
X102248983Y-109146828D01*
X102215956Y-109151000D01*
X101591252Y-109151000D01*
X101470537Y-109136606D01*
X101413398Y-109115809D01*
X101383446Y-109110095D01*
X101355519Y-109094742D01*
X101333707Y-109086803D01*
X101290914Y-109059225D01*
X101239311Y-109030856D01*
X101222724Y-109015280D01*
X101210942Y-109007687D01*
X101168667Y-108964517D01*
X101119409Y-108918261D01*
X101112116Y-108906769D01*
X101108753Y-108903335D01*
X101071232Y-108842346D01*
X101031276Y-108779385D01*
X101008246Y-108708506D01*
X100985156Y-108640679D01*
X100984653Y-108635894D01*
X100980449Y-108622955D01*
X100976207Y-108555534D01*
X100969890Y-108495428D01*
X100971550Y-108481508D01*
X100970121Y-108458798D01*
X100981155Y-108400955D01*
X100987183Y-108350401D01*
X100994970Y-108328533D01*
X101000941Y-108297231D01*
X101022213Y-108252025D01*
X101036177Y-108212811D01*
X101053543Y-108185447D01*
X101070974Y-108148404D01*
X101097070Y-108116860D01*
X101114436Y-108089495D01*
X101143974Y-108060162D01*
X101175818Y-108021670D01*
X101201597Y-108002940D01*
X101218069Y-107986583D01*
X101261243Y-107959605D01*
X101308886Y-107924990D01*
X101330045Y-107916613D01*
X101341930Y-107909186D01*
X101398990Y-107889315D01*
X101461816Y-107864441D01*
X101475317Y-107862735D01*
X101479858Y-107861154D01*
X101551017Y-107853172D01*
X101584044Y-107849000D01*
X102208748Y-107849000D01*
X102329463Y-107863394D01*
X102329463Y-107863394D01*
G37*
G36*
X108207980Y-107873117D02*
G01*
X108208386Y-107873117D01*
X108210637Y-107873538D01*
X108299801Y-107887660D01*
X108307691Y-107891680D01*
X108314409Y-107892936D01*
X108334176Y-107905175D01*
X108381229Y-107929150D01*
X108394776Y-107942697D01*
X108406114Y-107949717D01*
X108419432Y-107967353D01*
X108445850Y-107993771D01*
X108459267Y-108020103D01*
X108471114Y-108035791D01*
X108474418Y-108049838D01*
X108487340Y-108075199D01*
X108501686Y-108165777D01*
X108501883Y-108166614D01*
X108501883Y-108167020D01*
X108503194Y-108175297D01*
X108503194Y-108624703D01*
X108501883Y-108632980D01*
X108501883Y-108633386D01*
X108501462Y-108635637D01*
X108487340Y-108724801D01*
X108483320Y-108732691D01*
X108482064Y-108739409D01*
X108469825Y-108759176D01*
X108445850Y-108806229D01*
X108432303Y-108819776D01*
X108425283Y-108831114D01*
X108407647Y-108844432D01*
X108381229Y-108870850D01*
X108354897Y-108884267D01*
X108339209Y-108896114D01*
X108325162Y-108899418D01*
X108299801Y-108912340D01*
X108209223Y-108926686D01*
X108208386Y-108926883D01*
X108207980Y-108926883D01*
X108199703Y-108928194D01*
X107650297Y-108928194D01*
X107642020Y-108926883D01*
X107641614Y-108926883D01*
X107639363Y-108926462D01*
X107550199Y-108912340D01*
X107542309Y-108908320D01*
X107535591Y-108907064D01*
X107515824Y-108894825D01*
X107468771Y-108870850D01*
X107455224Y-108857303D01*
X107443886Y-108850283D01*
X107430568Y-108832647D01*
X107404150Y-108806229D01*
X107390733Y-108779897D01*
X107378886Y-108764209D01*
X107375582Y-108750162D01*
X107362660Y-108724801D01*
X107348314Y-108634223D01*
X107348117Y-108633386D01*
X107348117Y-108632980D01*
X107346806Y-108624703D01*
X107346806Y-108175297D01*
X107348117Y-108167020D01*
X107348117Y-108166614D01*
X107348538Y-108164363D01*
X107362660Y-108075199D01*
X107366680Y-108067309D01*
X107367936Y-108060591D01*
X107380175Y-108040824D01*
X107404150Y-107993771D01*
X107417697Y-107980224D01*
X107424717Y-107968886D01*
X107442353Y-107955568D01*
X107468771Y-107929150D01*
X107495103Y-107915733D01*
X107510791Y-107903886D01*
X107524838Y-107900582D01*
X107550199Y-107887660D01*
X107640777Y-107873314D01*
X107641614Y-107873117D01*
X107642020Y-107873117D01*
X107650297Y-107871806D01*
X108199703Y-107871806D01*
X108207980Y-107873117D01*
X108207980Y-107873117D01*
G37*
G36*
X109957980Y-107873117D02*
G01*
X109958386Y-107873117D01*
X109960637Y-107873538D01*
X110049801Y-107887660D01*
X110057691Y-107891680D01*
X110064409Y-107892936D01*
X110084176Y-107905175D01*
X110131229Y-107929150D01*
X110144776Y-107942697D01*
X110156114Y-107949717D01*
X110169432Y-107967353D01*
X110195850Y-107993771D01*
X110209267Y-108020103D01*
X110221114Y-108035791D01*
X110224418Y-108049838D01*
X110237340Y-108075199D01*
X110251686Y-108165777D01*
X110251883Y-108166614D01*
X110251883Y-108167020D01*
X110253194Y-108175297D01*
X110253194Y-108624703D01*
X110251883Y-108632980D01*
X110251883Y-108633386D01*
X110251462Y-108635637D01*
X110237340Y-108724801D01*
X110233320Y-108732691D01*
X110232064Y-108739409D01*
X110219825Y-108759176D01*
X110195850Y-108806229D01*
X110182303Y-108819776D01*
X110175283Y-108831114D01*
X110157647Y-108844432D01*
X110131229Y-108870850D01*
X110104897Y-108884267D01*
X110089209Y-108896114D01*
X110075162Y-108899418D01*
X110049801Y-108912340D01*
X109959223Y-108926686D01*
X109958386Y-108926883D01*
X109957980Y-108926883D01*
X109949703Y-108928194D01*
X109400297Y-108928194D01*
X109392020Y-108926883D01*
X109391614Y-108926883D01*
X109389363Y-108926462D01*
X109300199Y-108912340D01*
X109292309Y-108908320D01*
X109285591Y-108907064D01*
X109265824Y-108894825D01*
X109218771Y-108870850D01*
X109205224Y-108857303D01*
X109193886Y-108850283D01*
X109180568Y-108832647D01*
X109154150Y-108806229D01*
X109140733Y-108779897D01*
X109128886Y-108764209D01*
X109125582Y-108750162D01*
X109112660Y-108724801D01*
X109098314Y-108634223D01*
X109098117Y-108633386D01*
X109098117Y-108632980D01*
X109096806Y-108624703D01*
X109096806Y-108175297D01*
X109098117Y-108167020D01*
X109098117Y-108166614D01*
X109098538Y-108164363D01*
X109112660Y-108075199D01*
X109116680Y-108067309D01*
X109117936Y-108060591D01*
X109130175Y-108040824D01*
X109154150Y-107993771D01*
X109167697Y-107980224D01*
X109174717Y-107968886D01*
X109192353Y-107955568D01*
X109218771Y-107929150D01*
X109245103Y-107915733D01*
X109260791Y-107903886D01*
X109274838Y-107900582D01*
X109300199Y-107887660D01*
X109390777Y-107873314D01*
X109391614Y-107873117D01*
X109392020Y-107873117D01*
X109400297Y-107871806D01*
X109949703Y-107871806D01*
X109957980Y-107873117D01*
X109957980Y-107873117D01*
G37*
G36*
X120219899Y-107001959D02*
G01*
X120236769Y-107013231D01*
X120248041Y-107030101D01*
X120254448Y-107062312D01*
X120254448Y-108137688D01*
X120251236Y-108153835D01*
X120248041Y-108169899D01*
X120236769Y-108186769D01*
X120219899Y-108198041D01*
X120200000Y-108201999D01*
X120187688Y-108204448D01*
X119112312Y-108204448D01*
X119080101Y-108198041D01*
X119063231Y-108186769D01*
X119051959Y-108169899D01*
X119045552Y-108137688D01*
X119045552Y-107062312D01*
X119051959Y-107030101D01*
X119063231Y-107013231D01*
X119080101Y-107001959D01*
X119112312Y-106995552D01*
X120187688Y-106995552D01*
X120219899Y-107001959D01*
X120219899Y-107001959D01*
G37*
G36*
X123261756Y-106461764D02*
G01*
X123273227Y-106467288D01*
X123281287Y-106468795D01*
X123298547Y-106479482D01*
X123343638Y-106501197D01*
X123363738Y-106519847D01*
X123376964Y-106528036D01*
X123387265Y-106541676D01*
X123410264Y-106563016D01*
X123432614Y-106601727D01*
X123444781Y-106617839D01*
X123446751Y-106626213D01*
X123454506Y-106639646D01*
X123473419Y-106739601D01*
X123476883Y-106754330D01*
X123476883Y-106757909D01*
X123478194Y-106764838D01*
X123478194Y-107437517D01*
X123463236Y-107536756D01*
X123457712Y-107548227D01*
X123456205Y-107556287D01*
X123445518Y-107573547D01*
X123423803Y-107618638D01*
X123405153Y-107638738D01*
X123396964Y-107651964D01*
X123383324Y-107662265D01*
X123361984Y-107685264D01*
X123323273Y-107707614D01*
X123307161Y-107719781D01*
X123298787Y-107721751D01*
X123285354Y-107729506D01*
X123185399Y-107748419D01*
X123170670Y-107751883D01*
X123167091Y-107751883D01*
X123160162Y-107753194D01*
X121937483Y-107753194D01*
X121838244Y-107738236D01*
X121826773Y-107732712D01*
X121818713Y-107731205D01*
X121801453Y-107720518D01*
X121756362Y-107698803D01*
X121736262Y-107680153D01*
X121723036Y-107671964D01*
X121712735Y-107658324D01*
X121689736Y-107636984D01*
X121667386Y-107598273D01*
X121655219Y-107582161D01*
X121653249Y-107573787D01*
X121645494Y-107560354D01*
X121626581Y-107460399D01*
X121623117Y-107445670D01*
X121623117Y-107442091D01*
X121621806Y-107435162D01*
X121621806Y-106762483D01*
X121636764Y-106663244D01*
X121642288Y-106651773D01*
X121643795Y-106643713D01*
X121654482Y-106626453D01*
X121676197Y-106581362D01*
X121694847Y-106561262D01*
X121703036Y-106548036D01*
X121716676Y-106537735D01*
X121738016Y-106514736D01*
X121776727Y-106492386D01*
X121792839Y-106480219D01*
X121801213Y-106478249D01*
X121814646Y-106470494D01*
X121914601Y-106451581D01*
X121929330Y-106448117D01*
X121932909Y-106448117D01*
X121939838Y-106446806D01*
X123162517Y-106446806D01*
X123261756Y-106461764D01*
X123261756Y-106461764D01*
G37*
G36*
X110169899Y-105401959D02*
G01*
X110186769Y-105413231D01*
X110198041Y-105430101D01*
X110204448Y-105462312D01*
X110204448Y-107337688D01*
X110201999Y-107350000D01*
X110198041Y-107369899D01*
X110186769Y-107386769D01*
X110169899Y-107398041D01*
X110150000Y-107401999D01*
X110137688Y-107404448D01*
X109362312Y-107404448D01*
X109330101Y-107398041D01*
X109313231Y-107386769D01*
X109301959Y-107369899D01*
X109295552Y-107337688D01*
X109295552Y-105462312D01*
X109301959Y-105430101D01*
X109313231Y-105413231D01*
X109330101Y-105401959D01*
X109362312Y-105395552D01*
X110137688Y-105395552D01*
X110169899Y-105401959D01*
X110169899Y-105401959D01*
G37*
G36*
X108269899Y-105401959D02*
G01*
X108286769Y-105413231D01*
X108298041Y-105430101D01*
X108304448Y-105462312D01*
X108304448Y-107337688D01*
X108301999Y-107350000D01*
X108298041Y-107369899D01*
X108286769Y-107386769D01*
X108269899Y-107398041D01*
X108250000Y-107401999D01*
X108237688Y-107404448D01*
X107462312Y-107404448D01*
X107430101Y-107398041D01*
X107413231Y-107386769D01*
X107401959Y-107369899D01*
X107395552Y-107337688D01*
X107395552Y-105462312D01*
X107401959Y-105430101D01*
X107413231Y-105413231D01*
X107430101Y-105401959D01*
X107462312Y-105395552D01*
X108237688Y-105395552D01*
X108269899Y-105401959D01*
X108269899Y-105401959D01*
G37*
G36*
X105188360Y-105613835D02*
G01*
X105269397Y-105640166D01*
X105356663Y-105667848D01*
X105359655Y-105669493D01*
X105368488Y-105672363D01*
X105440466Y-105713919D01*
X105511499Y-105752970D01*
X105518986Y-105759253D01*
X105532511Y-105767061D01*
X105590259Y-105819057D01*
X105646857Y-105866549D01*
X105656962Y-105879118D01*
X105673261Y-105893793D01*
X105715454Y-105951867D01*
X105757579Y-106004260D01*
X105767994Y-106024182D01*
X105784586Y-106047019D01*
X105811297Y-106107012D01*
X105839439Y-106160843D01*
X105847582Y-106188510D01*
X105861621Y-106220042D01*
X105873992Y-106278241D01*
X105889328Y-106330349D01*
X105892518Y-106365401D01*
X105900999Y-106405301D01*
X105900999Y-106458592D01*
X105905343Y-106506324D01*
X105900999Y-106547653D01*
X105900999Y-106594699D01*
X105891217Y-106640721D01*
X105886873Y-106682047D01*
X105872702Y-106727827D01*
X105861621Y-106779958D01*
X105845028Y-106817226D01*
X105834622Y-106850843D01*
X105808789Y-106898620D01*
X105784586Y-106952981D01*
X105764298Y-106980905D01*
X105750580Y-107006276D01*
X105711859Y-107053082D01*
X105673261Y-107106207D01*
X105652284Y-107125095D01*
X105637952Y-107142419D01*
X105585845Y-107184917D01*
X105532511Y-107232939D01*
X105513524Y-107243901D01*
X105501025Y-107254095D01*
X105435780Y-107288786D01*
X105368488Y-107327637D01*
X105353636Y-107332463D01*
X105345003Y-107337053D01*
X105267430Y-107360473D01*
X105188360Y-107386165D01*
X105179114Y-107387137D01*
X105175851Y-107388122D01*
X105084710Y-107397059D01*
X105047211Y-107401000D01*
X104952789Y-107401000D01*
X104811640Y-107386165D01*
X104730603Y-107359834D01*
X104643337Y-107332152D01*
X104640345Y-107330507D01*
X104631512Y-107327637D01*
X104559534Y-107286081D01*
X104488501Y-107247030D01*
X104481014Y-107240747D01*
X104467489Y-107232939D01*
X104409741Y-107180943D01*
X104353143Y-107133451D01*
X104343038Y-107120882D01*
X104326739Y-107106207D01*
X104284546Y-107048133D01*
X104242421Y-106995740D01*
X104232006Y-106975818D01*
X104215414Y-106952981D01*
X104188703Y-106892988D01*
X104160561Y-106839157D01*
X104152418Y-106811490D01*
X104138379Y-106779958D01*
X104126008Y-106721759D01*
X104110672Y-106669651D01*
X104107482Y-106634599D01*
X104099001Y-106594699D01*
X104099001Y-106541408D01*
X104094657Y-106493676D01*
X104099001Y-106452347D01*
X104099001Y-106405301D01*
X104108783Y-106359279D01*
X104113127Y-106317953D01*
X104127298Y-106272173D01*
X104138379Y-106220042D01*
X104154972Y-106182774D01*
X104165378Y-106149157D01*
X104191211Y-106101380D01*
X104215414Y-106047019D01*
X104235702Y-106019095D01*
X104249420Y-105993724D01*
X104288141Y-105946918D01*
X104326739Y-105893793D01*
X104347716Y-105874905D01*
X104362048Y-105857581D01*
X104414155Y-105815083D01*
X104467489Y-105767061D01*
X104486476Y-105756099D01*
X104498975Y-105745905D01*
X104564220Y-105711214D01*
X104631512Y-105672363D01*
X104646364Y-105667537D01*
X104654997Y-105662947D01*
X104732570Y-105639527D01*
X104811640Y-105613835D01*
X104820886Y-105612863D01*
X104824149Y-105611878D01*
X104915290Y-105602941D01*
X104952789Y-105599000D01*
X105047211Y-105599000D01*
X105188360Y-105613835D01*
X105188360Y-105613835D01*
G37*
G36*
X102329463Y-105863394D02*
G01*
X102386602Y-105884191D01*
X102416554Y-105889905D01*
X102444481Y-105905258D01*
X102466293Y-105913197D01*
X102509086Y-105940775D01*
X102560689Y-105969144D01*
X102577276Y-105984720D01*
X102589058Y-105992313D01*
X102631333Y-106035483D01*
X102680591Y-106081739D01*
X102687884Y-106093231D01*
X102691247Y-106096665D01*
X102728768Y-106157654D01*
X102768724Y-106220615D01*
X102791754Y-106291494D01*
X102814844Y-106359321D01*
X102815347Y-106364106D01*
X102819551Y-106377045D01*
X102823793Y-106444466D01*
X102830110Y-106504572D01*
X102828450Y-106518492D01*
X102829879Y-106541202D01*
X102818845Y-106599045D01*
X102812817Y-106649599D01*
X102805030Y-106671467D01*
X102799059Y-106702769D01*
X102777787Y-106747975D01*
X102763823Y-106787189D01*
X102746457Y-106814553D01*
X102729026Y-106851596D01*
X102702930Y-106883140D01*
X102685564Y-106910505D01*
X102656026Y-106939838D01*
X102624182Y-106978330D01*
X102598403Y-106997060D01*
X102581931Y-107013417D01*
X102538757Y-107040395D01*
X102491114Y-107075010D01*
X102469955Y-107083387D01*
X102458070Y-107090814D01*
X102401010Y-107110685D01*
X102338184Y-107135559D01*
X102324683Y-107137265D01*
X102320142Y-107138846D01*
X102248983Y-107146828D01*
X102215956Y-107151000D01*
X101591252Y-107151000D01*
X101470537Y-107136606D01*
X101413398Y-107115809D01*
X101383446Y-107110095D01*
X101355519Y-107094742D01*
X101333707Y-107086803D01*
X101290914Y-107059225D01*
X101239311Y-107030856D01*
X101222724Y-107015280D01*
X101210942Y-107007687D01*
X101168667Y-106964517D01*
X101119409Y-106918261D01*
X101112116Y-106906769D01*
X101108753Y-106903335D01*
X101071232Y-106842346D01*
X101031276Y-106779385D01*
X101008246Y-106708506D01*
X100985156Y-106640679D01*
X100984653Y-106635894D01*
X100980449Y-106622955D01*
X100976207Y-106555534D01*
X100969890Y-106495428D01*
X100971550Y-106481508D01*
X100970121Y-106458798D01*
X100981155Y-106400955D01*
X100987183Y-106350401D01*
X100994970Y-106328533D01*
X101000941Y-106297231D01*
X101022213Y-106252025D01*
X101036177Y-106212811D01*
X101053543Y-106185447D01*
X101070974Y-106148404D01*
X101097070Y-106116860D01*
X101114436Y-106089495D01*
X101143974Y-106060162D01*
X101175818Y-106021670D01*
X101201597Y-106002940D01*
X101218069Y-105986583D01*
X101261243Y-105959605D01*
X101308886Y-105924990D01*
X101330045Y-105916613D01*
X101341930Y-105909186D01*
X101398990Y-105889315D01*
X101461816Y-105864441D01*
X101475317Y-105862735D01*
X101479858Y-105861154D01*
X101551017Y-105853172D01*
X101584044Y-105849000D01*
X102208748Y-105849000D01*
X102329463Y-105863394D01*
X102329463Y-105863394D01*
G37*
G36*
X122979463Y-104463394D02*
G01*
X123036602Y-104484191D01*
X123066554Y-104489905D01*
X123094481Y-104505258D01*
X123116293Y-104513197D01*
X123159086Y-104540775D01*
X123210689Y-104569144D01*
X123227276Y-104584720D01*
X123239058Y-104592313D01*
X123281333Y-104635483D01*
X123330591Y-104681739D01*
X123337884Y-104693231D01*
X123341247Y-104696665D01*
X123378768Y-104757654D01*
X123418724Y-104820615D01*
X123441754Y-104891494D01*
X123464844Y-104959321D01*
X123465347Y-104964106D01*
X123469551Y-104977045D01*
X123473793Y-105044466D01*
X123480110Y-105104572D01*
X123478450Y-105118492D01*
X123479879Y-105141202D01*
X123468845Y-105199045D01*
X123462817Y-105249599D01*
X123455030Y-105271467D01*
X123449059Y-105302769D01*
X123427787Y-105347975D01*
X123413823Y-105387189D01*
X123396457Y-105414553D01*
X123379026Y-105451596D01*
X123352930Y-105483140D01*
X123335564Y-105510505D01*
X123306026Y-105539838D01*
X123274182Y-105578330D01*
X123248403Y-105597060D01*
X123231931Y-105613417D01*
X123188757Y-105640395D01*
X123141114Y-105675010D01*
X123119955Y-105683387D01*
X123108070Y-105690814D01*
X123051010Y-105710685D01*
X122988184Y-105735559D01*
X122974683Y-105737265D01*
X122970142Y-105738846D01*
X122898983Y-105746828D01*
X122865956Y-105751000D01*
X122241252Y-105751000D01*
X122120537Y-105736606D01*
X122063398Y-105715809D01*
X122033446Y-105710095D01*
X122005519Y-105694742D01*
X121983707Y-105686803D01*
X121940914Y-105659225D01*
X121889311Y-105630856D01*
X121872724Y-105615280D01*
X121860942Y-105607687D01*
X121818667Y-105564517D01*
X121769409Y-105518261D01*
X121762116Y-105506769D01*
X121758753Y-105503335D01*
X121721232Y-105442346D01*
X121681276Y-105379385D01*
X121658246Y-105308506D01*
X121635156Y-105240679D01*
X121634653Y-105235894D01*
X121630449Y-105222955D01*
X121626207Y-105155534D01*
X121619890Y-105095428D01*
X121621550Y-105081508D01*
X121620121Y-105058798D01*
X121631155Y-105000955D01*
X121637183Y-104950401D01*
X121644970Y-104928533D01*
X121650941Y-104897231D01*
X121672213Y-104852025D01*
X121686177Y-104812811D01*
X121703543Y-104785447D01*
X121720974Y-104748404D01*
X121747070Y-104716860D01*
X121764436Y-104689495D01*
X121793974Y-104660162D01*
X121825818Y-104621670D01*
X121851597Y-104602940D01*
X121868069Y-104586583D01*
X121911243Y-104559605D01*
X121958886Y-104524990D01*
X121980045Y-104516613D01*
X121991930Y-104509186D01*
X122048990Y-104489315D01*
X122111816Y-104464441D01*
X122125317Y-104462735D01*
X122129858Y-104461154D01*
X122201017Y-104453172D01*
X122234044Y-104449000D01*
X122858748Y-104449000D01*
X122979463Y-104463394D01*
X122979463Y-104463394D01*
G37*
G36*
X115486756Y-101911764D02*
G01*
X115498228Y-101917289D01*
X115506286Y-101918795D01*
X115523543Y-101929480D01*
X115568638Y-101951197D01*
X115588738Y-101969847D01*
X115601964Y-101978036D01*
X115612264Y-101991676D01*
X115635265Y-102013017D01*
X115657617Y-102051732D01*
X115669781Y-102067840D01*
X115671750Y-102076212D01*
X115679506Y-102089646D01*
X115698419Y-102189603D01*
X115701883Y-102204331D01*
X115701883Y-102207910D01*
X115703194Y-102214839D01*
X115703194Y-105187516D01*
X115688236Y-105286756D01*
X115682711Y-105298228D01*
X115681205Y-105306286D01*
X115670520Y-105323543D01*
X115648803Y-105368638D01*
X115630153Y-105388738D01*
X115621964Y-105401964D01*
X115608324Y-105412264D01*
X115586983Y-105435265D01*
X115548268Y-105457617D01*
X115532160Y-105469781D01*
X115523788Y-105471750D01*
X115510354Y-105479506D01*
X115410397Y-105498419D01*
X115395669Y-105501883D01*
X115392090Y-105501883D01*
X115385161Y-105503194D01*
X114312484Y-105503194D01*
X114213244Y-105488236D01*
X114201772Y-105482711D01*
X114193714Y-105481205D01*
X114176457Y-105470520D01*
X114131362Y-105448803D01*
X114111262Y-105430153D01*
X114098036Y-105421964D01*
X114087736Y-105408324D01*
X114064735Y-105386983D01*
X114042383Y-105348268D01*
X114030219Y-105332160D01*
X114028250Y-105323788D01*
X114020494Y-105310354D01*
X114001581Y-105210397D01*
X113998117Y-105195669D01*
X113998117Y-105192090D01*
X113996806Y-105185161D01*
X113996806Y-102212484D01*
X114011764Y-102113244D01*
X114017289Y-102101772D01*
X114018795Y-102093714D01*
X114029480Y-102076457D01*
X114051197Y-102031362D01*
X114069847Y-102011262D01*
X114078036Y-101998036D01*
X114091676Y-101987736D01*
X114113017Y-101964735D01*
X114151732Y-101942383D01*
X114167840Y-101930219D01*
X114176212Y-101928250D01*
X114189646Y-101920494D01*
X114289603Y-101901581D01*
X114304331Y-101898117D01*
X114307910Y-101898117D01*
X114314839Y-101896806D01*
X115387516Y-101896806D01*
X115486756Y-101911764D01*
X115486756Y-101911764D01*
G37*
G36*
X120219899Y-104201959D02*
G01*
X120236769Y-104213231D01*
X120248041Y-104230101D01*
X120254448Y-104262312D01*
X120254448Y-105337688D01*
X120251999Y-105350000D01*
X120248041Y-105369899D01*
X120236769Y-105386769D01*
X120219899Y-105398041D01*
X120200000Y-105401999D01*
X120187688Y-105404448D01*
X119112312Y-105404448D01*
X119080101Y-105398041D01*
X119063231Y-105386769D01*
X119051959Y-105369899D01*
X119045552Y-105337688D01*
X119045552Y-104262312D01*
X119051959Y-104230101D01*
X119063231Y-104213231D01*
X119080101Y-104201959D01*
X119112312Y-104195552D01*
X120187688Y-104195552D01*
X120219899Y-104201959D01*
X120219899Y-104201959D01*
G37*
G36*
X102611756Y-103861764D02*
G01*
X102623227Y-103867288D01*
X102631287Y-103868795D01*
X102648547Y-103879482D01*
X102693638Y-103901197D01*
X102713738Y-103919847D01*
X102726964Y-103928036D01*
X102737265Y-103941676D01*
X102760264Y-103963016D01*
X102782614Y-104001727D01*
X102794781Y-104017839D01*
X102796751Y-104026213D01*
X102804506Y-104039646D01*
X102823419Y-104139601D01*
X102826883Y-104154330D01*
X102826883Y-104157909D01*
X102828194Y-104164838D01*
X102828194Y-104837517D01*
X102813236Y-104936756D01*
X102807712Y-104948227D01*
X102806205Y-104956287D01*
X102795518Y-104973547D01*
X102773803Y-105018638D01*
X102755153Y-105038738D01*
X102746964Y-105051964D01*
X102733324Y-105062265D01*
X102711984Y-105085264D01*
X102673273Y-105107614D01*
X102657161Y-105119781D01*
X102648787Y-105121751D01*
X102635354Y-105129506D01*
X102535399Y-105148419D01*
X102520670Y-105151883D01*
X102517091Y-105151883D01*
X102510162Y-105153194D01*
X101287483Y-105153194D01*
X101188244Y-105138236D01*
X101176773Y-105132712D01*
X101168713Y-105131205D01*
X101151453Y-105120518D01*
X101106362Y-105098803D01*
X101086262Y-105080153D01*
X101073036Y-105071964D01*
X101062735Y-105058324D01*
X101039736Y-105036984D01*
X101017386Y-104998273D01*
X101005219Y-104982161D01*
X101003249Y-104973787D01*
X100995494Y-104960354D01*
X100976581Y-104860399D01*
X100973117Y-104845670D01*
X100973117Y-104842091D01*
X100971806Y-104835162D01*
X100971806Y-104162483D01*
X100986764Y-104063244D01*
X100992288Y-104051773D01*
X100993795Y-104043713D01*
X101004482Y-104026453D01*
X101026197Y-103981362D01*
X101044847Y-103961262D01*
X101053036Y-103948036D01*
X101066676Y-103937735D01*
X101088016Y-103914736D01*
X101126727Y-103892386D01*
X101142839Y-103880219D01*
X101151213Y-103878249D01*
X101164646Y-103870494D01*
X101264601Y-103851581D01*
X101279330Y-103848117D01*
X101282909Y-103848117D01*
X101289838Y-103846806D01*
X102512517Y-103846806D01*
X102611756Y-103861764D01*
X102611756Y-103861764D01*
G37*
G36*
X105869899Y-103061959D02*
G01*
X105886769Y-103073231D01*
X105898041Y-103090101D01*
X105904448Y-103122312D01*
X105904448Y-104797688D01*
X105901999Y-104810000D01*
X105898041Y-104829899D01*
X105886769Y-104846769D01*
X105869899Y-104858041D01*
X105850000Y-104861999D01*
X105837688Y-104864448D01*
X104162312Y-104864448D01*
X104130101Y-104858041D01*
X104113231Y-104846769D01*
X104101959Y-104829899D01*
X104095552Y-104797688D01*
X104095552Y-103122312D01*
X104101959Y-103090101D01*
X104113231Y-103073231D01*
X104130101Y-103061959D01*
X104162312Y-103055552D01*
X105837688Y-103055552D01*
X105869899Y-103061959D01*
X105869899Y-103061959D01*
G37*
G36*
X109219899Y-102401959D02*
G01*
X109236769Y-102413231D01*
X109248041Y-102430101D01*
X109254448Y-102462312D01*
X109254448Y-104337688D01*
X109251999Y-104350000D01*
X109248041Y-104369899D01*
X109236769Y-104386769D01*
X109219899Y-104398041D01*
X109200000Y-104401999D01*
X109187688Y-104404448D01*
X108412312Y-104404448D01*
X108380101Y-104398041D01*
X108363231Y-104386769D01*
X108351959Y-104369899D01*
X108345552Y-104337688D01*
X108345552Y-102462312D01*
X108351959Y-102430101D01*
X108363231Y-102413231D01*
X108380101Y-102401959D01*
X108412312Y-102395552D01*
X109187688Y-102395552D01*
X109219899Y-102401959D01*
X109219899Y-102401959D01*
G37*
M02*
